<svg width="225" height="280" viewBox="0 0 225 280" fill="none" xmlns="http://www.w3.org/2000/svg">
<path d="M180.268 214.661L145.088 192.708C136.592 187.408 132.807 176.094 135.572 165.941L205.217 209.408C199.182 217.514 188.758 219.961 180.268 214.661ZM215.77 93.5475L207.567 200.454L140.94 158.881L215.77 93.5475ZM86.4064 228.988L107.518 242.161C116.008 247.461 119.799 258.774 117.033 268.928L12.2033 203.508C18.2443 195.394 28.6623 192.948 37.1584 198.248L86.4064 228.988ZM157.158 33.6142L165.045 38.5408L86.5998 218.694L65.7932 205.708L157.158 33.6142ZM172.68 12.0608C176.553 14.4808 177.983 20.0475 175.856 24.4608C173.729 28.8675 168.836 30.4875 164.957 28.0742C161.084 25.6542 159.654 20.0875 161.781 15.6742C163.908 11.2675 168.801 9.64083 172.68 12.0608ZM80.9162 121.421L14.2951 79.8408L89.1193 14.5075L80.9162 121.421ZM53.6174 135.628L18.4377 113.668C9.94159 108.368 6.15643 97.0542 8.92206 86.9008L78.5666 130.368C72.5314 138.481 62.1076 140.928 53.6174 135.628ZM215.014 208.221L224.559 84.0008C224.694 82.1942 223.897 80.4742 222.496 79.6008L216.707 75.9875C209.535 71.5142 203.278 65.1008 198.619 57.4408C193.258 48.6208 186.051 41.2342 177.783 36.0742L177.08 35.6342C179.43 34.0275 181.481 31.7742 182.893 28.8475C187.147 20.0142 184.299 8.90083 176.535 4.05417C168.772 -0.7925 159.004 2.4475 154.744 11.2875C153.338 14.2075 152.77 17.3942 152.84 20.5075L150.596 19.1075C143.301 14.5542 135.408 11.7875 127.141 10.8808L120.016 10.0942C112.838 9.29417 105.988 6.8875 99.6545 2.93417L95.8459 0.560833C94.4455 -0.3125 92.7404 -0.152499 91.4748 0.9475L4.53925 76.8675C4.10565 77.2475 3.73651 77.7075 3.45526 78.2875C-3.992 93.7342 1.00018 113.201 14.5764 121.674L49.756 143.628C63.3322 152.101 80.4416 146.428 87.8889 130.981C88.1701 130.401 88.3166 129.801 88.3635 129.181L97.3928 11.8208C104.242 15.8075 111.561 18.3208 119.248 19.1742L126.379 19.9608C133.551 20.7608 140.406 23.1608 146.74 27.1142L150.121 29.2275L58.7443 201.308L41.0139 190.241C27.4377 181.768 10.3283 187.448 2.88104 202.894C1.8205 205.101 2.52948 207.881 4.46893 209.094L117.045 279.348C118.985 280.561 121.434 279.748 122.494 277.541C129.942 262.094 124.955 242.628 111.373 234.154L93.6486 223.088L172.082 42.9275L173.922 44.0808C181.094 48.5542 187.358 54.9675 192.01 62.6275C197.377 71.4475 204.578 78.8342 212.852 83.9942L213.25 84.2408L131.184 155.901C130.75 156.281 130.387 156.748 130.106 157.328C122.658 172.774 127.651 192.241 141.227 200.714L176.406 222.668C189.983 231.141 207.092 225.468 214.539 210.014C214.821 209.441 214.967 208.841 215.014 208.221Z" fill="#100F0D"/>
</svg>
