<svg width="197" height="253" viewBox="0 0 197 253" fill="none" xmlns="http://www.w3.org/2000/svg">
<path d="M190.886 109.841C190.352 100.428 188.6 91.2079 185.682 82.4546C182.22 72.0679 177.169 62.1279 173.671 56.8479C172.03 53.3479 169.499 49.9746 166.124 46.8279C165.374 46.1346 164.583 45.4546 163.763 44.8212C157.739 40.1479 152.858 33.4346 149.653 25.4012C147.989 21.2412 145.886 17.3412 143.401 13.8212C137.518 5.4679 130.962 1.30124 127.809 -0.698765C121.962 -4.4121 104.173 -15.6988 82.5692 -8.82543C56.1083 -0.36543 46.2762 28.5612 43.2762 40.6279C41.8817 46.2212 41.9989 52.0679 43.6219 57.5346C44.2723 59.7279 44.8524 61.9879 45.3387 64.2346C45.7665 66.2012 46.1298 68.2079 46.4286 70.1946C47.2606 75.7612 46.452 81.4412 44.1434 86.2012C42.4852 89.6079 40.4227 92.5812 38.0145 95.0212C34.4696 98.6146 30.9305 100.315 27.8133 101.808C23.8407 103.715 20.0966 105.508 17.9462 110.581C16.4286 114.161 16.786 116.841 17.1259 119.435C17.454 121.928 17.7997 124.508 16.5634 128.628C15.4501 132.341 13.9676 134.268 12.4032 136.308C10.827 138.361 9.19811 140.481 8.04968 144.255C7.11804 147.335 6.77819 150.701 7.04773 154.255C7.48718 160.115 6.37976 165.608 3.83679 170.135C-1.49524 179.648 -1.24915 191.761 4.44616 199.608C8.64147 205.395 15.5204 208.468 22.8505 207.841C25.6923 207.595 28.6923 206.561 32.0204 204.688C34.2469 203.435 37.6512 202.248 41.2548 203.741C43.2704 204.568 44.7118 206.008 45.6258 207.181C41.5946 214.261 40.4344 221.075 42.4501 225.581C40.9442 228.268 39.5731 232.015 40.2469 236.141C40.5809 238.228 41.4481 239.901 43.0301 242.968C45.0458 246.868 46.0536 248.821 47.8524 250.008C50.5712 251.788 53.7528 251.235 56.1434 250.321C56.7938 250.068 57.3798 249.795 57.8895 249.535C59.3661 250.735 60.9247 251.461 62.5477 251.641C63.2743 251.721 65.4012 251.688 66.8719 251.281C68.4305 251.895 71.454 252.661 74.952 251.321C75.1161 251.261 75.2801 251.195 75.4442 251.121C77.788 250.075 79.4755 247.928 80.3192 245.368C80.8993 245.695 81.4911 245.988 82.1063 246.201C85.036 247.201 87.7782 246.728 89.9579 245.895C91.7626 245.201 93.1805 244.268 93.9891 243.735C94.9501 243.101 97.3231 241.301 99.6024 237.908C100.048 237.875 100.499 237.801 100.938 237.668C101.108 237.615 101.272 237.561 101.436 237.495C105.38 235.988 107.366 231.088 106.686 227.401C106.335 225.495 105.333 224.468 104.278 223.388C103.563 222.655 102.749 221.815 101.8 220.448C100.95 219.221 100.212 217.881 99.6024 216.455C100.634 216.001 101.682 216.241 103.411 216.768C103.938 216.928 104.53 217.095 105.145 217.248C110.677 230.928 115.423 237.348 119.255 236.301C119.366 236.275 119.472 236.241 119.577 236.201C122.225 235.188 123.731 230.835 124.265 222.668C125.366 222.895 126.725 222.935 128.132 222.395C128.319 222.321 128.507 222.241 128.694 222.148C131.782 220.628 133.634 216.875 133.481 212.755C134.624 211.815 135.936 210.395 136.921 208.308C137.495 207.095 137.888 205.808 138.099 204.461C139.405 203.855 141.386 202.555 142.44 199.921C142.915 198.735 143.067 197.608 143.085 196.641C144.608 195.681 147.134 193.548 147.942 189.588C148.528 186.741 147.954 184.348 147.257 182.655C153.145 180.541 158.061 176.155 160.733 170.295C163.218 164.841 163.599 158.561 162.245 152.595C164.407 151.041 168.942 147.415 173.196 141.635C176.589 141.861 179.946 141.395 183.063 140.208C183.89 139.888 184.698 139.528 185.489 139.115C188.6 137.488 195.89 133.668 196.311 126.281C196.47 123.461 195.573 120.561 193.716 117.888C192.022 115.461 191.044 112.675 190.886 109.841ZM161.823 48.0412C162.561 48.6079 163.276 49.2212 163.95 49.8479C167.026 52.7146 169.311 55.7412 170.735 58.8546C174.684 67.4879 172.247 77.2279 170.448 83.2946C169.27 83.0212 168.368 82.5079 167.759 81.7546C167.401 81.3146 167.266 80.9546 167.079 80.4546C166.815 79.7412 166.446 78.7679 165.444 77.8946C164.026 76.6612 162.573 76.6679 161.518 76.6679C160.71 76.6679 160.27 76.6546 159.872 76.3612C158.987 75.7212 158.682 73.9479 158.583 72.5746C158.507 71.5012 157.675 70.7012 156.731 70.7946C155.794 70.8746 155.085 71.8279 155.167 72.9012C155.407 76.1679 156.362 78.4412 158.015 79.6479C159.286 80.5746 160.528 80.5679 161.524 80.5679C162.427 80.5679 162.884 80.5879 163.358 80.9946C163.634 81.2412 163.71 81.4146 163.927 81.9946C164.161 82.6146 164.477 83.4612 165.227 84.3879C166.241 85.6479 167.612 86.5012 169.294 86.9746C165.304 98.8279 156.72 115.321 148.118 114.788C145.452 114.621 143.993 112.961 140.94 109.215C139.241 107.128 137.173 104.615 134.313 101.821C134.559 101.095 134.741 100.315 134.806 99.4879C134.958 97.6012 134.466 96.4212 134.073 95.4679C133.751 94.6879 133.516 94.1212 133.569 92.9946C133.622 91.8079 133.938 91.2079 134.337 90.4412C134.811 89.5279 135.403 88.3946 135.292 86.6146C135.122 83.9746 133.616 82.7012 132.409 81.6746C131.483 80.8879 130.681 80.2079 130.276 78.9146C129.872 77.6279 130.147 76.7079 130.71 75.0612C131.349 73.2079 132.14 70.8946 131.472 67.5412C131.091 65.6212 130.452 64.4812 129.948 63.5679C129.45 62.6812 129.204 62.2346 129.222 61.2012C129.239 60.2612 129.444 59.8946 130.001 58.9346C130.511 58.0412 131.214 56.8279 131.876 54.7679C132.731 52.1079 132.843 50.1812 132.925 48.7746C133.007 47.2812 133.059 46.7746 133.616 46.0812C134.079 45.5079 134.407 45.4146 135.122 45.2079C136.054 44.9346 137.325 44.5679 138.878 43.0079C140.114 41.7612 140.718 40.5879 141.204 39.6479C141.679 38.7279 141.907 38.3079 142.464 37.9812C143.349 37.4546 144.556 37.4746 146.003 38.0012C148.804 39.1412 150.515 40.6212 151.083 42.3946C151.464 43.5746 151.282 44.5746 150.901 46.3746C150.585 47.9079 150.181 49.8146 150.321 52.2212C150.515 55.6079 151.686 58.8946 153.807 61.9946C154.393 62.8412 155.472 63.0079 156.216 62.3346C156.966 61.6679 157.1 60.4479 156.515 59.5946C154.821 57.1212 153.89 54.5546 153.743 51.9612C153.638 50.1412 153.942 48.6812 154.241 47.2746C154.64 45.3612 155.056 43.3879 154.306 41.0546C154.188 40.6812 154.042 40.3212 153.878 39.9679C156.251 43.0479 158.905 45.7746 161.823 48.0412ZM179.061 108.721C178.059 108.241 177.034 107.981 176.009 107.948C174.843 107.908 174.005 108.168 173.395 108.361C172.768 108.555 172.557 108.615 172.159 108.495C171.626 108.335 171.386 108.028 170.847 107.281C170.29 106.528 169.604 105.588 168.368 104.848C167.53 104.341 166.593 104.061 165.579 103.955C168.503 98.8146 170.852 93.1879 172.434 88.5479C174.989 92.7946 178.259 99.8079 179.061 108.721ZM83.4891 -5.06543C103.733 -11.5121 120.597 -0.805432 126.134 2.7079C129.327 4.7279 135.263 8.50123 140.724 16.2546C143.032 19.5279 144.983 23.1479 146.524 27.0146C148.03 30.7746 149.888 34.2479 152.026 37.4146C150.802 36.1946 149.167 35.1479 147.11 34.3146C144.702 33.4346 142.604 33.5079 140.882 34.5279C139.429 35.3879 138.802 36.6079 138.245 37.6812C137.829 38.4946 137.431 39.2612 136.604 40.0946C135.673 41.0279 135.057 41.2079 134.278 41.4346C133.464 41.6746 132.462 42.0012 131.431 43.1079C131.073 42.6412 130.686 42.2279 130.218 41.9346C129.028 41.1879 127.891 41.3079 127.136 41.3812C127.013 41.3946 126.86 41.4146 126.737 41.4212C126.725 41.1612 126.761 40.7612 126.784 40.4746C126.872 39.2812 127.013 37.4746 125.864 36.0279C124.681 34.5346 123.075 34.6012 122.015 34.6412C121.739 34.6546 121.341 34.6679 121.13 34.6412C121.147 34.3279 121.294 33.7479 121.399 33.3412C121.774 31.8612 122.284 29.8279 121.306 27.7412C120.497 26.0279 119.202 25.4146 118.253 24.9679C117.391 24.5679 117.151 24.4079 117.011 24.0079C116.882 23.6279 116.923 23.2812 117.022 22.6346C117.157 21.7079 117.368 20.3079 116.477 18.8946C115.698 17.6746 114.72 17.4212 114.005 17.2412C113.612 17.1479 113.278 17.0612 112.886 16.8079C112.112 16.3146 111.872 15.6679 111.485 14.4746C111.081 13.2412 110.583 11.7079 109.106 10.6146C107.425 9.37457 105.931 9.7679 104.724 10.0812C103.768 10.3346 102.936 10.5546 101.77 10.1212C100.599 9.69457 100.083 8.9879 99.4266 8.0879C98.6298 6.9879 97.6337 5.62123 95.5594 5.2279C93.6962 4.8679 92.2899 5.5679 91.2645 6.08123C90.245 6.59457 89.829 6.75457 89.2137 6.5079C88.7333 6.3079 88.4989 6.01457 88.0946 5.4679C87.5673 4.75457 86.7704 3.67457 85.2235 3.5079C83.5184 3.32123 82.3583 4.3479 81.5087 5.10123C81.1512 5.42123 80.7001 5.82124 80.5243 5.78123C80.4481 5.7679 80.3075 5.5479 80.1083 5.24123C79.6864 4.57457 78.9774 3.45457 77.5594 3.18123C75.8368 2.8479 74.6298 3.99457 73.7567 4.83457C73.2997 5.2679 72.8251 5.72124 72.5438 5.68123C72.4618 5.63457 72.245 5.34124 72.1044 5.1479C71.6825 4.58123 71.1083 3.8079 70.1122 3.24123C69.7665 3.04124 69.409 2.90123 69.034 2.79457C73.1473 -0.552097 77.9227 -3.3121 83.4891 -5.06543ZM19.8094 129.881C21.3153 124.868 20.87 121.535 20.5184 118.855C20.202 116.481 19.9735 114.768 21.0341 112.275C22.6161 108.528 25.3524 107.221 29.1434 105.401C32.5067 103.788 36.327 101.955 40.2938 97.9346C42.995 95.1946 45.3036 91.8746 47.1434 88.0812C49.827 82.5546 50.7704 75.9679 49.8094 69.5346C49.4989 67.4546 49.1122 65.3546 48.6669 63.3012C48.1571 60.9412 47.5536 58.5812 46.8739 56.2812C45.4735 51.5679 45.3739 46.5212 46.5751 41.6812C48.4735 34.0546 53.2665 19.2812 63.5848 7.96124C65.829 6.5679 67.5516 6.13457 68.5712 6.72124C68.9403 6.93457 69.1688 7.23457 69.4852 7.66123C69.9774 8.33457 70.7333 9.3479 72.1395 9.5479C73.8856 9.8079 75.0868 8.65457 75.9657 7.81457C76.2645 7.5279 76.827 6.9879 76.9735 7.01457C77.0438 7.07457 77.2137 7.34123 77.3309 7.52123C77.7528 8.1879 78.4618 9.30123 79.8856 9.61457C81.5731 9.97457 82.8036 8.8879 83.618 8.17457C84.2508 7.61457 84.579 7.3479 84.8954 7.3879C85.0126 7.39457 85.0477 7.40124 85.4637 7.9679C85.9501 8.6279 86.6825 9.62123 88.0653 10.1812C90.0165 10.9679 91.5282 10.2012 92.6473 9.65457C93.5965 9.17457 94.1708 8.92123 94.9911 9.0679C95.7762 9.22123 96.0868 9.61457 96.7841 10.5746C97.5516 11.6146 98.5946 13.0479 100.716 13.8279C102.79 14.5946 104.354 14.1812 105.497 13.8812C106.552 13.6012 106.815 13.5746 107.237 13.8812C107.741 14.2546 107.934 14.8012 108.268 15.8212C108.696 17.1612 109.294 18.9879 111.21 20.2079C112.036 20.7412 112.739 20.9146 113.255 21.0479C113.419 21.0879 113.647 21.1479 113.712 21.2079C113.735 21.3146 113.677 21.7279 113.636 21.9812C113.513 22.8012 113.331 24.0346 113.829 25.4479C114.526 27.4412 115.921 28.0946 116.94 28.5746C117.749 28.9479 118.071 29.1346 118.282 29.5812C118.587 30.2212 118.417 31.0212 118.1 32.2612C117.743 33.6679 117.257 35.5946 118.481 37.2079C119.565 38.6412 121.112 38.5812 122.138 38.5412C122.559 38.5212 123.204 38.4946 123.321 38.6412C123.468 38.8279 123.409 39.5812 123.368 40.1346C123.274 41.3412 123.134 43.1746 124.446 44.4479C125.489 45.4679 126.673 45.3479 127.458 45.2612C128.05 45.2012 128.313 45.1946 128.559 45.3479C129.022 45.6346 129.368 46.5079 129.556 47.7812C129.532 48.0346 129.52 48.2812 129.503 48.5279C129.432 49.8279 129.345 51.3012 128.659 53.4279C128.132 55.0679 127.604 55.9879 127.136 56.8012C126.497 57.9146 125.835 59.0612 125.794 61.1212C125.759 63.3346 126.444 64.5679 127.054 65.6546C127.475 66.4212 127.88 67.1412 128.126 68.4012C128.565 70.5946 128.079 72.0079 127.516 73.6479C126.901 75.4612 126.198 77.5146 127.048 80.2279C127.804 82.6279 129.28 83.8812 130.358 84.8012C131.46 85.7346 131.823 86.1012 131.87 86.8946C131.905 87.4346 131.782 87.6946 131.39 88.4479C130.903 89.3746 130.241 90.6479 130.141 92.7946C130.048 94.8946 130.581 96.1879 130.974 97.1346C131.284 97.8879 131.46 98.3012 131.39 99.1346C129.626 97.6079 127.622 96.0146 125.272 94.3746C119.94 90.6479 116.724 88.4012 111.749 86.8212C103.306 84.1346 96.2684 85.3679 90.62 86.3546C85.3817 87.2746 81.6024 87.9346 79.0067 85.2079C77.1903 83.2879 76.2704 80.0279 76.2704 75.5146C76.2704 74.4346 75.5028 73.5679 74.5536 73.5612C73.6102 73.5679 72.8368 74.4412 72.8368 75.5146C72.8309 81.1612 74.1258 85.3812 76.6688 88.0679C80.4833 92.0746 85.4169 91.2146 91.1356 90.2079C96.7372 89.2279 103.089 88.1146 110.823 90.5746C115.335 92.0079 118.224 94.0279 123.509 97.7146C125.97 99.4412 128.026 101.101 129.825 102.695C128.823 103.975 127.71 104.788 127.692 104.808C126.743 105.475 125.975 105.701 125.243 105.915C124.159 106.235 122.929 106.595 121.962 108.201C121.048 109.715 121.095 111.161 121.124 112.221C121.147 113.021 121.147 113.421 120.931 113.835C120.52 114.621 119.407 115.161 117.778 115.421C117.057 112.695 116.085 110.601 114.456 108.815C109.212 103.061 101.143 104.361 94.6571 105.408C89.8465 106.188 85.0536 107.801 80.4247 110.141C80.4012 110.148 80.3837 110.141 80.3602 110.155C80.3016 110.175 80.2606 110.228 80.202 110.255C78.286 111.241 76.3934 112.335 74.5419 113.568C74.4481 113.621 74.3544 113.681 74.2723 113.755C72.4618 114.981 70.6864 116.321 68.9579 117.781C68.202 118.421 68.0438 119.648 68.6063 120.515C69.1688 121.375 70.2411 121.555 71.0087 120.915C71.9696 120.101 72.9364 119.328 73.9208 118.595C74.1669 120.528 74.4715 122.455 74.8114 124.375C72.0985 126.201 69.2098 127.628 66.1747 128.575C63.4969 129.408 60.7313 129.848 57.9481 129.935C56.9579 127.348 55.493 124.975 53.4833 123.081C53.4774 123.075 53.4657 123.061 53.4598 123.055C53.1844 122.801 52.9149 122.541 52.6219 122.308C51.743 121.595 50.8407 121.068 49.9442 120.621C49.8505 120.568 49.7626 120.515 49.6688 120.481C45.9364 118.728 42.1864 118.895 39.7313 119.035C36.3153 119.228 30.5966 119.541 26.7704 124.161C24.1278 127.341 23.079 131.748 23.202 136.261C22.0184 136.595 20.2782 135.775 18.2216 133.928C18.7958 132.775 19.3348 131.461 19.8094 129.881ZM99.8602 145.495C98.1317 145.855 96.6551 146.135 95.3368 146.361C93.1044 145.148 90.2684 142.968 88.5809 139.175C88.0419 137.955 87.6493 136.628 87.4266 135.248C87.2508 134.188 86.3544 133.488 85.4227 133.688C84.4911 133.881 83.8758 134.901 84.0516 135.961C84.3387 137.708 84.8309 139.381 85.5223 140.935C86.6883 143.561 88.2762 145.555 89.9227 147.075C87.034 147.261 86.3661 146.821 85.9676 146.555C83.3485 144.788 82.2997 141.081 80.1669 132.861C78.7665 127.475 77.7469 121.928 77.12 116.375C78.0692 115.761 79.0243 115.195 79.9911 114.655C81.1278 117.668 82.6512 120.221 84.579 122.201C86.12 123.795 87.5262 124.661 88.8856 125.508C90.2801 126.368 91.5926 127.181 93.0692 128.801C94.8739 130.788 96.2802 133.281 97.2469 136.228C97.5634 137.195 98.495 137.715 99.368 137.401C99.3798 137.401 99.3915 137.395 99.4032 137.388C100.253 137.068 100.739 136.048 100.516 135.055C100.458 134.801 100.423 134.555 100.37 134.301C101.946 134.915 103.534 135.495 105.14 136.028C105.186 136.048 105.222 136.088 105.274 136.101C105.321 136.121 105.368 136.115 105.415 136.121C105.919 136.288 106.417 136.481 106.927 136.641C110.278 137.688 113.413 138.495 116.624 139.148C116.554 139.301 116.501 139.468 116.425 139.615C115.452 141.375 109.569 143.461 99.8602 145.495ZM29.4774 146.721C28.1532 144.368 27.2157 141.428 26.8231 138.455C27.1923 138.221 27.62 138.001 28.2235 137.795C29.1083 137.508 29.5653 137.521 30.0926 137.535C30.7196 137.555 31.4989 137.575 32.6532 137.135C32.6766 137.121 32.7001 137.115 32.7235 137.108C34.2528 136.501 35.0321 135.668 35.6532 134.995C36.1688 134.435 36.5145 134.041 37.3583 133.755C38.0204 133.515 38.3837 133.528 38.8407 133.555C39.5028 133.595 40.329 133.641 41.4774 132.995C43.0301 132.128 43.704 130.855 44.3602 129.621C44.6591 129.055 44.9637 128.475 45.3915 127.861C46.3348 126.508 47.618 125.388 49.1883 124.495C49.663 124.768 50.1317 125.081 50.5946 125.455C50.2137 127.068 49.6454 128.608 48.8661 130.028C47.7997 131.981 46.4169 133.648 44.7528 134.988C43.9794 135.601 43.7919 136.821 44.3368 137.701C44.7821 138.428 45.5848 138.695 46.2821 138.428C46.4403 138.368 46.5868 138.281 46.7274 138.175C48.7723 136.535 50.4715 134.481 51.784 132.081C52.3934 130.961 52.9032 129.775 53.3192 128.548C54.3973 130.248 55.1473 132.188 55.6102 134.208C54.4676 136.048 52.2352 138.661 49.9032 140.861C47.618 143.015 45.0282 144.655 42.2098 145.735C41.3134 146.081 40.827 147.181 41.1317 148.208C41.4305 149.228 42.4032 149.775 43.3055 149.435C44.8524 148.841 46.3407 148.088 47.7645 147.201C47.6239 147.961 47.5126 148.728 47.4423 149.501C47.2548 151.515 47.454 153.728 47.7176 155.688C41.3192 157.948 33.1571 153.255 29.4774 146.721ZM26.6708 134.281C26.8524 131.435 27.6551 128.781 29.2665 126.835C30.3973 125.481 31.7919 124.615 33.2626 124.048C35.5536 123.175 38.0262 123.035 39.913 122.928C41.2958 122.855 43.0243 122.761 44.8465 123.028C44.0438 123.761 43.3173 124.555 42.702 125.441C42.1395 126.255 41.7528 126.975 41.4188 127.608C40.8446 128.688 40.5868 129.141 39.9657 129.488C39.6083 129.688 39.4794 129.688 38.9989 129.655C38.3954 129.628 37.5575 129.581 36.3036 130.041C34.6688 130.641 33.9188 131.488 33.286 132.168C32.7938 132.708 32.4305 133.095 31.6044 133.421C31.0067 133.628 30.702 133.655 30.1747 133.635C29.5008 133.621 28.663 133.595 27.2684 134.055C27.0516 134.121 26.87 134.208 26.6708 134.281ZM50.8524 149.908C51.0575 147.701 51.5848 145.568 52.411 143.548C53.7704 142.241 55.077 140.828 56.1962 139.475C56.1962 140.888 56.0848 142.268 55.8622 143.528C54.8895 149.021 52.8563 152.061 50.9462 153.768C50.8173 152.521 50.7411 151.115 50.8524 149.908ZM59.0731 133.801C59.9227 133.748 60.7723 133.661 61.6102 133.548C62.3954 135.408 63.2274 137.701 63.8544 139.755C64.5458 142.001 65.0614 144.328 65.4598 146.675C65.2723 146.901 65.1141 147.155 64.9735 147.441L59.6122 140.541C59.6942 138.335 59.536 136.041 59.0731 133.801ZM67.3231 152.861C67.493 151.481 67.6864 149.935 67.909 149.448C68.2665 149.435 68.8407 149.881 69.5614 150.708C69.6141 150.781 69.6669 150.848 69.7255 150.908C71.9637 153.601 75.4618 159.848 78.2508 168.248C80.7176 175.675 83.5126 184.088 80.5653 187.775C77.1844 192.008 67.7157 188.948 62.6356 187.301C59.6591 186.341 58.5516 185.521 58.3641 185.195C57.5438 183.715 58.493 181.415 60.3798 177.141C61.8153 173.888 63.6083 169.841 65.0965 164.515C66.5145 159.428 66.9833 155.628 67.3231 152.861ZM68.788 145.721C68.3602 143.268 67.8212 140.835 67.1005 138.475C66.538 136.621 65.829 134.635 65.12 132.861C65.7821 132.701 66.4383 132.535 67.0829 132.335C67.7977 132.115 68.5008 131.868 69.204 131.601C71.413 130.755 73.5458 129.681 75.5907 128.395C75.7255 129.041 75.8544 129.688 75.995 130.328L70.1298 146.381C69.6844 146.081 69.2391 145.861 68.788 145.721ZM93.9364 109.501C94.9149 111.761 95.5653 114.101 95.829 116.488C96.0223 118.215 95.9696 119.435 95.8993 120.975C95.8641 121.781 95.829 122.641 95.8231 123.648C95.8114 124.581 95.829 125.528 95.8758 126.475C95.7411 126.315 95.5946 126.155 95.454 125.995C93.6434 124.008 91.9911 122.981 90.5321 122.081C89.2958 121.315 88.1239 120.588 86.8817 119.308C85.3114 117.695 84.0633 115.575 83.12 113.048C86.6356 111.388 90.2508 110.208 93.9364 109.501ZM116.173 126.108C116.759 130.155 117.169 133.068 117.204 135.301C114.104 134.668 111.081 133.888 107.835 132.875C107.829 132.875 107.829 132.868 107.823 132.868L109.03 127.841C109.276 126.801 108.743 125.728 107.823 125.448C106.909 125.161 105.972 125.775 105.72 126.815L104.536 131.748C102.878 131.161 101.243 130.541 99.6259 129.868C99.368 127.775 99.2333 125.708 99.2509 123.681C99.2567 122.728 99.2919 121.921 99.327 121.168C99.3973 119.568 99.4618 118.061 99.2333 115.995C98.9637 113.575 98.3778 111.201 97.493 108.901C102.89 108.108 108.55 107.755 112.077 111.621C114.462 114.241 114.995 117.961 116.173 126.108ZM6.72546 172.235C9.67859 166.975 10.9676 160.641 10.4637 153.921C10.2352 150.875 10.5048 148.128 11.2958 145.528C12.2216 142.475 13.5048 140.808 14.9872 138.875C15.4091 138.328 15.8426 137.761 16.2762 137.148C19.0301 139.581 21.4442 140.548 23.6005 140.128C24.1337 143.268 25.1708 146.295 26.5946 148.821C27.5848 150.588 28.868 152.235 30.3212 153.715C28.9501 154.835 28.0419 156.141 27.6962 157.648C27.2743 159.475 27.7372 161.021 28.077 162.148C28.3641 163.101 28.4696 163.515 28.329 163.828C28.2704 163.948 28.2587 163.975 27.7255 164.215C27.0399 164.528 26.0028 164.995 25.0594 166.361C24.0282 167.848 23.952 169.175 23.8934 170.241C23.8407 171.048 23.8114 171.635 23.3837 172.468C22.9618 173.288 22.5809 173.541 22.0067 173.935C21.3036 174.415 20.3309 175.075 19.6805 176.715C18.9071 178.681 19.2294 180.335 19.4696 181.535C19.663 182.541 19.6747 182.781 19.5282 183.028C19.3993 183.241 19.2587 183.315 18.5497 183.515C17.6825 183.755 16.3583 184.128 15.2333 185.641C14.1962 187.035 14.0731 188.368 13.9852 189.335C13.9149 190.108 13.8798 190.375 13.5868 190.735C13.2587 191.141 12.9305 191.228 12.1571 191.401C11.3602 191.581 10.2645 191.821 9.13952 192.748C8.06726 193.628 7.2528 194.895 6.70202 196.528C2.34265 189.955 2.31921 180.095 6.72546 172.235ZM49.5633 246.628C48.5497 245.968 47.6942 244.301 45.9774 240.975C44.5536 238.228 43.8446 236.848 43.6161 235.441C43.2176 232.975 43.9032 230.601 44.8231 228.688C46.6454 230.148 48.9657 230.721 51.4032 231.008C51.7196 233.628 52.2235 236.235 52.9208 238.768C53.6473 241.381 54.5731 243.928 55.6864 246.361C53.9637 247.115 51.4266 247.855 49.5633 246.628ZM62.8817 247.761C61.7098 247.635 60.5438 247.015 59.413 245.968C58.0887 243.315 56.9989 240.501 56.1962 237.588C55.6219 235.528 55.1884 233.421 54.8954 231.288C56.9403 231.408 58.745 231.328 60.3798 231.115C60.3798 231.115 60.3798 231.115 60.3856 231.115C60.6259 231.081 60.8778 231.061 61.1063 231.021C61.4462 233.921 61.8798 236.815 62.4891 239.628C63.0692 242.361 63.7899 245.075 64.6278 247.735C64.0536 247.795 63.4208 247.821 62.8817 247.761ZM74.0965 247.535C71.6825 248.588 69.538 248.155 68.3016 247.715C67.3173 244.768 66.4735 241.748 65.8231 238.708C65.2313 235.935 64.7977 233.095 64.4813 230.241C65.5008 229.941 66.4618 229.595 67.3817 229.221L69.4969 236.375C69.8016 237.401 70.7684 237.948 71.6708 237.601C72.5673 237.261 73.0536 236.155 72.7489 235.135L70.5985 227.848C71.5653 227.421 72.538 227.015 73.5399 226.648L77.2196 239.735C78.1161 242.921 76.7801 246.335 74.0965 247.535ZM92.2606 240.361C90.6962 241.395 87.0282 243.815 83.0965 242.468C82.3173 242.201 81.5848 241.755 80.8817 241.228C80.8407 240.335 80.7352 239.435 80.4891 238.548L76.868 225.661C78.1981 225.375 79.6454 225.188 81.2801 225.161L83.7762 233.601C84.0809 234.628 85.0477 235.175 85.9501 234.828C86.8465 234.488 87.3329 233.381 87.0282 232.361L84.9481 225.315C84.995 225.321 85.0477 225.321 85.0946 225.328C86.7001 225.461 88.3231 225.568 89.9169 225.361L91.4755 231.935C92.2372 234.315 93.8251 236.115 95.7352 237.101C94.2469 238.935 92.8876 239.948 92.2606 240.361ZM100.065 233.895C97.8622 234.555 95.5008 233.108 94.745 230.761L93.2215 224.295C93.7313 224.008 94.2352 223.668 94.7215 223.228C96.0458 222.035 96.7137 220.768 97.2059 219.655C97.7684 220.781 98.4012 221.855 99.0985 222.861C100.229 224.495 101.237 225.528 101.975 226.281C102.907 227.241 103.206 227.575 103.323 228.208C103.651 229.988 102.479 233.208 100.065 233.895ZM97.3817 213.308C96.9247 213.615 96.5438 213.941 96.2157 214.288C96.2098 214.295 96.2098 214.301 96.204 214.308C95.2899 215.275 94.8094 216.368 94.3817 217.361C93.9305 218.408 93.5438 219.315 92.5946 220.161C90.6844 221.881 88.329 221.681 85.3465 221.435C84.661 221.375 83.9579 221.321 83.243 221.281C83.0555 221.275 82.8856 221.281 82.6923 221.275C82.6454 221.275 82.5985 221.275 82.5516 221.275C79.2176 221.188 76.5458 221.641 74.202 222.355C74.1786 222.361 74.161 222.355 74.1376 222.361C74.12 222.368 74.1141 222.381 74.1024 222.388C72.1864 222.975 70.4755 223.715 68.7997 224.448C68.6122 224.528 68.4305 224.608 68.243 224.695C67.9676 223.135 67.8094 221.548 67.7977 219.955C67.7919 218.361 67.9266 216.755 68.1962 215.175C68.3778 214.115 67.7743 213.088 66.8426 212.888C65.911 212.675 65.0087 213.375 64.8329 214.428C64.5165 216.261 64.3641 218.128 64.37 219.981C64.3817 222.015 64.5868 224.035 64.9794 226.015C63.8368 226.428 62.6298 226.775 61.3055 227.028C60.8368 224.428 60.5848 221.788 60.5731 219.141C60.5673 216.768 60.743 214.388 61.1005 212.061C61.2645 210.995 60.6434 209.988 59.7118 209.801C58.7743 209.621 57.8895 210.328 57.7255 211.388C57.327 213.941 57.1337 216.555 57.1454 219.161C57.1512 221.928 57.4032 224.695 57.8661 227.415C56.7997 227.461 55.6805 227.461 54.4325 227.368C50.038 227.035 47.2665 226.668 45.8602 224.495C43.7684 221.261 45.0575 214.861 49.1532 208.188C49.1708 208.161 49.1708 208.121 49.1883 208.088C49.2059 208.055 49.2352 208.035 49.2528 207.995C50.4012 205.568 52.9149 199.048 51.3798 191.055C49.6923 182.275 44.3368 177.448 42.1161 175.775C41.3251 175.181 40.2587 175.435 39.7372 176.328C39.2157 177.228 39.4325 178.441 40.2235 179.035C42.0985 180.441 46.6102 184.508 48.0282 191.888C48.7255 195.515 48.4266 198.781 47.8524 201.341C46.3817 197.461 43.868 192.881 39.5848 189.221C37.077 187.081 34.2411 185.488 31.1532 184.488C30.245 184.195 29.2899 184.795 29.0321 185.835C28.7684 186.868 29.3016 187.948 30.2098 188.241C32.8934 189.115 35.3544 190.488 37.5223 192.341C40.4696 194.861 42.4384 197.895 43.7801 200.741C43.3524 200.501 42.9071 200.275 42.4266 200.075C37.4344 198.008 32.8114 199.895 30.4969 201.195C27.5731 202.848 24.9891 203.748 22.5926 203.955C17.6239 204.375 12.9481 202.808 9.48523 199.721C9.77233 197.895 10.3173 196.588 11.1434 195.915C11.6591 195.495 12.1688 195.381 12.8134 195.235C13.7919 195.008 15.0106 194.735 16.1122 193.375C17.1844 192.048 17.3075 190.715 17.4012 189.741C17.4716 188.955 17.5126 188.621 17.8524 188.161C18.2391 187.635 18.6141 187.515 19.37 187.301C20.2665 187.055 21.5028 186.708 22.3876 185.181C23.3661 183.501 23.0497 181.875 22.8153 180.688C22.6161 179.675 22.5165 179.061 22.8153 178.321C23.0204 177.795 23.2255 177.655 23.7704 177.281C24.4969 176.795 25.4872 176.121 26.3485 174.428C27.1805 172.808 27.2567 171.481 27.3153 170.508C27.3622 169.681 27.3856 169.315 27.7606 168.768C28.1298 168.235 28.4696 168.081 28.9911 167.841C29.6825 167.535 30.7255 167.061 31.3817 165.608C32.202 163.788 31.6981 162.108 31.329 160.881C31.036 159.915 30.8661 159.288 31.0184 158.635C31.2469 157.628 32.2196 156.808 33.2098 156.215C37.9559 159.695 43.8387 161.321 49.0184 159.341C49.745 159.061 50.4598 158.715 51.1571 158.288C53.8641 156.628 57.3446 153.081 58.9676 145.601L63.9657 152.035C63.954 152.135 63.9423 152.221 63.9305 152.321C63.6083 154.955 63.163 158.561 61.827 163.341C60.4208 168.368 58.6981 172.261 57.3212 175.388C55.1473 180.308 53.5712 183.861 55.4696 187.288C56.0614 188.348 57.2684 189.628 61.704 191.061C66.6083 192.648 74.1317 195.075 79.4462 193.048C80.8524 192.508 82.1005 191.655 83.1141 190.401C87.4735 184.948 84.4208 175.761 81.4676 166.875C81.4149 166.708 77.5126 155.115 72.8602 149.101L77.5126 136.368C79.3231 143.241 80.7352 147.555 84.2215 149.908C86.0321 151.135 88.3817 151.868 100.493 149.335C105.585 148.268 109.235 147.275 111.895 146.361C113.237 146.935 114.239 147.741 114.837 148.795C115.224 149.481 115.288 149.948 115.382 150.648C115.499 151.515 115.64 152.595 116.419 153.868C117.638 155.868 119.184 156.355 120.427 156.748C121.399 157.055 122.108 157.275 122.776 158.175C123.315 158.908 123.427 159.535 123.585 160.401C123.796 161.561 124.089 163.148 125.606 164.555C126.573 165.448 127.434 165.721 128.067 165.915C128.618 166.095 128.712 166.135 128.893 166.388C129.134 166.728 129.157 166.981 129.186 167.748C129.216 168.628 129.263 169.828 129.954 171.201C130.845 172.961 132.11 173.608 133.13 174.121C133.645 174.388 134.132 174.635 134.589 175.021C135.69 175.948 136.458 177.561 136.88 179.828C135.28 179.508 133.64 179.448 132.028 179.648C129.544 179.955 127.1 180.888 124.956 182.348C124.147 182.908 123.884 184.101 124.37 185.028C124.856 185.948 125.911 186.241 126.72 185.695C128.442 184.521 130.405 183.775 132.397 183.528C134.009 183.328 135.655 183.468 137.237 183.915C137.202 184.848 137.032 185.701 136.704 186.455C135.983 188.088 134.694 188.968 134.079 189.381C133.341 189.888 132.714 190.415 132.134 190.961C132.087 191.001 132.034 191.048 131.993 191.101C130.692 192.348 129.661 193.708 128.483 195.301C126.849 197.528 124.809 200.295 120.989 204.221C119.243 198.515 116.946 193.235 114.069 188.561C112.405 185.861 110.706 183.575 109.212 181.555C106.194 177.481 104.009 174.541 104.501 171.515C104.811 169.588 106.106 167.761 108.339 166.088C109.136 165.495 109.352 164.281 108.831 163.388C108.309 162.481 107.237 162.241 106.458 162.828C103.405 165.115 101.612 167.801 101.126 170.815C100.341 175.648 103.1 179.361 106.587 184.068C108.034 186.028 109.681 188.241 111.257 190.795C114.204 195.595 116.53 201.068 118.218 207.041C114.749 210.541 112.458 212.635 110.489 213.408C110.143 210.895 109.61 208.415 108.884 206.015C108.14 203.541 107.184 201.121 106.054 198.828C105.591 197.888 104.548 197.561 103.722 198.081C102.895 198.608 102.602 199.795 103.059 200.735C104.091 202.828 104.958 205.028 105.638 207.281C106.265 209.361 106.739 211.501 107.056 213.675C106.089 213.535 105.181 213.275 104.296 213.008C102.122 212.341 99.8837 211.655 97.3817 213.308ZM118.452 232.515C117.286 232.828 113.612 228.261 109.095 217.635C109.136 217.635 109.177 217.655 109.218 217.648C109.241 217.641 109.27 217.635 109.294 217.628C109.382 217.621 109.464 217.628 109.552 217.621C110.641 217.501 111.684 217.128 112.757 216.541L114.345 221.908C114.643 222.935 115.616 223.481 116.518 223.135C117.415 222.795 117.901 221.688 117.597 220.668L115.751 214.428C116.595 213.715 117.491 212.901 118.475 211.948L120.954 220.335C120.55 229.841 119.026 232.375 118.452 232.515ZM127.329 218.568C126.093 219.168 124.833 218.888 124.059 218.595L121.27 209.168C121.288 209.155 121.3 209.141 121.311 209.121C121.323 209.115 121.335 209.101 121.347 209.088C121.821 208.608 122.302 208.115 122.823 207.588L124.024 211.668C124.329 212.688 125.296 213.235 126.198 212.895C127.095 212.548 127.581 211.441 127.276 210.421L125.577 204.668C126.069 204.121 126.538 203.595 126.96 203.095L130.018 212.255C130.341 215.001 129.227 217.635 127.329 218.568ZM133.897 206.468C133.481 207.341 132.983 208.041 132.474 208.615L129.561 199.881C130.141 199.121 130.657 198.428 131.114 197.801C131.612 197.121 132.057 196.535 132.497 195.975L134.794 203.241C134.671 204.381 134.372 205.461 133.897 206.468ZM139.317 198.308C138.901 199.341 138.198 200.008 137.554 200.435L135.257 193.181C135.474 193.015 135.661 192.841 135.895 192.681C136.288 192.415 137.026 191.908 137.806 191.101L139.651 195.948C139.704 196.575 139.669 197.428 139.317 198.308ZM144.597 188.701C144.192 190.681 143.085 191.941 142.153 192.695L140.073 187.241C140.407 186.235 140.641 185.175 140.682 184.021C141.749 183.961 142.798 183.821 143.829 183.615C144.374 184.648 145.054 186.481 144.597 188.701ZM157.686 168.501C154.61 175.248 147.925 179.648 140.395 180.081C139.862 176.308 138.602 173.548 136.622 171.881C135.872 171.248 135.128 170.868 134.53 170.561C133.651 170.115 133.247 169.888 132.925 169.248C132.649 168.708 132.632 168.255 132.608 167.575C132.567 166.608 132.52 165.281 131.554 163.928C130.669 162.688 129.69 162.381 128.981 162.155C128.495 162.001 128.179 161.901 127.763 161.521C127.194 160.995 127.118 160.561 126.942 159.608C126.755 158.568 126.497 157.148 125.395 155.661C124.048 153.835 122.542 153.361 121.335 152.981C120.263 152.648 119.724 152.448 119.231 151.641C118.909 151.108 118.856 150.735 118.768 150.061C118.657 149.215 118.499 148.068 117.714 146.675C117.268 145.901 116.7 145.235 116.056 144.628C118.382 143.388 118.944 142.381 119.331 141.675C119.952 140.548 120.304 139.355 120.491 138.028C120.497 137.988 120.515 137.955 120.52 137.915C120.526 137.881 120.515 137.848 120.52 137.815C120.89 134.841 120.374 131.121 119.559 125.475C119.22 123.115 118.915 121.075 118.593 119.248C119.278 119.121 119.911 118.955 120.474 118.741C122.056 118.135 123.186 117.168 123.884 115.835C124.622 114.415 124.581 113.075 124.557 112.095C124.528 111.248 124.528 110.855 124.798 110.408C125.009 110.061 125.161 109.975 126.099 109.701C126.948 109.448 128.108 109.108 129.503 108.128C129.772 107.935 131.184 106.888 132.485 105.181C135.016 107.695 136.874 109.968 138.421 111.868C141.526 115.675 143.765 118.428 147.936 118.688C153.597 119.028 158.782 114.328 163.048 108.041C164.571 107.668 165.831 107.741 166.768 108.301C167.401 108.681 167.753 109.168 168.204 109.781C168.86 110.675 169.669 111.788 171.286 112.268C172.593 112.661 173.542 112.361 174.309 112.121C174.819 111.968 175.259 111.828 175.909 111.848C177.011 111.881 178.112 112.388 179.243 113.321C179.231 114.328 179.196 115.355 179.114 116.395C177.655 134.688 165.743 145.308 161.12 148.775C159.04 143.035 155.313 137.855 150.239 134.368C149.431 133.808 148.376 134.101 147.884 135.021C147.391 135.941 147.655 137.141 148.464 137.701C158.225 144.421 162.362 158.235 157.686 168.501ZM187.458 110.095C187.663 113.721 188.899 117.255 191.02 120.315C192.362 122.241 192.989 124.168 192.884 126.028C192.597 131.101 186.825 134.121 184.048 135.575C181.487 136.908 178.663 137.655 175.757 137.788C179.085 132.275 181.845 125.275 182.524 116.748C182.641 115.241 182.671 113.795 182.659 112.361C182.659 112.281 182.665 112.195 182.653 112.108C182.472 98.7012 176.934 88.6612 173.829 84.0879C175.001 80.1146 176.378 74.6812 176.29 68.8146C178.475 73.2812 180.69 78.4879 182.472 83.8346C185.266 92.2279 186.948 101.068 187.458 110.095Z" fill="black"/>
</svg>
