<svg width="175" height="171" viewBox="0 0 175 171" fill="none" xmlns="http://www.w3.org/2000/svg">
<path d="M59.4316 86.0732C34.3828 86.0732 13.9922 73.0065 13.9922 56.9265C14.0098 56.7599 14.0098 56.5999 13.9922 56.4332C21.7324 68.3132 39.2109 76.7465 59.502 76.7465C61.8691 76.7465 64.2598 76.6265 66.6152 76.3932C66.8965 76.3532 67.1602 76.2599 67.4063 76.1065C67.6582 75.9532 67.8691 75.7465 68.0508 75.4999C68.2266 75.2532 68.3613 74.9732 68.4434 74.6665C68.5254 74.3599 68.5606 74.0465 68.5371 73.7265C68.5078 73.4065 68.4375 73.0999 68.3086 72.8132C68.1797 72.5265 68.0098 72.2799 67.793 72.0665C67.582 71.8532 67.3418 71.6999 67.0723 71.5932C66.8027 71.4865 66.5273 71.4465 66.2461 71.4599C64.0137 71.6799 61.752 71.7999 59.502 71.7999C34.3828 71.7999 13.9922 58.7132 13.9922 42.6332C13.9922 26.5532 34.3828 13.4865 59.4316 13.4865C84.4805 13.4865 104.871 26.4932 104.871 42.6332C104.854 45.5399 104.232 48.2732 103.008 50.8265C102.867 51.1199 102.785 51.4265 102.762 51.7532C102.732 52.0799 102.762 52.3999 102.85 52.7199C102.932 53.0332 103.066 53.3132 103.248 53.5665C103.436 53.8199 103.652 54.0265 103.91 54.1799C104.168 54.3332 104.438 54.4265 104.725 54.4532C105.012 54.4865 105.293 54.4532 105.574 54.3532C105.85 54.2599 106.096 54.1065 106.318 53.8932C106.541 53.6865 106.723 53.4399 106.857 53.1465C108.416 49.8665 109.207 46.3599 109.225 42.6332C109.225 23.8199 86.8828 8.5332 59.4316 8.5332C31.9805 8.5332 9.65039 23.8199 9.65039 42.6332C9.69727 47.0865 10.8047 51.1665 12.9844 54.8665C12.6563 54.6132 12.2988 54.4732 11.9063 54.4465C11.5137 54.4199 11.1445 54.5132 10.793 54.7199C10.4473 54.9265 10.166 55.2199 9.96094 55.6065C9.75586 55.9865 9.65625 56.3999 9.65039 56.8465C9.65039 75.6599 31.9805 90.9465 59.4316 90.9465C59.7188 90.9465 60 90.8799 60.2637 90.7599C60.5332 90.6332 60.7676 90.4532 60.9727 90.2199C61.1777 89.9865 61.3359 89.7199 61.4473 89.4199C61.5527 89.1132 61.6113 88.7999 61.6113 88.4732C61.6113 88.1399 61.5527 87.8265 61.4473 87.5199C61.3359 87.2199 61.1777 86.9532 60.9727 86.7199C60.7676 86.4865 60.5332 86.3065 60.2637 86.1865C60 86.0599 59.7188 85.9932 59.4316 85.9932V86.0732Z" fill="black"/>
<path d="M55.6172 101.733C32.2794 100.527 13.9922 87.7601 13.9922 72.7268C13.9922 72.4001 13.9395 72.0868 13.8282 71.7801C13.7169 71.4801 13.5587 71.2134 13.3536 70.9801C13.1485 70.7468 12.9141 70.5668 12.6505 70.4401C12.3809 70.3134 12.1055 70.2534 11.8126 70.2534C11.5255 70.2534 11.2501 70.3134 10.9805 70.4401C10.711 70.5668 10.4766 70.7468 10.2715 70.9801C10.0723 71.2134 9.91412 71.4801 9.8028 71.7801C9.69147 72.0868 9.63873 72.4001 9.63873 72.7268C9.63873 90.7068 29.2969 105.32 55.3887 106.747H55.4942C55.7813 106.753 56.0626 106.7 56.3321 106.58C56.6016 106.46 56.836 106.287 57.0469 106.06C57.2579 105.833 57.4219 105.573 57.5391 105.273C57.6563 104.973 57.7149 104.66 57.7208 104.327C57.7266 104 57.6797 103.687 57.5743 103.38C57.4747 103.073 57.3223 102.8 57.1231 102.56C56.9239 102.327 56.6895 102.14 56.4258 102.007C56.1622 101.873 55.8868 101.807 55.5997 101.793L55.6172 101.733Z" fill="black"/>
<path d="M55.336 117.573C32.1563 116.247 13.9922 103.48 13.9922 88.5466C13.9922 88.2199 13.9395 87.9066 13.8282 87.5999C13.7169 87.2999 13.5587 87.0332 13.3536 86.7999C13.1485 86.5666 12.9141 86.3866 12.6505 86.2599C12.3809 86.1399 12.1055 86.0732 11.8126 86.0732C11.5255 86.0732 11.2501 86.1399 10.9805 86.2599C10.711 86.3866 10.4766 86.5666 10.2715 86.7999C10.0723 87.0332 9.91412 87.2999 9.8028 87.5999C9.69147 87.9066 9.63873 88.2199 9.63873 88.5466C9.63873 106.367 29.1739 121.02 55.0899 122.547H55.1954C55.4825 122.553 55.7637 122.5 56.0333 122.38C56.3028 122.267 56.543 122.093 56.754 121.867C56.9649 121.647 57.1231 121.38 57.2462 121.08C57.3633 120.78 57.4219 120.467 57.4337 120.14C57.4395 119.813 57.3926 119.493 57.293 119.187C57.1876 118.88 57.0352 118.607 56.836 118.373C56.6426 118.133 56.4083 117.947 56.1446 117.813C55.8809 117.68 55.6055 117.607 55.3184 117.593L55.336 117.573Z" fill="black"/>
<path d="M112.922 135.393H113.707C114.111 135.42 114.51 135.393 114.908 135.327C115.307 135.26 115.693 135.147 116.074 134.993C116.455 134.84 116.818 134.647 117.164 134.413C117.51 134.173 117.832 133.907 118.131 133.6C118.43 133.293 118.699 132.953 118.939 132.587C119.18 132.22 119.391 131.833 119.561 131.42C119.736 131.007 119.871 130.58 119.971 130.133C120.07 129.693 120.135 129.24 120.158 128.787V122.507C120.158 120.98 118.781 119.16 116.373 117.52L112.887 116.133L112.922 135.393Z" fill="black"/>
<path d="M110.221 58.4934C108.662 58.4934 107.104 58.5801 105.545 58.7534C103.992 58.9267 102.451 59.1867 100.916 59.5334C99.3867 59.8801 97.875 60.3067 96.3809 60.8267C94.8867 61.3401 93.416 61.9334 91.9746 62.6134C90.5273 63.2934 89.1211 64.0534 87.7441 64.8867C86.3672 65.7267 85.0254 66.6334 83.7305 67.6201C82.4297 68.6067 81.1758 69.6601 79.9688 70.7867C78.7617 71.9134 77.6074 73.1001 76.5 74.3601C75.3984 75.6134 74.3496 76.9267 73.3594 78.2934C72.3691 79.6667 71.4375 81.0934 70.5703 82.5667C69.7031 84.0401 68.9004 85.5601 68.1621 87.1267C67.4297 88.6934 66.7617 90.2934 66.1641 91.9334C65.5664 93.5734 65.0391 95.2401 64.5879 96.9401C64.1367 98.6401 63.7559 100.353 63.4512 102.093C63.1465 103.84 62.918 105.587 62.7656 107.353C62.6133 109.12 62.5312 110.893 62.5312 112.667C62.5312 114.44 62.6074 116.213 62.7656 117.973C62.918 119.74 63.1465 121.493 63.4512 123.233C63.7559 124.973 64.1309 126.693 64.5879 128.393C65.0391 130.087 65.5664 131.76 66.1641 133.4C66.7617 135.033 67.4297 136.64 68.1621 138.2C68.9004 139.767 69.7031 141.287 70.5703 142.76C71.4375 144.24 72.3633 145.66 73.3535 147.033C74.3496 148.407 75.3926 149.72 76.5 150.973C77.6016 152.227 78.7617 153.42 79.9688 154.54C81.1758 155.667 82.4297 156.727 83.7246 157.707C85.0254 158.693 86.3613 159.607 87.7383 160.44C89.1152 161.28 90.5273 162.033 91.9688 162.713C93.416 163.393 94.8809 163.993 96.375 164.507C97.8691 165.02 99.3867 165.453 100.916 165.8C102.451 166.147 103.992 166.407 105.545 166.58C107.104 166.753 108.656 166.84 110.221 166.84C111.785 166.84 113.344 166.753 114.896 166.58C116.449 166.4 117.996 166.14 119.525 165.793C121.061 165.447 122.572 165.02 124.066 164.5C125.561 163.987 127.031 163.387 128.473 162.713C129.92 162.033 131.326 161.273 132.709 160.433C134.086 159.6 135.422 158.687 136.723 157.7C138.018 156.713 139.271 155.66 140.479 154.533C141.686 153.407 142.846 152.213 143.947 150.96C145.055 149.707 146.098 148.393 147.088 147.02C148.078 145.647 149.01 144.227 149.877 142.747C150.744 141.273 151.547 139.753 152.285 138.187C153.018 136.62 153.686 135.02 154.283 133.38C154.881 131.74 155.408 130.073 155.859 128.373C156.311 126.673 156.691 124.953 156.996 123.213C157.301 121.473 157.529 119.72 157.682 117.953C157.834 116.193 157.91 114.42 157.91 112.647C157.904 110.873 157.828 109.107 157.676 107.34C157.518 105.573 157.289 103.82 156.984 102.08C156.68 100.347 156.299 98.6267 155.842 96.9267C155.391 95.2334 154.863 93.5667 154.266 91.9267C153.668 90.2867 153 88.6867 152.262 87.1267C151.523 85.5601 150.721 84.0401 149.854 82.5667C148.986 81.0934 148.055 79.6734 147.064 78.3001C146.074 76.9334 145.031 75.6201 143.924 74.3667C142.822 73.1134 141.662 71.9201 140.455 70.7934C139.254 69.6734 138 68.6134 136.699 67.6334C135.404 66.6467 134.062 65.7334 132.691 64.9001C131.314 64.0601 129.902 63.3067 128.461 62.6267C127.02 61.9467 125.549 61.3467 124.055 60.8334C122.561 60.3201 121.049 59.8867 119.52 59.5401C117.99 59.1934 116.449 58.9334 114.891 58.7601C113.338 58.5801 111.779 58.4934 110.221 58.4934ZM110.221 156.207C108.967 156.207 107.713 156.14 106.465 156C105.211 155.86 103.975 155.647 102.738 155.367C101.508 155.093 100.289 154.747 99.0879 154.333C97.8867 153.92 96.709 153.44 95.5488 152.893C94.3887 152.347 93.252 151.733 92.1445 151.06C91.0371 150.393 89.9648 149.66 88.916 148.867C87.873 148.073 86.8652 147.227 85.8926 146.32C84.9258 145.413 83.9941 144.46 83.1094 143.447C82.2188 142.44 81.375 141.387 80.5781 140.28C79.7812 139.18 79.0371 138.033 78.3398 136.847C77.6426 135.66 76.998 134.44 76.4062 133.18C75.8145 131.92 75.2754 130.633 74.7949 129.313C74.3145 128 73.8926 126.653 73.5293 125.293C73.1602 123.927 72.8555 122.547 72.6152 121.147C72.3691 119.747 72.1816 118.333 72.0586 116.913C71.9355 115.493 71.877 114.073 71.877 112.647C71.877 111.22 71.9355 109.793 72.0586 108.373C72.1816 106.96 72.3691 105.547 72.6152 104.147C72.8555 102.747 73.1602 101.367 73.5293 100C73.8926 98.6334 74.3145 97.2934 74.7949 95.9734C75.2754 94.6601 75.8145 93.3734 76.4062 92.1134C76.998 90.8534 77.6426 89.6334 78.3398 88.4467C79.0371 87.2601 79.7812 86.1134 80.5781 85.0134C81.375 83.9067 82.2188 82.8534 83.1094 81.8467C83.9941 80.8334 84.9258 79.8801 85.8926 78.9734C86.8652 78.0667 87.873 77.2201 88.916 76.4267C89.9648 75.6334 91.0371 74.9001 92.1445 74.2267C93.252 73.5534 94.3887 72.9467 95.5488 72.4001C96.709 71.8534 97.8867 71.3734 99.0879 70.9601C100.289 70.5467 101.508 70.2001 102.738 69.9201C103.975 69.6467 105.211 69.4334 106.465 69.2934C107.713 69.1534 108.967 69.0867 110.221 69.0867C111.475 69.0867 112.729 69.1534 113.977 69.2934C115.23 69.4334 116.473 69.6467 117.703 69.9201C118.934 70.2001 120.152 70.5467 121.354 70.9601C122.555 71.3734 123.732 71.8534 124.893 72.4001C126.053 72.9467 127.189 73.5534 128.297 74.2267C129.404 74.9001 130.482 75.6334 131.525 76.4267C132.568 77.2201 133.576 78.0667 134.549 78.9734C135.516 79.8801 136.447 80.8334 137.332 81.8467C138.223 82.8534 139.066 83.9067 139.863 85.0134C140.66 86.1134 141.404 87.2601 142.102 88.4467C142.799 89.6334 143.443 90.8534 144.035 92.1134C144.633 93.3734 145.166 94.6601 145.646 95.9734C146.127 97.2934 146.549 98.6334 146.912 100C147.281 101.367 147.586 102.747 147.826 104.147C148.072 105.547 148.26 106.96 148.383 108.373C148.506 109.793 148.564 111.22 148.564 112.647C148.564 114.073 148.506 115.493 148.383 116.913C148.26 118.333 148.072 119.747 147.826 121.147C147.586 122.547 147.281 123.927 146.912 125.293C146.549 126.653 146.127 128 145.646 129.313C145.166 130.633 144.633 131.92 144.035 133.18C143.443 134.44 142.799 135.66 142.102 136.847C141.404 138.033 140.66 139.18 139.863 140.28C139.066 141.387 138.223 142.44 137.332 143.447C136.447 144.46 135.516 145.413 134.549 146.32C133.576 147.227 132.568 148.073 131.525 148.867C130.482 149.66 129.404 150.393 128.297 151.06C127.189 151.733 126.053 152.347 124.893 152.893C123.732 153.44 122.555 153.92 121.354 154.333C120.152 154.747 118.934 155.093 117.703 155.367C116.473 155.647 115.23 155.86 113.977 156C112.729 156.14 111.475 156.207 110.221 156.207Z" fill="black"/>
<path d="M100.289 96.2133V102.387C100.289 104.367 102.24 106.073 103.928 107.22L108.562 109.1V89.6H106.822C106.418 89.5733 106.014 89.5933 105.609 89.6533C105.205 89.72 104.812 89.8266 104.432 89.98C104.045 90.1266 103.682 90.32 103.33 90.5533C102.979 90.7866 102.65 91.06 102.346 91.3666C102.047 91.6733 101.771 92.0133 101.525 92.38C101.279 92.7466 101.068 93.14 100.893 93.5533C100.717 93.9733 100.576 94.4 100.477 94.8533C100.371 95.3 100.307 95.7533 100.289 96.2133Z" fill="black"/>
<path d="M110.221 74.0132C109.107 74.0132 108 74.0798 106.887 74.1999C105.779 74.3265 104.684 74.5132 103.588 74.7599C102.498 75.0065 101.42 75.3132 100.354 75.6799C99.2871 76.0465 98.2441 76.4732 97.2129 76.9532C96.1875 77.4398 95.1797 77.9799 94.2012 78.5732C93.2168 79.1732 92.2617 79.8199 91.3359 80.5199C90.4102 81.2265 89.5195 81.9799 88.6582 82.7799C87.7969 83.5799 86.9766 84.4332 86.1855 85.3265C85.4004 86.2199 84.6562 87.1532 83.9473 88.1332C83.2441 89.1065 82.582 90.1265 81.9609 91.1732C81.3457 92.2265 80.7715 93.3132 80.2441 94.4265C79.7227 95.5399 79.248 96.6799 78.8203 97.8532C78.3926 99.0199 78.0176 100.207 77.6953 101.42C77.373 102.627 77.1035 103.853 76.8867 105.093C76.6699 106.333 76.5059 107.587 76.3945 108.84C76.2891 110.1 76.2363 111.36 76.2363 112.627C76.2363 113.893 76.2891 115.153 76.3945 116.413C76.5059 117.667 76.6699 118.92 76.8867 120.16C77.1035 121.4 77.373 122.627 77.6953 123.833C78.0176 125.047 78.3926 126.233 78.8203 127.4C79.248 128.573 79.7227 129.713 80.2441 130.827C80.7715 131.94 81.3457 133.027 81.9609 134.08C82.582 135.127 83.2441 136.14 83.9473 137.12C84.6562 138.1 85.4004 139.033 86.1855 139.927C86.9766 140.82 87.7969 141.673 88.6582 142.473C89.5195 143.273 90.4102 144.027 91.3359 144.727C92.2617 145.433 93.2168 146.08 94.2012 146.68C95.1797 147.273 96.1875 147.813 97.2129 148.3C98.2441 148.78 99.2871 149.207 100.354 149.573C101.42 149.94 102.498 150.247 103.588 150.493C104.684 150.74 105.779 150.927 106.887 151.053C108 151.173 109.107 151.24 110.221 151.24C111.334 151.24 112.447 151.173 113.555 151.053C114.662 150.927 115.758 150.74 116.854 150.493C117.943 150.247 119.021 149.94 120.088 149.573C121.154 149.207 122.197 148.78 123.229 148.3C124.254 147.813 125.262 147.273 126.24 146.68C127.225 146.08 128.18 145.433 129.105 144.727C130.031 144.027 130.922 143.273 131.783 142.473C132.645 141.673 133.465 140.82 134.256 139.927C135.041 139.033 135.785 138.1 136.494 137.12C137.197 136.14 137.859 135.127 138.48 134.08C139.102 133.027 139.67 131.94 140.197 130.827C140.719 129.713 141.193 128.573 141.621 127.4C142.049 126.233 142.424 125.047 142.746 123.833C143.068 122.627 143.338 121.4 143.555 120.16C143.771 118.92 143.936 117.667 144.047 116.413C144.152 115.153 144.211 113.893 144.211 112.627C144.205 111.36 144.152 110.1 144.041 108.847C143.93 107.587 143.766 106.34 143.549 105.1C143.326 103.86 143.057 102.633 142.734 101.427C142.406 100.213 142.031 99.0265 141.609 97.8598C141.182 96.6932 140.707 95.5532 140.18 94.4398C139.652 93.3199 139.084 92.2399 138.463 91.1865C137.848 90.1399 137.186 89.1265 136.477 88.1465C135.773 87.1732 135.023 86.2332 134.238 85.3399C133.453 84.4465 132.627 83.5999 131.766 82.7999C130.91 81.9932 130.014 81.2465 129.094 80.5399C128.168 79.8398 127.213 79.1865 126.234 78.5932C125.25 77.9932 124.248 77.4532 123.217 76.9732C122.191 76.4865 121.148 76.0599 120.082 75.6932C119.016 75.3265 117.938 75.0132 116.848 74.7665C115.758 74.5199 114.656 74.3332 113.549 74.2065C112.441 74.0798 111.334 74.0198 110.221 74.0132ZM124.512 99.0799C124.512 99.4132 124.459 99.7265 124.348 100.033C124.236 100.333 124.078 100.6 123.873 100.833C123.668 101.067 123.434 101.247 123.17 101.367C122.9 101.493 122.625 101.56 122.332 101.56C122.045 101.56 121.77 101.493 121.5 101.367C121.236 101.247 120.996 101.067 120.791 100.833C120.592 100.6 120.434 100.333 120.322 100.033C120.211 99.7265 120.158 99.4132 120.158 99.0799V96.2132C120.135 95.7532 120.07 95.3065 119.971 94.8598C119.871 94.4198 119.736 93.9865 119.561 93.5799C119.391 93.1665 119.18 92.7732 118.939 92.4065C118.699 92.0399 118.43 91.7065 118.131 91.3999C117.832 91.0932 117.51 90.8198 117.164 90.5865C116.818 90.3465 116.455 90.1532 116.074 89.9999C115.693 89.8465 115.307 89.7332 114.908 89.6665C114.51 89.5998 114.111 89.5799 113.707 89.5999H112.922V110.887L118.031 112.867C118.154 112.92 118.277 112.987 118.395 113.06C122.402 115.713 124.512 119 124.512 122.427V128.627C124.494 129.407 124.412 130.18 124.254 130.947C124.102 131.713 123.885 132.453 123.604 133.167C123.322 133.88 122.982 134.56 122.584 135.2C122.18 135.84 121.734 136.427 121.23 136.96C120.727 137.5 120.182 137.973 119.596 138.393C119.016 138.807 118.395 139.153 117.75 139.427C117.105 139.707 116.443 139.907 115.764 140.033C115.084 140.167 114.398 140.213 113.707 140.187H112.922V142.167C112.922 142.493 112.869 142.813 112.758 143.113C112.646 143.42 112.488 143.687 112.283 143.92C112.078 144.153 111.844 144.327 111.58 144.453C111.311 144.58 111.035 144.64 110.742 144.647C110.455 144.64 110.18 144.58 109.91 144.453C109.641 144.327 109.406 144.153 109.201 143.92C108.996 143.687 108.844 143.42 108.732 143.113C108.621 142.813 108.562 142.493 108.562 142.167V140.187H106.822C106.131 140.22 105.445 140.18 104.76 140.06C104.074 139.94 103.412 139.74 102.762 139.473C102.111 139.2 101.49 138.86 100.904 138.453C100.312 138.04 99.7617 137.567 99.2578 137.033C98.748 136.5 98.291 135.913 97.8867 135.28C97.4824 134.64 97.1367 133.967 96.8496 133.247C96.5625 132.533 96.3398 131.793 96.1816 131.027C96.0234 130.267 95.9355 129.487 95.9121 128.707V125.813C95.9121 125.487 95.9648 125.167 96.0762 124.867C96.1875 124.56 96.3457 124.293 96.5508 124.06C96.7559 123.833 96.9902 123.653 97.2539 123.527C97.5234 123.4 97.7988 123.34 98.0918 123.34C98.3789 123.34 98.6543 123.4 98.9238 123.527C99.1934 123.653 99.4277 123.833 99.6328 124.06C99.832 124.293 99.9902 124.56 100.102 124.867C100.213 125.167 100.271 125.487 100.271 125.813V128.707C100.289 129.167 100.348 129.62 100.441 130.067C100.541 130.52 100.676 130.953 100.852 131.367C101.027 131.787 101.232 132.18 101.473 132.553C101.719 132.927 101.988 133.267 102.287 133.58C102.592 133.887 102.914 134.167 103.266 134.4C103.611 134.64 103.98 134.833 104.361 134.993C104.742 135.147 105.135 135.26 105.539 135.327C105.943 135.393 106.348 135.42 106.752 135.393H108.498V114.367L102.205 111.813L101.818 111.613C97.9336 108.98 95.9121 105.873 95.9121 102.387V96.2132C95.9297 95.4265 96.0176 94.6532 96.1699 93.8865C96.3223 93.1199 96.5391 92.3799 96.8203 91.6665C97.1016 90.9465 97.4473 90.2732 97.8457 89.6332C98.2441 88.9932 98.6953 88.4065 99.1992 87.8665C99.7031 87.3265 100.248 86.8532 100.834 86.4399C101.42 86.0198 102.041 85.6799 102.686 85.3999C103.33 85.1265 103.998 84.9265 104.678 84.7999C105.357 84.6732 106.043 84.6199 106.734 84.6465H108.48V83.1465C108.48 82.8132 108.533 82.4998 108.645 82.1932C108.756 81.8932 108.914 81.6265 109.113 81.3932C109.318 81.1599 109.559 80.9798 109.822 80.8599C110.092 80.7332 110.367 80.6665 110.654 80.6665C110.947 80.6665 111.223 80.7332 111.492 80.8599C111.756 80.9798 111.99 81.1599 112.195 81.3932C112.4 81.6265 112.559 81.8932 112.67 82.1932C112.781 82.4998 112.834 82.8132 112.834 83.1465V84.6465H113.619C114.311 84.6199 114.996 84.6732 115.676 84.7999C116.355 84.9265 117.018 85.1332 117.662 85.4065C118.312 85.6865 118.928 86.0332 119.514 86.4465C120.094 86.8599 120.639 87.3399 121.143 87.8732C121.646 88.4132 122.098 88.9999 122.496 89.6399C122.895 90.2799 123.234 90.9532 123.516 91.6732C123.797 92.3865 124.02 93.1265 124.172 93.8932C124.324 94.6532 124.406 95.4265 124.424 96.2132L124.512 99.0799Z" fill="black"/>
<path d="M71.5078 32.9867C71.8066 32.9934 72.0937 32.9334 72.3691 32.8067C72.6445 32.68 72.8848 32.5 73.0898 32.26C73.3008 32.02 73.459 31.74 73.5703 31.4334C73.6816 31.12 73.7285 30.7934 73.7227 30.4534V28.4734C73.7227 23.3667 68.9824 19.3467 62.918 19.3467H62.1504V18.9334C62.1504 18.6067 62.0977 18.2867 61.9863 17.9867C61.875 17.68 61.7168 17.4134 61.5117 17.18C61.3066 16.9467 61.0723 16.7734 60.8027 16.6467C60.5391 16.52 60.2637 16.4534 59.9707 16.4534C59.6836 16.4534 59.4023 16.52 59.1387 16.6467C58.8691 16.7734 58.6348 16.9467 58.4297 17.18C58.2246 17.4134 58.0723 17.68 57.9609 17.9867C57.8496 18.2867 57.791 18.6067 57.791 18.9334V19.3467H55.9629C49.8984 19.3467 45.1582 23.3067 45.1582 28.4734V32.9867C45.1582 37.4067 49.8105 39.68 51.3633 40.4334C51.4512 40.4934 51.5508 40.5334 51.6562 40.5534L57.791 42.3734V56.3534H55.9629C52.166 56.3534 49.5117 54.1534 49.5117 52.1934V50.02C49.5117 49.6867 49.459 49.3734 49.3477 49.0734C49.2363 48.7667 49.0781 48.5 48.8789 48.2667C48.6738 48.0334 48.4336 47.86 48.1699 47.7334C47.9004 47.6067 47.625 47.54 47.3379 47.54C47.0449 47.54 46.7695 47.6067 46.5 47.7334C46.2363 47.86 46.002 48.0334 45.7969 48.2667C45.5918 48.5 45.4336 48.7667 45.3223 49.0734C45.2109 49.3734 45.1582 49.6867 45.1582 50.02V52.2334C45.1582 57.3467 49.8984 61.3467 55.9629 61.3467H57.791V62.0534C57.791 62.3867 57.8496 62.7 57.9609 63.0067C58.0723 63.3067 58.2246 63.5734 58.4297 63.8067C58.6348 64.04 58.8691 64.22 59.1387 64.34C59.4023 64.4667 59.6836 64.5334 59.9707 64.5334C60.2637 64.5334 60.5391 64.4667 60.8027 64.34C61.0723 64.22 61.3066 64.04 61.5117 63.8067C61.7168 63.5734 61.875 63.3067 61.9863 63.0067C62.0977 62.7 62.1504 62.3867 62.1504 62.0534V61.3467H62.918C68.9824 61.3467 73.7227 57.3867 73.7227 52.2334V47.6C73.7227 44.6534 71.5781 42.1 67.3594 40.06C67.2715 40 67.1719 39.96 67.0664 39.94L62.1504 38.4734V24.24H62.918C66.7148 24.24 69.3691 26.4334 69.3691 28.4134V30.4534C69.3574 30.7867 69.4102 31.1067 69.5156 31.4134C69.6211 31.72 69.7734 31.9934 69.9727 32.2267C70.1719 32.4667 70.4062 32.6534 70.6758 32.7867C70.9395 32.9134 71.2207 32.9867 71.5078 32.9867ZM65.7598 44.6734C68.6895 46.14 69.334 47.3867 69.334 47.6V52.2334C69.334 54.2134 66.6797 56.3934 62.8828 56.3934H62.1152V43.6L65.7598 44.6734ZM57.791 37.1867L52.9277 35.76C50.127 34.3534 49.4473 33.2467 49.4473 32.9334V28.4734C49.4473 26.4934 52.0957 24.3 55.8926 24.3H57.7207L57.791 37.1867Z" fill="black"/>
</svg>
