<svg width="184" height="209" viewBox="0 0 184 209" fill="none" xmlns="http://www.w3.org/2000/svg">
<path d="M139.067 15.067C160.688 29.8537 174.563 51.2737 180.692 79.2937C186.826 107.314 183.399 133.634 170.397 158.227C157.401 182.82 138.575 198.614 113.948 205.587C89.3265 212.567 66.1937 208.66 44.5726 193.874C22.9573 179.087 9.08234 157.667 2.94758 129.647C-3.18133 101.634 0.246403 75.307 13.2425 50.7137C26.2444 26.1204 45.0648 10.327 69.6917 3.35369C94.3187 -3.61965 117.451 0.280355 139.067 15.067ZM47.9476 187.487C57.8265 194.247 68.4144 198.507 79.723 200.28C91.0316 202.06 101.918 201.46 112.395 198.487C122.871 195.52 132.744 190.227 141.996 182.64C151.254 175.04 158.848 165.627 164.784 154.387C170.725 143.147 174.469 131.107 176.034 118.234C177.592 105.367 177.065 92.9804 174.451 81.0604C171.844 69.1404 167.192 57.907 160.524 47.387C153.844 36.8537 145.571 28.2137 135.692 21.4537C125.813 14.6937 115.231 10.4337 103.916 8.66035C92.6077 6.88035 81.721 7.48702 71.2444 10.4537C60.7679 13.4204 50.8948 18.7137 41.6488 26.3004C32.4027 33.887 24.7972 43.3137 18.8558 54.5537C12.9202 65.7937 9.17023 77.8404 7.61164 90.707C6.05304 103.574 6.58039 115.96 9.18781 127.88C11.7952 139.8 16.4534 151.034 23.1155 161.554C29.7835 172.08 38.0687 180.727 47.9476 187.487ZM96.2171 103.38C103.817 109.374 109.02 116.634 111.856 125.187C114.698 133.734 114.381 141.32 110.877 147.94C107.379 154.567 101.643 158.44 93.6741 159.594C85.7054 160.754 77.6136 158.914 69.4105 154.1L60.8792 170.247L55.2659 166.414L63.803 150.26C48.6859 138.954 42.9144 125.914 46.4945 111.12L52.7405 112.987C50.18 124.274 54.9788 134.567 67.1898 143.887L87.4398 105.574C79.8401 99.5804 74.6429 92.3204 71.8011 83.767C68.9593 75.2204 69.2816 67.6337 72.7796 61.0137C76.2776 54.387 82.0198 50.5137 89.9886 49.3604C97.9573 48.2004 106.049 50.0337 114.246 54.847L122.778 38.7004L128.391 42.5404L119.86 58.687C134.971 70.0004 140.742 83.0404 137.162 97.8337L130.922 95.967C133.483 84.6804 128.678 74.387 116.467 65.067L96.2171 103.38ZM78.3753 64.8404C75.8089 69.6937 75.7327 75.3804 78.1351 81.9404C80.5433 88.507 84.7562 94.247 90.7972 99.1737L110.866 61.207C104.221 57.4604 97.7698 55.9004 91.5472 56.567C85.3187 57.2404 80.9417 59.987 78.3753 64.8404ZM72.7855 147.72C79.43 151.467 85.8812 153.02 92.1038 152.36C98.3265 151.7 102.703 148.954 105.264 144.1C107.83 139.247 107.912 133.56 105.504 127C103.102 120.434 98.8831 114.694 92.8421 109.767L72.7855 147.72Z" fill="black"/>
</svg>
