<svg width="270" height="207" viewBox="0 0 270 207" fill="none" xmlns="http://www.w3.org/2000/svg">
<path d="M104.427 13.1799L101.046 27.5999L11.4799 55.0466C3.23577 57.5599 -1.68024 67.2599 0.528743 76.6733L42.4936 255.32C44.7026 264.713 53.228 270.333 61.4721 267.8L156.224 238.76L176.38 244.913C184.619 247.447 193.121 241.827 195.341 232.433L208.642 176.46C230.281 159.667 254.087 110.547 269.509 69.0733C270.271 65.8599 268.378 64.0466 265.841 64.8933C251.726 72.0799 243.025 76.5733 230.169 84.3666L237.318 53.7866C239.515 44.3933 234.611 34.6733 226.373 32.1599L123.388 0.699942C114.101 -2.22673 106.49 4.42661 104.427 13.1799ZM121.941 6.87328L224.925 38.3533C230.24 39.9666 233.322 46.0466 231.886 52.1399L223.361 88.56C186.857 111.66 155.767 137.68 156.013 189.8L146.638 200.5L82.3256 180.853C78.7397 179.76 77.1518 185.733 80.8784 187.04L146.708 207.153C148.115 207.573 149.205 207.02 149.919 205.827L159.997 194.347C164.925 194.493 182.796 194.147 201.576 181.733L189.921 230.767C188.474 236.847 183.171 240.36 177.839 238.74C143.515 228.22 109.226 217.767 74.8608 207.267C69.5405 205.647 66.4584 199.553 67.894 193.48C81.8803 133.953 95.8842 74.2866 109.859 14.8266C111.265 8.83328 116.497 5.20661 121.941 6.87328ZM129.851 31.5533L108.242 59.3399C105.628 62.5399 109.976 66.9333 112.455 63.5866L130.326 40.6066L132.148 50.7666L128.222 49.5733C124.29 48.3666 123.259 54.6866 126.757 55.7466L133.408 57.7733L135.728 70.7066C136.003 72.4866 137.509 73.6466 139.056 73.2933C140.603 72.9333 141.593 71.1799 141.236 69.4199C139.085 57.2199 136.888 45.2466 134.697 33.0399C134.04 30.2333 131.345 29.6933 129.851 31.5533ZM99.3647 34.7599L62.4623 191.827C60.2534 201.22 65.1694 210.94 73.4077 213.453L145.402 235.46L60.0073 261.607C54.6752 263.24 49.3608 259.733 47.9252 253.653L5.96038 75.0066C4.52484 68.9266 7.60687 62.8533 12.9272 61.2199L99.3647 34.7599ZM158.392 46.7133L217.455 64.7666C218.972 65.2866 220.566 64.2733 220.982 62.5266C221.38 60.7799 220.449 58.9999 218.902 58.5733L159.851 40.5266C156.195 39.4133 154.718 45.6066 158.392 46.7133ZM154.794 62.0199L213.857 80.0666C215.374 80.5933 216.968 79.5799 217.384 77.8333C217.8 76.0866 216.851 74.2999 215.304 73.88L156.253 55.8266C152.685 54.7533 151.039 60.6933 154.794 62.0199ZM82.8998 61.9066L18.9448 81.4599C15.2651 82.5333 16.7534 88.8066 20.392 87.6466L84.3588 68.0933C88.0151 66.9866 86.5795 60.7933 82.8998 61.9066ZM151.208 77.3266L205.648 93.9533C207.148 94.4133 208.683 93.3999 209.099 91.7C209.503 89.9866 208.595 88.2333 207.107 87.7599L152.656 71.1333C149.146 70.0533 147.353 75.9666 151.208 77.3266ZM106.033 79.92L189.107 105.307C190.613 105.76 192.142 104.753 192.546 103.033C192.945 101.333 192.06 99.5733 190.566 99.1133L107.492 73.7333C103.871 72.6199 102.277 78.7599 106.044 79.92H106.033ZM261.429 74.1066C259.408 79.2999 256.525 86.5533 252.341 96.0133L240.705 103.687C237.464 105.827 240.271 111.367 243.511 109.227L247.583 106.547C243.828 114.613 239.615 123.127 235.097 131.327L222.388 135.213C220.853 135.62 219.904 137.4 220.32 139.153C220.724 140.9 222.33 141.913 223.847 141.407L230.527 139.36C224.322 149.553 219.605 156.74 213.529 163.373H200.398C196.689 163.44 196.689 169.727 200.398 169.78H207.119C195.499 180.327 181.109 187.013 165.687 187.84L225.986 119.073C227.82 117.033 226.501 113.473 223.935 113.573C223.203 113.587 222.517 113.947 222.013 114.533L161.714 183.3C162.089 173.827 164.597 154.847 177.54 136.047V143.707C177.54 145.487 178.8 146.927 180.365 146.927C181.912 146.927 183.171 145.487 183.171 143.707V128.727C189.722 121.507 197.205 114.827 204.224 109.353L202.437 116.987C201.962 118.713 202.853 120.547 204.382 121.02C205.929 121.473 207.494 120.4 207.851 118.633L211.261 104.127C218.445 99 225.91 94.1799 232.976 89.8999L230.626 94.5399C228.751 98.2466 233.638 101.467 235.501 97.74L242.222 84.4599C250.519 79.7066 256.871 76.4133 261.429 74.1066ZM80.392 79.0866L22.5307 96.7599C18.9155 97.8599 20.3803 104.047 23.9897 102.953L81.8393 85.2599C85.3784 84.1866 84.1303 77.9466 80.392 79.0866ZM102.447 95.2266L176.79 117.947C178.296 118.42 179.861 117.407 180.259 115.68C180.664 113.96 179.761 112.2 178.244 111.76L103.894 89.0333C100.425 87.9733 98.5912 93.8733 102.447 95.2266ZM78.0131 96.2066L26.1284 112.067C24.5932 112.473 23.6498 114.26 24.06 116.007C24.4643 117.753 26.0698 118.767 27.5873 118.24L79.4604 102.4C83.2163 101.253 81.6401 95.0933 78.0131 96.2066ZM98.8491 110.513L166.144 131.08C167.65 131.573 169.208 130.56 169.613 128.827C170.011 127.113 169.109 125.347 167.591 124.907L100.296 104.34C96.8276 103.28 95.0932 109.207 98.8491 110.513ZM73.0795 114.107L29.726 127.36C28.1909 127.78 27.2416 129.56 27.6577 131.307C28.0619 133.06 29.6674 134.073 31.185 133.547L74.5444 120.3C77.9956 119.24 77.0522 112.9 73.0795 114.107ZM109.285 130.12L157.947 144.98C159.435 145.42 160.953 144.413 161.357 142.713C161.755 141.013 160.882 139.267 159.394 138.793L110.749 123.927C107.122 122.813 105.628 128.827 109.285 130.12ZM68.4213 131.933L33.3237 142.66C29.5795 143.693 31.0854 150.093 34.7826 148.853L69.8862 138.12C73.3081 137.073 72.4057 130.72 68.4213 131.933ZM91.6538 141.127L153.417 159.993C154.935 160.5 156.511 159.5 156.927 157.753C157.343 156.027 156.412 154.227 154.865 153.82L93.1186 134.933C89.4506 133.827 87.9272 139.987 91.6538 141.127ZM65.0112 149.373L36.9213 157.967C33.2358 159.027 34.7123 165.333 38.3686 164.16L66.476 155.567C69.8979 154.52 69.0366 148.153 65.0112 149.373ZM88.0561 156.433L150.218 175.427C151.712 175.887 153.259 174.873 153.658 173.16C154.062 171.447 153.171 169.693 151.665 169.24L89.5209 150.24C86.0112 149.16 84.2768 155.093 88.0561 156.433ZM84.4584 171.74L147.57 191.013C149.076 191.467 150.605 190.453 151.009 188.74C151.408 187.04 150.523 185.28 149.029 184.82L85.9233 165.547C82.3842 164.453 80.6206 170.38 84.4584 171.74ZM60.2358 167.247L40.519 173.273C36.892 174.367 38.3393 180.56 41.9662 179.447L61.7006 173.42C65.2573 172.34 64.3256 165.987 60.2358 167.247ZM56.726 184.707L44.0991 188.56C40.56 189.72 41.978 195.78 45.5639 194.753L58.1909 190.9C61.6303 189.833 60.7104 183.5 56.726 184.707ZM55.062 201.627L47.6967 203.867C46.1616 204.293 45.2182 206.073 45.6342 207.82C46.0502 209.567 47.6381 210.58 49.1616 210.06L56.5092 207.807C60.3413 206.647 58.6362 200.533 55.062 201.627ZM64.3666 215.187L51.2944 219.173C49.7592 219.58 48.8159 221.38 49.2319 223.127C49.6303 224.873 51.2358 225.887 52.7592 225.36L65.8256 221.36C69.312 220.3 68.2807 213.98 64.3666 215.187ZM89.0463 224.04L54.892 234.48C53.3452 234.887 52.4135 236.68 52.812 238.433C53.228 240.18 54.8334 241.193 56.3569 240.667L90.4936 230.233C93.9799 229.167 93.019 222.833 89.0463 224.04Z" fill="black"/>
</svg>
