<svg width="142" height="151" viewBox="0 0 142 151" fill="none" xmlns="http://www.w3.org/2000/svg">
<path d="M141.052 25.9036C141.057 25.5569 141.011 25.2236 140.899 24.9036C140.788 24.5836 140.624 24.3036 140.413 24.0569C140.196 23.8102 139.95 23.6236 139.669 23.4902C139.393 23.3636 139.1 23.3036 138.796 23.3102H125.143V28.4969H133.85L119.589 47.4702C118.915 45.2302 118.147 43.0303 117.286 40.8769C116.419 38.7302 115.464 36.6302 114.409 34.5902C113.36 32.5436 112.223 30.5702 110.993 28.6569C109.768 26.7502 108.456 24.9169 107.067 23.1569C105.679 21.3969 104.214 19.7236 102.673 18.1302C101.137 16.5436 99.532 15.0436 97.8562 13.6436C96.1863 12.2369 94.4519 10.9302 92.6648 9.73025C90.8777 8.52358 89.0437 7.43025 87.157 6.43691C85.2703 5.44358 83.3426 4.56358 81.3797 3.79692C79.4168 3.02358 77.4246 2.37025 75.3973 1.83692C73.3758 1.29692 71.3367 0.876914 69.2742 0.570248C67.2176 0.270247 65.1492 0.0902492 63.075 0.0235817C60.9949 -0.0364179 58.9207 0.0169146 56.8523 0.196915C54.7781 0.370248 52.7215 0.663581 50.6766 1.08358C48.6316 1.49691 46.6101 2.03025 44.6121 2.67692C42.6199 3.32358 40.6512 4.08358 38.7234 4.96358C36.7957 5.83692 34.909 6.81692 33.0691 7.91025C31.2234 9.00358 29.4363 10.2036 27.7019 11.5036C25.9617 12.8036 24.2918 14.2036 22.6805 15.6969C21.0691 17.1902 19.5281 18.7702 18.0574 20.4436C16.5867 22.1169 15.1922 23.8702 13.8797 25.7036C12.5613 27.5302 11.3308 29.4369 10.1883 31.4102C9.03983 33.3902 7.98514 35.4236 7.02421 37.5236C6.05741 39.6169 5.19022 41.7636 4.41679 43.9636C3.64335 46.1636 2.96952 48.3969 2.3953 50.6702C1.82108 52.9502 1.35233 55.2502 0.983191 57.5836C0.614052 59.9102 0.34452 62.2569 0.186316 64.6169C0.0222539 66.9769 -0.0304805 69.3436 0.0163945 71.7103C0.0691285 74.0769 0.221473 76.4369 0.479285 78.7836C0.742957 81.1302 1.10624 83.4636 1.56913 85.7702C2.03788 88.0769 2.60624 90.3503 3.27421 92.5902C3.94218 94.8369 4.70975 97.0303 5.57108 99.1836L0.690223 104.45L3.81913 108.224L7.72733 104.004C8.67655 105.95 9.70194 107.837 10.8094 109.67C11.9109 111.51 13.0945 113.277 14.3426 114.984C15.5965 116.69 16.9207 118.33 18.3094 119.89C19.7039 121.457 21.1512 122.937 22.6687 124.344C24.1805 125.75 25.7508 127.07 27.3738 128.304C29.0027 129.537 30.6726 130.684 32.3953 131.737C34.1121 132.79 35.8758 133.744 37.6746 134.61C39.4793 135.47 41.3074 136.23 43.1707 136.89C45.0398 137.557 46.9266 138.117 48.8367 138.57C50.7469 139.03 52.6746 139.384 54.6141 139.63C56.5535 139.877 58.4988 140.017 60.45 140.057C62.407 140.09 64.3523 140.017 66.3035 139.844C68.2488 139.67 70.1824 139.39 72.1043 139.004C74.0262 138.617 75.9305 138.124 77.8113 137.53C79.6922 136.937 81.5496 136.244 83.3719 135.45C85.1941 134.657 86.9812 133.764 88.7332 132.777V147.85C88.7332 148.19 88.7918 148.524 88.9031 148.844C89.0203 149.157 89.1844 149.444 89.4012 149.684C89.6121 149.924 89.8582 150.117 90.1394 150.244C90.4148 150.377 90.7078 150.444 91.0066 150.444H100.112C100.411 150.444 100.704 150.377 100.979 150.244C101.261 150.117 101.507 149.924 101.718 149.684C101.934 149.444 102.098 149.157 102.216 148.844C102.327 148.524 102.386 148.19 102.386 147.85V122.197C103.979 120.57 105.497 118.857 106.938 117.05V147.85C106.938 148.19 106.997 148.524 107.108 148.844C107.225 149.157 107.389 149.444 107.606 149.684C107.817 149.924 108.063 150.117 108.345 150.244C108.62 150.377 108.913 150.444 109.212 150.444H118.317C118.616 150.444 118.909 150.377 119.184 150.244C119.466 150.117 119.712 149.924 119.923 149.684C120.139 149.444 120.304 149.157 120.421 148.844C120.532 148.524 120.591 148.19 120.591 147.85V95.9569C120.591 95.4569 120.473 94.9969 120.239 94.5703C119.999 94.1503 119.682 93.8303 119.284 93.6236C121.305 87.1636 122.471 80.5103 122.782 73.6636C123.093 66.8169 122.536 60.0636 121.106 53.4036L136.522 32.9102V41.4702H141.075V25.9036H141.052ZM118.259 72.6036C118.018 79.7636 116.764 86.6836 114.497 93.3636H109.212C108.913 93.3636 108.62 93.4303 108.345 93.5569C108.063 93.6903 107.817 93.8769 107.606 94.1236C107.389 94.3636 107.225 94.6436 107.108 94.9636C106.997 95.2836 106.938 95.6103 106.938 95.9569V101.144H92.1785C95.6355 92.0369 97.4988 82.5236 97.7684 72.6036H118.259ZM87.1922 101.144H35.6531C32.8641 94.3702 31.0301 87.2702 30.1629 79.8503L40.1238 69.1236C40.9558 69.6369 41.8406 69.9236 42.7781 69.9969C43.7215 70.0636 44.6355 69.9102 45.5144 69.5236L57.8777 86.7569C57.2156 87.9836 56.8758 89.3236 56.8699 90.7702C56.8699 91.2769 56.9168 91.7836 57.0047 92.2836C57.0926 92.7903 57.2215 93.2769 57.3914 93.7436C57.5613 94.2169 57.7723 94.6702 58.0242 95.0902C58.2703 95.5169 58.5574 95.9102 58.8738 96.2702C59.1902 96.6302 59.5359 96.9569 59.9051 97.2369C60.2801 97.5236 60.6726 97.7636 61.0887 97.9569C61.4988 98.1569 61.9266 98.3036 62.366 98.4036C62.8055 98.5036 63.2508 98.5502 63.7019 98.5502C64.1473 98.5502 64.5926 98.5036 65.032 98.4036C65.4715 98.3036 65.8992 98.1569 66.3094 97.9569C66.7254 97.7636 67.118 97.5236 67.493 97.2369C67.8621 96.9569 68.2078 96.6302 68.5242 96.2702C68.8465 95.9102 69.1277 95.5169 69.3738 95.0902C69.6258 94.6702 69.8367 94.2169 70.0066 93.7436C70.1766 93.2769 70.3055 92.7903 70.3933 92.2836C70.4812 91.7836 70.5281 91.2769 70.5281 90.7702C70.5164 89.5169 70.2586 88.3369 69.743 87.2302L81.8191 72.6036H93.2215C92.9285 82.5902 90.9187 92.1036 87.1922 101.144ZM63.7019 106.337H84.8016C80.7703 114.344 75.5848 121.237 69.2566 127.004L63.7019 132.07V106.337ZM59.1492 132.07L53.5887 127.004C47.2605 121.237 42.0808 114.344 38.0437 106.337H59.1492V132.07ZM11.1492 100.324L26.1492 84.1702C27.0867 90.0303 28.5926 95.6836 30.6668 101.144H11.5301C11.4012 100.884 11.2781 100.604 11.1492 100.324ZM4.58671 67.4169C4.93241 57.2769 7.24686 47.7636 11.5301 38.8769H30.6668C27.2098 47.9836 25.3465 57.4969 25.0769 67.4169H4.58671ZM29.5652 70.0102C29.5535 59.1102 31.5808 48.7369 35.6531 38.8769H59.1492V67.4169H54.948V72.6036H59.1492V77.7836H63.7019V72.6036H75.5672L66.4441 83.6502C64.7859 82.7969 63.1043 82.7369 61.4051 83.4703L49.0359 66.2436C49.7039 65.0102 50.0379 63.6702 50.0437 62.2302C50.0496 61.6436 49.991 61.0702 49.8797 60.5036C49.7742 59.9369 49.6101 59.3969 49.3875 58.8703C49.1707 58.3436 48.907 57.8503 48.5906 57.3969C48.2801 56.9369 47.9226 56.5303 47.5301 56.1636C47.1316 55.7969 46.7098 55.4836 46.2527 55.2236C45.7957 54.9636 45.3211 54.7702 44.823 54.6302C44.3308 54.4969 43.8269 54.4236 43.3172 54.4169C42.8074 54.4036 42.3035 54.4636 41.8055 54.5836C41.3074 54.7036 40.8269 54.8836 40.3641 55.1236C39.9012 55.3702 39.4676 55.6636 39.0633 56.0169C38.659 56.3702 38.2957 56.7702 37.9676 57.2169C37.6453 57.6636 37.3641 58.1436 37.1355 58.6636C36.9012 59.1836 36.7254 59.7236 36.6023 60.2836C36.4734 60.8436 36.409 61.4169 36.3914 61.9969C36.3797 62.5769 36.4207 63.1502 36.5262 63.7236C36.6258 64.2902 36.7781 64.8436 36.9832 65.3702L29.6414 73.2769C29.6004 72.1902 29.5652 71.1036 29.5652 70.0102ZM59.1492 33.6836H38.0437C42.0808 25.6769 47.2605 18.7903 53.5887 13.0236L59.1492 7.95025V33.6836ZM63.7019 7.95025L69.2566 13.0236C75.5906 18.7769 80.7644 25.6702 84.784 33.6836H63.7019V7.95025ZM63.7019 88.1702C64.0008 88.1702 64.2937 88.2369 64.5691 88.3702C64.8504 88.5036 65.0965 88.6902 65.3074 88.9303C65.5242 89.1769 65.6883 89.4569 65.7996 89.7769C65.9168 90.0902 65.9754 90.4236 65.9754 90.7702C65.9754 91.1103 65.9168 91.4436 65.7996 91.7636C65.6883 92.0769 65.5242 92.3569 65.3074 92.6036C65.0965 92.8436 64.8504 93.0303 64.5691 93.1636C64.2937 93.2969 64.0008 93.3636 63.7019 93.3636C63.3973 93.3636 63.1043 93.2969 62.8289 93.1636C62.5476 93.0303 62.3016 92.8436 62.0906 92.6036C61.8738 92.3569 61.7098 92.0769 61.5984 91.7636C61.4812 91.4436 61.4226 91.1103 61.4226 90.7702C61.4226 90.4236 61.4812 90.0902 61.5984 89.7769C61.7098 89.4569 61.8738 89.1769 62.0906 88.9303C62.3016 88.6902 62.5476 88.5036 62.8289 88.3702C63.1043 88.2369 63.3973 88.1702 63.7019 88.1702ZM40.9441 62.2302C40.9441 61.8836 41.0027 61.5503 41.1141 61.2369C41.2312 60.9169 41.3953 60.6369 41.6062 60.3902C41.823 60.1502 42.0691 59.9636 42.3445 59.8302C42.6258 59.6969 42.9187 59.6302 43.2176 59.6302C43.5223 59.6302 43.8094 59.6969 44.0906 59.8302C44.366 59.9636 44.6121 60.1502 44.8289 60.3902C45.0398 60.6369 45.2039 60.9169 45.3211 61.2369C45.4383 61.5503 45.491 61.8836 45.491 62.2302C45.491 62.5702 45.4383 62.9036 45.3211 63.2169C45.2039 63.5369 45.0398 63.8169 44.8289 64.0636C44.6121 64.3036 44.366 64.4902 44.0906 64.6236C43.8094 64.7569 43.5223 64.8236 43.2176 64.8236C42.9187 64.8236 42.6258 64.7569 42.3445 64.6236C42.0691 64.4902 41.823 64.3036 41.6062 64.0636C41.3953 63.8169 41.2312 63.5369 41.1141 63.2169C41.0027 62.9036 40.9441 62.5702 40.9441 62.2302ZM86.1023 67.4169L92.6004 59.5436C92.9344 62.1569 93.1394 64.7769 93.2215 67.4169H86.1023ZM97.8328 46.6569C97.8328 46.3169 97.8914 45.9836 98.0086 45.6636C98.1258 45.3503 98.2898 45.0702 98.5008 44.8236C98.7176 44.5836 98.9637 44.3969 99.2391 44.2636C99.5203 44.1302 99.8074 44.0636 100.112 44.0636C100.411 44.0636 100.704 44.1302 100.979 44.2636C101.261 44.3969 101.507 44.5836 101.718 44.8236C101.934 45.0702 102.098 45.3503 102.216 45.6636C102.327 45.9836 102.386 46.3169 102.386 46.6569C102.386 47.0036 102.327 47.3369 102.216 47.6502C102.098 47.9702 101.934 48.2502 101.718 48.4969C101.507 48.7369 101.261 48.9236 100.979 49.0569C100.704 49.1903 100.411 49.2569 100.112 49.2569C99.8074 49.2569 99.5203 49.1903 99.2391 49.0569C98.9637 48.9236 98.7176 48.7369 98.5008 48.4969C98.2898 48.2502 98.1258 47.9702 98.0086 47.6502C97.8914 47.3369 97.8328 47.0036 97.8328 46.6569ZM100.112 38.8769C99.6609 38.8769 99.2156 38.9236 98.7762 39.0236C98.3367 39.1236 97.9148 39.2702 97.4988 39.4702C97.0828 39.6636 96.6902 39.9036 96.3152 40.1902C95.9461 40.4702 95.6004 40.7969 95.284 41.1569C94.9676 41.5169 94.6805 41.9102 94.4344 42.3369C94.1824 42.7636 93.9773 43.2102 93.8016 43.6836C93.6316 44.1502 93.5027 44.6369 93.4148 45.1436C93.3269 45.6436 93.2859 46.1502 93.2859 46.6569C93.2918 47.9102 93.5496 49.0902 94.0652 50.1969L79.8562 67.4169H63.7019V38.8769H111.315C113.343 43.0836 114.936 47.4969 116.096 52.1102L111.514 58.2036L105.96 50.6036C106.604 49.3902 106.932 48.0769 106.938 46.6569C106.938 46.1502 106.891 45.6436 106.804 45.1436C106.721 44.6369 106.587 44.1502 106.417 43.6836C106.247 43.2102 106.036 42.7636 105.79 42.3369C105.538 41.9102 105.257 41.5169 104.94 41.1569C104.624 40.7969 104.278 40.4702 103.903 40.1902C103.528 39.9036 103.136 39.6636 102.725 39.4702C102.309 39.2702 101.882 39.1236 101.442 39.0236C101.003 38.9236 100.557 38.8769 100.112 38.8769ZM108.532 33.6836H89.9578C85.5281 24.0169 79.575 15.7769 72.0984 8.97025L68.4773 5.66358C72.4969 6.24358 76.4226 7.29692 80.243 8.82358C84.0633 10.3569 87.7019 12.3302 91.159 14.7436C94.6101 17.1636 97.8035 19.9703 100.733 23.1569C103.657 26.3503 106.259 29.8636 108.532 33.6836ZM54.368 5.66358L50.7469 8.97025C43.2644 15.7836 37.2996 24.0236 32.8523 33.6836H14.3191C16.5867 29.8636 19.1883 26.3503 22.118 23.1569C25.0476 19.9703 28.2351 17.1636 31.6922 14.7436C35.1433 12.3302 38.782 10.3569 42.6023 8.82358C46.4285 7.29692 50.3484 6.24358 54.368 5.66358ZM4.58671 72.6036H25.0711C25.118 74.3702 25.2176 76.1302 25.3699 77.8769L9.08085 95.4169C6.35038 88.1302 4.85624 80.5236 4.58671 72.6036ZM14.3191 106.337H32.8582C37.3055 115.997 43.2703 124.237 50.7527 131.057L54.368 134.357C50.3484 133.784 46.4285 132.73 42.6023 131.197C38.782 129.664 35.1433 127.69 31.6922 125.277C28.2351 122.857 25.0476 120.057 22.118 116.864C19.1883 113.67 16.5867 110.164 14.3191 106.337ZM97.8328 145.257H93.2859V114.117H97.8328V145.257ZM102.386 114.99V111.524C102.386 111.184 102.327 110.85 102.216 110.53C102.098 110.217 101.934 109.93 101.718 109.69C101.507 109.444 101.261 109.257 100.979 109.13C100.704 108.997 100.411 108.93 100.112 108.93H91.0066C90.7078 108.93 90.4148 108.997 90.1394 109.13C89.8582 109.257 89.6121 109.444 89.4012 109.69C89.1844 109.93 89.0203 110.217 88.9031 110.53C88.7918 110.85 88.7332 111.184 88.7332 111.524V126.89C82.3992 130.85 75.6492 133.344 68.4773 134.364L72.1043 131.057C79.5808 124.237 85.5457 115.997 89.993 106.337H106.938V108.904C105.532 111.044 104.014 113.07 102.386 114.99ZM116.038 145.257H111.491V98.5502H116.038V145.257ZM118.259 67.4169H97.7801C97.657 63.1769 97.2352 58.9769 96.5086 54.8169L97.3699 53.7769C99.0516 54.6436 100.751 54.6969 102.468 53.9369L109.751 63.8902C110.202 64.5102 110.782 64.8169 111.485 64.8236H111.491C112.188 64.8236 112.762 64.5236 113.214 63.9169L117.38 58.3769C117.86 61.3636 118.153 64.3769 118.259 67.4169Z" fill="black"/>
</svg>
