<svg width="316" height="293" viewBox="0 0 316 293" fill="none" xmlns="http://www.w3.org/2000/svg">
<path d="M192.242 49.8334C182.322 56.3334 171.418 57.9934 163.455 59.2067C159.541 59.8001 156.453 60.2667 154.273 61.1534C153.91 61.3001 153.541 61.4134 153.16 61.5201L164.897 39.6067L163.52 38.6601L151.051 61.9401C150.102 62.0667 149.117 62.1401 148.104 62.2001L163.848 32.8001L162.477 31.8467L146.147 62.3401C145.168 62.4201 144.178 62.5334 143.193 62.7267L149.346 51.2401L147.969 50.2867L141.002 63.3001C140.393 63.5067 139.789 63.7467 139.186 64.0534C135.125 65.5534 131.551 68.0467 128.393 70.2534C119.656 76.3534 114.377 80.0401 103.063 63.6067C102.922 63.4001 102.758 63.2134 102.57 63.0401C97.3496 57.0067 87.3594 58.6067 86.9375 58.6734C86.2051 58.8001 85.625 59.3667 85.3731 60.1001C83.668 60.2467 82.5313 60.4534 82.3848 60.4801C81.5176 60.6467 80.8731 61.4267 80.75 62.3667C80.5274 62.4134 80.3867 62.4467 80.334 62.4601C79.2676 62.7067 78.5762 63.8934 78.7871 65.1134C78.875 65.5801 79.0801 65.9867 79.3672 66.3001C78.916 66.6267 78.459 66.9734 78.0137 67.3401C77.586 67.6934 77.2988 68.2134 77.2168 68.8067C77.1348 69.4001 77.2578 70.0001 77.5625 70.4867C78.1778 71.4601 79.4727 71.6934 80.3223 71.0001C89.6856 63.3201 96.8574 67.9467 99.0078 69.7267C105.395 78.5534 111.453 82.8467 117.523 82.8467C122.592 82.8467 126.969 79.9667 131.176 77.0334C130.947 78.5867 130.795 80.3867 130.783 82.3867L123.465 96.0401L124.842 96.9934L130.895 85.6867C130.994 87.0134 131.158 88.4001 131.41 89.8601L113.762 122.82L115.133 123.767L131.932 92.3934C132.195 93.5201 132.518 94.6734 132.893 95.8534L124.443 111.633L125.814 112.587L133.625 98.0001C134.164 99.4534 134.785 100.933 135.518 102.453C136.32 104.127 137.111 105.56 137.908 106.767L145.871 117.647C146.299 118.227 147.055 118.307 147.57 117.82C147.887 117.52 148.033 117.067 147.998 116.627C147.975 116.367 147.881 116.107 147.723 115.887L139.801 105.067C139.109 104.02 138.377 102.693 137.627 101.14C131.844 89.1267 132.951 79.3267 134.123 74.5534C134.258 74.0134 134.088 73.4334 133.689 73.0934C133.297 72.7534 132.764 72.7201 132.342 73.0067C131.738 73.4201 131.141 73.8401 130.549 74.2534C126.424 77.1267 122.164 80.1067 117.523 80.1067C112.191 80.1067 106.713 76.0934 100.772 67.8534C100.713 67.7667 100.643 67.6867 100.566 67.6201C99.2539 66.5067 93.4531 62.1601 85.5664 64.9067C85.5664 64.8267 85.5547 64.7467 85.5371 64.6667C85.4024 63.9934 84.8399 63.5334 84.2422 63.6067C83.9903 63.6401 83.75 63.6667 83.5215 63.7001C83.5508 63.4867 83.5391 63.2734 83.4863 63.0734C84.1602 62.9801 85.2735 62.8401 86.6387 62.7601C87.0723 62.7334 87.459 62.4467 87.6524 62.0067C87.752 61.7934 87.793 61.5601 87.7813 61.3267C89.7559 61.1001 97.127 60.5934 100.895 65.0134C100.936 65.0601 100.977 65.1001 101.018 65.1401C101.082 65.2001 101.129 65.2467 101.164 65.3001C113.809 83.6601 120.799 78.7734 129.652 72.5934C132.857 70.3534 136.174 68.0401 139.988 66.6401C140.029 66.6267 140.076 66.6067 140.117 66.5867C142.602 65.3067 145.361 65.1267 148.027 64.9601C150.383 64.8067 152.82 64.6534 155.082 63.7401C157.022 62.9534 160.15 62.4801 163.772 61.9267C171.934 60.6867 183.113 58.9867 193.443 52.2134C203.24 45.8001 216.377 47.5201 225.67 50.0934C225.77 50.1267 225.869 50.1467 225.975 50.1334L235.865 49.9267C235.9 49.9267 235.947 49.9267 235.988 49.9201C236.434 49.9001 236.855 49.8001 237.248 49.6267L250.397 44.0134C250.912 44.3401 252.342 45.0734 254.563 44.9134C257.393 44.7201 259.514 43.1601 259.514 43.1601C259.514 43.1601 259.273 42.0001 258.711 40.4534L262.977 38.6334C262.971 38.6734 262.965 38.7201 262.947 38.7734L262.227 41.1334C262.039 41.7534 262.262 42.4467 262.766 42.7734L264.242 43.7334C264.535 43.9267 264.77 44.2134 264.91 44.5667L270.793 59.3067C270.951 59.7134 271.168 60.0867 271.42 60.4201L278.709 69.9467C279.102 70.4667 279.213 71.1867 278.984 71.8267L277.76 75.3201C277.514 76.0201 276.928 76.4734 276.266 76.4734H271.578C271.063 76.4734 270.57 76.1867 270.272 75.7001C270.184 75.5601 269.791 74.8267 269.41 74.1134C265.127 66.0601 264.418 65.3134 263.486 65.2334L248.949 63.9867C247.865 63.8867 246.775 64.3134 245.961 65.1401C245.803 65.3067 245.68 65.5201 245.615 65.7601C243.84 72.3601 241.191 82.1734 240.811 83.5267C239.967 85.0201 233.674 96.2134 230.99 101.687C230.674 102.333 230.867 103.153 231.424 103.533L249.266 115.687C249.898 116.12 250.35 116.847 250.502 117.673C250.648 118.5 250.484 119.373 250.051 120.06L241.531 133.48C241.186 134.027 240.682 134.427 240.113 134.613L234.992 136.287C234.752 136.367 234.506 136.407 234.254 136.407C233.082 136.407 232.027 135.507 231.705 134.213C231.506 133.44 231.588 132.62 231.934 131.913C232.279 131.207 232.842 130.693 233.527 130.473L237.365 129.213C237.623 129.133 237.852 128.953 238.01 128.7L243.277 120.4C243.477 120.087 243.547 119.693 243.482 119.32C243.412 118.94 243.207 118.613 242.92 118.42L234.822 112.9C234.74 112.847 234.658 112.807 234.564 112.773L222.166 108.333C222.037 108.287 221.908 108.267 221.773 108.273C202.109 108.9 192.242 102.387 184.314 97.1534C180.025 94.3201 176.316 91.8801 172.022 91.2801C170.938 91.1267 170.645 91.0867 160.736 114.433C160.637 114.667 160.607 114.92 160.631 115.167C160.672 115.627 160.906 116.047 161.299 116.267C161.902 116.593 162.623 116.307 162.91 115.627C165.992 108.367 170.99 96.8334 172.408 94.1201C174.787 94.5867 177.072 95.7334 179.469 97.1934L171.734 111.633L173.105 112.587L180.881 98.0734C181.543 98.5067 182.223 98.9467 182.914 99.4067L170.381 122.82L171.752 123.767L184.309 100.32C184.982 100.76 185.674 101.213 186.4 101.667L181.057 111.633L182.434 112.587L187.813 102.54C193.168 105.787 199.965 109.06 209.621 110.413L199.068 130.12L200.439 131.073L211.385 110.633C212.24 110.727 213.113 110.807 214.01 110.867L196.9 142.813L198.277 143.767L215.832 110.98C216.717 111.02 217.625 111.04 218.545 111.047L204.775 136.767L206.147 137.72L220.432 111.047C220.83 111.04 221.229 111.033 221.633 111.02L233.709 115.34L240.553 120.007L236.299 126.707L232.859 127.833C231.559 128.26 230.48 129.24 229.824 130.587C229.168 131.933 229.016 133.493 229.385 134.973C230.006 137.433 232.01 139.153 234.254 139.153C234.729 139.153 235.203 139.08 235.66 138.927L240.781 137.253C241.865 136.893 242.826 136.127 243.488 135.087L252.008 121.667C252.834 120.353 253.145 118.7 252.863 117.12C252.576 115.54 251.715 114.16 250.502 113.333L233.674 101.867C236.732 95.8267 242.861 84.9801 242.926 84.8601C242.979 84.7667 243.02 84.6734 243.049 84.5667C243.201 84.0801 246.98 70.0467 247.807 66.9867C248.094 66.7867 248.434 66.6934 248.768 66.7201L262.514 67.9001L253.889 84.0067L255.266 84.9601L263.762 69.0934C264.184 69.7801 264.688 70.6534 265.191 71.5534L255.541 89.5734L256.912 90.5267L266.147 73.2934C266.639 74.2067 267.072 75.0201 267.348 75.5334C267.412 75.6601 267.465 75.7534 267.523 75.8601L262.443 85.3467L263.814 86.2934L268.49 77.5601C269.252 78.6001 270.383 79.2134 271.578 79.2134H276.266C277.918 79.2134 279.383 78.0867 279.998 76.3401L281.223 72.8467C281.785 71.2467 281.522 69.4401 280.525 68.1401L276.412 62.7667L277.877 60.0267L276.506 59.0801L275.305 61.3201L273.688 59.2067L280.537 46.4134L279.166 45.4601L272.721 57.5001L267.102 43.4267C266.75 42.5467 266.176 41.8267 265.438 41.3467L264.834 40.9534L265.221 39.6734C265.537 38.6401 265.397 37.5801 264.846 36.8267C264.318 36.1001 263.457 35.7534 262.561 35.9134C262.479 35.9267 262.397 35.9467 262.32 35.9801L260.826 36.6201C260.135 33.2801 258.43 29.5467 254.264 29.1467C236.568 27.4601 231.805 16.1734 230.955 16.4734C230.111 16.7801 238.713 31.6867 246.436 32.6801C247.379 32.8001 248.188 33.0267 248.885 33.3334C231.98 37.2334 224.691 28.2667 223.971 28.8267C223.238 29.4001 235.291 40.7934 242.938 39.1667C247.197 38.2601 248.955 39.8267 249.676 41.3867L236.393 47.0601C236.229 47.1334 236.053 47.1734 235.871 47.1801C235.848 47.1801 235.818 47.1801 235.795 47.1867L226.086 47.3867C223.684 46.7267 221.035 46.1267 218.252 45.7001L221.516 39.6067L220.139 38.6601L216.5 45.4601C215.621 45.3467 214.73 45.2534 213.834 45.1867L220.467 32.8001L219.096 31.8467L212.006 45.0867C211.098 45.0534 210.189 45.0401 209.275 45.0534L211.285 41.2934L209.914 40.3401L207.348 45.1334C202.092 45.4734 196.848 46.8201 192.242 49.8334Z" fill="black"/>
<path d="M155.738 129.307C155.973 129.88 156.131 130.473 156.242 131.073L156.482 130.867L160.332 129.813L160.467 125.127L161.926 121.953L159.4 119.387L156.482 118.627L149.85 122.56L148.906 124.653C149.041 124.647 149.176 124.627 149.311 124.627C152.064 124.627 154.584 126.467 155.738 129.307Z" fill="black"/>
<path d="M36.0254 272.78C36.3125 272.78 36.5996 272.767 36.8867 272.727L83.4219 267.087C86.0352 266.773 88.3496 265.02 89.6152 262.393C90.8809 259.767 90.9336 256.607 89.7676 253.92L89.5332 253.393L89.6094 254.347C89.6445 254.833 89.4512 255.313 89.0938 255.593C88.8887 255.753 88.6484 255.833 88.4082 255.833C88.2266 255.833 88.0508 255.793 87.8867 255.7L73.6777 247.907L69.9512 249.627L70.2383 250.28L67.9121 250.567L63.4707 252.613C63.1426 252.767 62.7676 252.74 62.457 252.553L60.6231 251.447L35.1875 254.533C30.7695 255.067 27.5762 259.573 28.0449 264.6C28.4844 269.293 31.9707 272.78 36.0254 272.78Z" fill="black"/>
<path d="M56.2929 198.12H56.2988L71.3457 203.927L87.5586 199.433L91.1562 187.947C85.6953 187.287 74.2578 181.74 79.08 183.193C83.2168 184.44 89.4453 184.36 92.3222 184.24L93.916 179.153C87.9218 178.08 77.1054 172.793 81.9687 174.26C85.9648 175.46 91.8066 175.493 95.0937 175.393L96.9101 169.6C90.9336 168.567 79.9765 163.213 84.8691 164.687C88.9062 165.907 94.83 165.92 98.0937 165.82L100.947 156.713L101.58 154.707L121.982 167.507C122.773 168 123.641 168.24 124.502 168.24C125.967 168.24 127.414 167.54 128.434 166.213L149.064 139.367L151.508 138.08C154.127 136.707 155.269 133.173 154.062 130.187C152.85 127.207 149.75 125.907 147.131 127.28L143.68 129.093C143.012 129.447 142.42 129.947 141.934 130.58L123.342 154.773L100.924 140.72C100.484 140.44 100.027 140.253 99.5644 140.133C99.3066 140.027 99.0371 139.94 98.7617 139.873L94.8476 138.973L78.5351 135.213C78.5351 135.207 78.5351 135.207 78.5351 135.2C77.914 133.56 77.4687 132.38 78.7519 130.307C79.3906 129.28 80.3105 128.373 81.1953 127.5C81.5996 127.107 82.0156 126.693 82.4082 126.267C82.1621 125.94 81.9218 125.613 81.6816 125.28C81.3242 125.673 80.914 126.087 80.4628 126.533C79.5195 127.46 78.5527 128.413 77.832 129.573C76.4433 131.813 76.707 133.427 77.2109 134.907L74.8378 134.36C74.3457 133.107 73.7011 132.013 73.0214 131.04C73.3789 130.653 73.7832 130.313 74.2285 130.033C77.2402 128.153 78.9218 125.313 79.7597 122.16C79.4843 121.66 79.2207 121.147 78.9746 120.627C78.3183 123.953 76.7656 126.987 73.6894 128.913C73.5371 129.007 73.4023 129.113 73.2617 129.22C76.3789 125.873 77.914 122.593 78.5175 119.6C78.2011 118.873 77.9023 118.133 77.6386 117.373C77.3925 120.9 75.8691 125 71.6211 129.18C71.5039 129.04 71.3867 128.893 71.2753 128.753C70.8828 128.267 70.5429 127.84 70.25 127.44C70.7304 126.967 71.2578 126.48 71.8027 125.98C74.5332 123.493 77.9257 120.4 75.5058 116.42C74.5566 114.853 74.2695 112.64 74.6679 110.12C74.7207 110.02 74.7793 109.927 74.832 109.833C75.1308 109.32 75.4296 108.813 75.7226 108.313C76.0742 109.06 76.4902 110.02 76.8535 111.16C76.9824 110.547 77.1699 109.94 77.4277 109.34C77.0703 108.447 76.7187 107.707 76.4433 107.147C76.8242 106.54 77.1992 105.98 77.5859 105.46C77.8027 106.133 78.0253 106.92 78.248 107.8C78.3242 107.673 78.3945 107.547 78.4765 107.427C78.6699 107.147 78.8808 106.873 79.0976 106.607C78.8691 105.76 78.6406 105.02 78.4296 104.4C79.5078 103.207 80.6386 102.6 81.7871 102.667C82.2441 102.687 82.6718 102.807 83.0644 102.98C83.457 102.707 83.8554 102.447 84.2714 102.193C83.5976 101.773 82.7714 101.427 81.8398 101.387C80.4746 101.32 79.1738 101.92 77.9609 103.153C77.9257 103.073 77.8964 103 77.8671 102.933C77.8144 102.827 77.7675 102.713 77.7207 102.593C78.2421 101.847 78.8105 101.167 79.4082 100.573C81.9511 100.6 84.3769 100.887 86.1289 101.16C86.8086 100.813 87.5 100.5 88.1972 100.213C86.8671 99.9534 84.1543 99.48 81.0488 99.3267C84.4765 98.66 87.5761 99.08 89.7382 99.6267C90.4589 99.3734 91.1855 99.1467 91.9121 98.9534C90.4296 98.4134 87.9218 97.7 84.8632 97.6734C88.7539 96.56 91.707 97.0934 93.7636 97.9934C93.8046 98.1734 93.8339 98.34 93.8632 98.5C94.7421 98.3267 95.6093 98.2 96.4472 98.1267C95.9668 97.7734 95.3925 97.4 94.7128 97.06C94.5957 96.6067 94.4433 96.1334 94.2558 95.6534C94.4316 95.7267 94.6132 95.7934 94.7832 95.8734C95.9726 96.4467 96.8867 97.18 97.5195 98.06C97.9882 98.0467 98.4511 98.0467 98.8906 98.06C98.1582 96.6467 96.9277 95.52 95.2168 94.6934C94.6543 94.42 94.0449 94.2 93.4179 94.0067C93.3359 93.88 93.2421 93.7534 93.1543 93.6267C94.9531 93.62 96.5175 94.0267 97.8359 94.86C98.0703 95 98.2753 95.16 98.4804 95.32C98.7148 95.52 98.9492 95.7334 99.1894 95.9534C99.9511 96.7334 100.449 97.5667 100.766 98.24C101.82 98.4067 102.775 98.6934 103.631 99.0734C102.289 97.3667 100.977 95.94 99.6992 94.7667C99.5761 94.6467 99.4414 94.5267 99.3007 94.4134C91.6543 87.6267 85.3203 89.66 81.4355 92.4534C79.9648 93.1334 78.7871 93.9334 77.8964 94.8267C77.1171 95.1267 76.4082 95.4467 75.8339 95.7867C74.1289 96.7867 72.5351 98.4667 71.2519 100.513C68.8085 101.473 66.8867 103.107 66.1836 105.78C65.7382 107.48 65.6796 109.16 65.6269 110.647C65.5214 113.68 65.4511 115.687 62.5859 116.453L62.8437 117.7C66.541 116.707 66.6464 113.787 66.7519 110.7C66.8046 109.22 66.8574 107.693 67.2617 106.14C67.707 104.447 68.7793 103.233 70.2148 102.387C69.5351 103.773 69.0078 105.26 68.6738 106.773C68.3515 108.26 68.2461 109.673 68.3281 110.973C68.3281 110.973 68.3281 110.973 68.3281 110.98C67.8242 113.273 67.83 115.4 68.3046 117.187C66.4941 119.08 64.332 120.627 61.5957 121.447L61.8828 122.687C64.6484 121.853 66.8691 120.313 68.7324 118.44C68.8613 118.733 69.0019 119.013 69.1601 119.273C69.2011 119.34 69.2246 119.413 69.2656 119.487C68.5332 120.553 67.3964 121.66 66.0253 122.907C64.7187 124.093 63.4882 125.22 62.7324 126.44C61.5312 128.387 62.1113 130.273 63.0664 132.02C62.2929 132.927 61.6367 133.733 61.1621 134.453C56.4921 137.807 50.5449 146.533 44.2812 167.093C43.6425 169.193 44.0878 171.52 45.4238 173.127C46.7656 174.74 48.7812 175.373 50.6503 174.76C51.2187 174.58 51.7988 174.407 52.3906 174.24L58.3378 154.3L60.623 155.18L54.2011 176.7L50.7734 195.987L56.2929 198.12ZM70.4316 114.34C69.8984 113.46 69.5703 112.367 69.4589 111.127C70.1152 108.267 71.5039 105.527 73.2382 103.507C71.8261 107 71.3808 110.227 72.289 111.82C71.7324 112.727 71.1406 113.627 70.5136 114.493C70.4843 114.447 70.4668 114.393 70.4316 114.34ZM84.4296 92.6467C86.7441 91.92 88.6777 91.9334 90.2011 92.6667C89.5449 92.7934 88.8593 92.98 88.1621 93.2C85.9765 93.1334 83.7558 93.3534 81.7402 93.7534C81.8164 93.6934 81.8984 93.64 81.9746 93.58C82.7128 93.2467 83.5273 92.9334 84.4296 92.6467ZM79.6836 95.5734C81.0136 95.18 82.5195 94.8734 84.1015 94.68C81.3886 95.9134 79.4785 97.4067 78.1367 98.8067C77.7675 98.94 77.3867 99.0867 77.0117 99.2534C77.0175 99.0934 77.0468 98.9267 77.0703 98.7667C77.8378 97.6467 78.7109 96.56 79.6836 95.5734ZM73.0332 110.587C72.6347 108.873 73.4668 105.213 75.4179 101.493C75.6054 101.367 75.7929 101.247 75.9804 101.133C76.0039 101.12 76.0214 101.113 76.0449 101.1C76.0683 101.22 76.0918 101.34 76.1211 101.453C75.7343 102.107 75.4941 102.653 75.3593 103C75.0312 103.86 74.8613 104.693 74.8437 105.433C74.375 106.533 74.0058 107.687 73.748 108.853C73.6953 109.107 73.6543 109.36 73.6132 109.607C73.4199 109.933 73.2265 110.26 73.0332 110.587ZM72.8925 113.06C73.9296 115.827 72.5 118.133 70.7597 120.487C70.7187 120.187 70.6543 119.887 70.5546 119.593C71.1992 118.413 71.4746 117.133 71.0586 115.733C71.7148 114.86 72.3242 113.96 72.8925 113.06ZM67.0683 132.627C66.4003 132.547 65.6562 132.56 64.8476 132.727C64.7304 132.54 64.6132 132.353 64.5019 132.173C64.5429 132.127 64.5839 132.087 64.625 132.033C65.9199 130.533 67.3964 128.813 68.5859 127.033C68.6328 127.12 68.6855 127.213 68.7382 127.307C68.3867 127.7 68.0644 128.107 67.8066 128.52C66.9628 129.887 66.8867 131.213 67.0683 132.627ZM71.5566 133.607C71.7382 133.033 71.9785 132.507 72.2773 132.027C72.6992 132.647 73.0976 133.32 73.4433 134.04L71.5566 133.607ZM71.5332 130.993C71.0585 131.693 70.6953 132.487 70.4433 133.347L68.3339 132.86C68.2988 132.853 68.2695 132.853 68.2343 132.847C68.0175 131.5 68.0293 130.38 68.7265 129.253C68.9199 128.947 69.1601 128.633 69.4238 128.32C69.7402 128.747 70.0859 129.18 70.4492 129.62C70.8007 130.06 71.1699 130.513 71.5332 130.993ZM74.5859 117.147C76.2793 119.933 74.3046 122.06 71.0996 124.98C70.5722 125.467 70.0625 125.94 69.582 126.413C69.4707 126.213 69.3886 126.02 69.3242 125.833C69.9394 124.76 70.414 123.68 70.6543 122.62C70.7949 122.427 70.9355 122.24 71.082 122.04C72.3593 120.333 73.7304 118.5 74.2109 116.44C74.3281 116.687 74.4453 116.927 74.5859 117.147ZM77.1171 104.133C76.7304 104.62 76.3496 105.147 75.9746 105.72C76.2675 105.04 76.6015 104.38 76.9707 103.76C77.0175 103.873 77.0644 103.993 77.1171 104.133ZM93.33 96.4734C90.5527 95.4934 86.5742 95.2467 81.3476 97.66C82.8769 96.5934 84.8457 95.58 87.3711 94.78C87.6816 94.6734 87.9746 94.5867 88.2734 94.4934C89.8203 94.54 91.332 94.7334 92.7148 95.12C92.9668 95.56 93.166 96.02 93.33 96.4734ZM92.041 92.3934C92.0117 92.3667 91.9882 92.34 91.9531 92.3134C91.3613 91.82 90.6933 91.46 89.9668 91.2067C91.2734 91.3334 92.6679 91.7 94.1328 92.4C93.4648 92.34 92.7734 92.3334 92.041 92.3934ZM76.3496 96.92C76.3847 96.9 76.4316 96.88 76.4726 96.86C76.414 96.98 76.3437 97.1 76.291 97.2267C76.1562 97.5867 76.0566 97.9467 75.9921 98.3C75.7226 98.7 75.4648 99.1134 75.2187 99.5267C74.4863 99.6267 73.7714 99.76 73.08 99.9334C74.0644 98.66 75.1777 97.6067 76.3496 96.92ZM71.9609 101.58C72.623 101.34 73.3261 101.153 74.0586 101.007C72.4472 102.36 70.9941 104.287 69.9101 106.493C70.3554 104.753 71.0703 103.073 71.9609 101.58ZM69.5117 115.073C69.5996 115.22 69.6757 115.367 69.7461 115.513C69.5761 115.733 69.4003 115.94 69.2246 116.153C69.1132 115.547 69.0664 114.907 69.0722 114.227C69.2011 114.527 69.3476 114.807 69.5117 115.073ZM69.6054 117.52C69.7812 117.32 69.9511 117.12 70.1211 116.913C70.1445 117.36 70.0683 117.793 69.9218 118.22C69.8046 118 69.6992 117.767 69.6054 117.52ZM63.6523 127.18C64.3144 126.107 65.4863 125.04 66.7285 123.907C67.7246 123 68.8027 122.007 69.664 120.927C69.6875 121.287 69.6757 121.66 69.6113 122.04C69.2421 122.547 68.873 123.06 68.5566 123.573C68.1171 124.28 68 124.96 68.0937 125.627C66.9218 127.527 65.2929 129.433 63.8808 131.067C63.125 129.593 62.8906 128.413 63.6523 127.18Z" fill="black"/>
<path d="M106.443 214.367L117.037 265.14C117.916 269.347 121.209 272.18 124.848 272.173C125.463 272.173 126.09 272.093 126.717 271.927C131.029 270.76 133.701 265.827 132.676 260.913L119.938 199.867C119.398 197.287 117.898 195.1 115.836 193.873C113.768 192.647 111.336 192.5 109.168 193.473L91.4785 201.42L94.9883 219.513L106.443 214.367Z" fill="black"/>
<path d="M103.953 118.453C101.744 119.513 100.039 121.513 99.1485 124.093C98.3164 126.5 98.3047 129.14 99.0782 131.593C103.479 129.687 106.291 124.127 107.164 117.673C106.063 117.7 104.99 117.96 103.953 118.453Z" fill="black"/>
<path d="M78.7286 114.567C81.4297 124.607 89.4864 133.087 96.7169 132.227C95.8379 129.233 95.8907 126.027 96.9044 123.087C98.0352 119.813 100.209 117.273 103.022 115.92C104.41 115.253 105.91 114.933 107.416 114.94C107.58 111.613 107.258 108.153 106.385 104.913C103.455 94.0465 75.7989 103.7 78.7286 114.567Z" fill="black"/>
<path d="M63.084 249.827L73.2676 245.133C73.4141 245.067 73.5664 245.033 73.7246 245.033C73.9004 245.033 74.082 245.08 74.2461 245.167L87.0254 252.18L86.1465 240.68C86.1172 240.293 86.2344 239.907 86.4688 239.627L89.0293 236.5C89.3457 236.12 89.832 235.973 90.2715 236.133L96.1602 238.24L89.0879 201.833L85.4258 202.853L88.6191 223.3L86.2461 223.78L83.082 203.5L71.5742 206.693C71.3516 206.753 71.1172 206.74 70.9004 206.66L62.5156 203.42L61.168 213.293L58.7891 212.867L60.1953 202.52L55.9062 200.867L52.0566 227.433L50.8672 227.207L49.6777 226.987L53.5918 199.973L50.873 198.92L43.2207 232.647L46.4375 235.753C46.4844 235.793 46.5195 235.84 46.5605 235.887L52.4902 243.44L63.084 249.827Z" fill="black"/>
<path d="M280.736 213.067L234.641 212.56L168.512 212.193L129.277 212.38L133.174 216.087L178.314 214.613L237.863 215.913L278.879 216.487L280.736 213.067Z" fill="black"/>
</svg>
