<svg width="181" height="194" viewBox="0 0 181 194" fill="none" xmlns="http://www.w3.org/2000/svg">
<path d="M159.277 174.52L152.029 157.88C152.082 157.44 152.111 157.007 152.111 156.587V130.147C152.111 127.667 151.244 125.287 149.726 123.507V87.24C149.726 79.94 144.518 73.9933 138.107 73.9933H97.7245V40.78C97.7245 33.4733 92.5155 27.5266 86.1054 27.5266H59.8905V23.0266C59.8905 17.76 56.1405 13.48 51.5234 13.48H25.6659C21.0546 13.48 17.3046 17.76 17.3046 23.0266V49.4466C17.3046 49.8733 17.3339 50.3066 17.3866 50.74L10.1386 67.3867C9.91008 67.9067 9.99797 68.5333 10.3613 68.94C10.5898 69.2 10.8886 69.34 11.1991 69.34C11.3749 69.34 11.5566 69.2933 11.7206 69.2L19.6894 64.7066V92.9333C19.6894 100.24 24.8984 106.187 31.3085 106.187H75.1015V139.4C75.1015 146.707 80.3163 152.653 86.7206 152.653H109.525V156.587C109.525 161.853 113.275 166.133 117.892 166.133H139.596L157.689 176.34C157.859 176.433 158.035 176.48 158.217 176.48C158.521 176.48 158.826 176.34 159.055 176.08C159.412 175.667 159.506 175.04 159.277 174.52ZM64.6952 52.0333H85.5136C86.1698 52.0333 86.6972 52.6333 86.6972 53.38C86.6972 54.1333 86.1698 54.7333 85.5136 54.7333H64.6952C64.039 54.7333 63.5058 54.1333 63.5058 53.38C63.5058 52.6333 64.039 52.0333 64.6952 52.0333ZM29.539 56.2866C29.3573 56.2866 29.1757 56.3333 29.0116 56.4266L13.8241 65L19.6835 51.5533C19.8007 51.2866 19.8359 50.9866 19.7831 50.6933C19.7128 50.2666 19.6777 49.8466 19.6777 49.4466V23.0266C19.6777 19.2533 22.3613 16.18 25.6659 16.18H51.5234C54.828 16.18 57.5234 19.2533 57.5234 23.0266V49.4466C57.5234 53.22 54.828 56.2866 51.5234 56.2866H29.539ZM62.2988 79.1133H33.2421C32.5859 79.1133 32.0527 78.5133 32.0527 77.76C32.0527 77.0133 32.5859 76.4133 33.2421 76.4133H62.2988C62.955 76.4133 63.4823 77.0133 63.4823 77.76C63.4823 78.5133 62.955 79.1133 62.2988 79.1133ZM33.2421 67.6733C32.5859 67.6733 32.0527 67.0733 32.0527 66.32C32.0527 65.5733 32.5859 64.9733 33.2421 64.9733H85.5136C86.1698 64.9733 86.6972 65.5733 86.6972 66.32C86.6972 67.0733 86.1698 67.6733 85.5136 67.6733H33.2421ZM109.525 149.947H86.7206C81.623 149.947 77.4745 145.213 77.4745 139.4V87.24C77.4745 81.4267 81.623 76.6933 86.7206 76.6933H138.107C143.205 76.6933 147.353 81.4267 147.353 87.24V121.553C146.24 120.94 145.01 120.613 143.75 120.613H117.892C113.275 120.613 109.525 124.893 109.525 130.147V149.947ZM140.398 163.567C140.234 163.473 140.059 163.427 139.877 163.427H117.892C114.588 163.427 111.892 160.353 111.892 156.58V130.147C111.892 126.38 114.588 123.32 117.892 123.32H143.75C145.226 123.32 146.644 123.94 147.746 125.067C149.012 126.367 149.738 128.22 149.738 130.147V156.58C149.738 156.993 149.703 157.4 149.627 157.827C149.58 158.12 149.615 158.42 149.732 158.687L155.586 172.133L140.398 163.567Z" fill="black"/>
<path d="M89.5332 98.2066H137.785C138.441 98.2066 138.975 97.6066 138.975 96.8533C138.975 96.1066 138.441 95.5066 137.785 95.5066H89.5332C88.877 95.5066 88.3496 96.1066 88.3496 96.8533C88.3496 97.6066 88.877 98.2066 89.5332 98.2066Z" fill="black"/>
<path d="M124.391 113.88C125.035 113.88 125.562 113.293 125.574 112.553C125.586 111.807 125.064 111.193 124.414 111.18L89.5566 110.487C88.8652 110.493 88.3613 111.067 88.3496 111.813C88.3378 112.56 88.8593 113.18 89.5156 113.193L124.367 113.88C124.379 113.88 124.385 113.88 124.391 113.88Z" fill="black"/>
<path d="M143.797 132.893H133.033V126.433C133.033 125.68 132.5 125.08 131.85 125.08C131.193 125.08 130.66 125.68 130.66 126.433V132.893H120.348C119.691 132.893 119.164 133.5 119.164 134.247C119.164 134.993 119.691 135.6 120.348 135.6H136.766C136.068 140.627 134.51 144.887 132.119 148.3C130.033 145.693 128.381 142.553 127.262 138.873C127.051 138.167 126.377 137.793 125.756 138.04C125.141 138.287 124.813 139.053 125.023 139.76C126.277 143.88 128.123 147.433 130.502 150.347C128 153.16 124.736 155.36 120.764 156.867C120.143 157.107 119.809 157.873 120.02 158.58C120.184 159.147 120.646 159.507 121.139 159.507C121.268 159.507 121.391 159.48 121.52 159.433C125.867 157.78 129.459 155.34 132.225 152.207C134.633 154.633 137.486 156.573 140.785 157.94C140.92 157.993 141.055 158.02 141.189 158.02C141.676 158.02 142.133 157.673 142.303 157.127C142.525 156.427 142.209 155.647 141.594 155.393C138.588 154.153 135.992 152.393 133.813 150.2C136.619 146.293 138.412 141.387 139.162 135.6H143.797C144.453 135.6 144.98 134.993 144.98 134.247C144.98 133.5 144.453 132.893 143.797 132.893Z" fill="black"/>
<path d="M40.004 20.6266C39.8223 20.1066 39.3829 19.7666 38.8965 19.7666C38.4043 19.7666 37.9649 20.1066 37.7891 20.6266L28.1036 49.2466C27.8692 49.9399 28.1739 50.7266 28.7832 50.9933C29.3926 51.2599 30.0782 50.9133 30.3125 50.2199L32.5977 43.4866H45.1954L47.4747 50.2199C47.6563 50.7533 48.1075 51.0866 48.5821 51.0866C48.7227 51.0866 48.8692 51.0533 49.0098 50.9933C49.6192 50.7266 49.9239 49.9399 49.6895 49.2466L40.004 20.6266ZM33.5118 40.7799L38.8965 24.8733L44.2813 40.7799H33.5118Z" fill="black"/>
</svg>
