    <svg width="233" height="245" viewBox="0 0 233 245" fill="none" xmlns="http://www.w3.org/2000/svg">
<path d="M224.409 70.5753L209.625 67.042L215.491 35.2753L217.131 35.6686C217.348 35.7153 217.571 35.722 217.787 35.6753C218.004 35.6286 218.209 35.5353 218.397 35.3953C218.579 35.2553 218.737 35.082 218.86 34.8753C218.989 34.6686 219.077 34.4353 219.118 34.1886L222.475 16.022C222.58 15.4553 222.58 14.8953 222.487 14.322C222.393 13.7553 222.211 13.2286 221.93 12.7486C221.655 12.262 221.309 11.862 220.887 11.5353C220.471 11.2086 220.014 10.9886 219.516 10.8686L174.446 0.0952938C173.948 -0.0247053 173.45 -0.0313728 172.952 0.0752938C172.454 0.18196 171.991 0.395293 171.563 0.708627C171.141 1.02196 170.784 1.42196 170.496 1.89529C170.209 2.37529 170.016 2.89529 169.911 3.46196L166.559 21.6286C166.512 21.8753 166.506 22.122 166.547 22.3686C166.588 22.622 166.67 22.8486 166.793 23.062C166.916 23.2753 167.069 23.4553 167.25 23.5953C167.438 23.7353 167.637 23.8353 167.854 23.8886L169.495 24.282L163.629 56.0486L148.846 52.5153C148.202 52.362 147.545 52.282 146.883 52.2753C146.227 52.2686 145.571 52.3286 144.92 52.4686C144.27 52.6086 143.637 52.8153 143.022 53.102C142.413 53.382 141.827 53.722 141.27 54.1353C140.719 54.5486 140.204 55.0153 139.735 55.542C139.26 56.0686 138.838 56.642 138.463 57.262C138.094 57.882 137.778 58.542 137.514 59.2353C137.256 59.922 137.057 60.642 136.922 61.3753L127.952 109.969L124.664 109.182L127.424 94.2286C127.565 93.4953 127.635 92.7486 127.641 91.9953C127.647 91.242 127.588 90.502 127.471 89.762C127.348 89.022 127.161 88.302 126.914 87.602C126.668 86.9086 126.364 86.242 126.006 85.6086C125.643 84.982 125.233 84.3953 124.77 83.862C124.307 83.322 123.803 82.842 123.252 82.4153C122.707 81.9886 122.133 81.6286 121.524 81.3353C120.914 81.042 120.288 80.8153 119.643 80.662L80.2211 71.242C79.5707 71.082 78.9203 71.002 78.2582 70.9953C77.5961 70.9886 76.9399 71.0553 76.2895 71.1886C75.6391 71.3286 75.0063 71.542 74.3969 71.822C73.7817 72.102 73.1957 72.4486 72.6449 72.8553C72.0883 73.2686 71.5785 73.7353 71.1039 74.262C70.6293 74.7886 70.2074 75.362 69.8383 75.982C69.4633 76.6086 69.1469 77.262 68.8891 77.9553C68.6254 78.6486 68.432 79.362 68.2914 80.0953L65.5317 95.0486L48.2875 90.9286L48.8266 88.0086C48.9379 87.4086 48.9438 86.802 48.8442 86.1953C48.7387 85.582 48.5453 85.022 48.2465 84.502C47.9477 83.9886 47.5785 83.5553 47.1274 83.2086C46.682 82.8553 46.1899 82.622 45.6567 82.4953L42.1762 81.662C41.643 81.5353 41.1098 81.5286 40.5766 81.642C40.0434 81.7553 39.5512 81.982 39.0942 82.3153C38.643 82.6553 38.2621 83.082 37.9516 83.5886C37.6469 84.102 37.4359 84.6553 37.3246 85.262L36.7856 88.1753L29.3969 86.4086C28.7465 86.2553 28.0961 86.1753 27.434 86.1686C26.7719 86.162 26.1156 86.222 25.4652 86.362C24.8149 86.502 24.1879 86.7086 23.5727 86.9886C22.9574 87.2753 22.3774 87.6153 21.8207 88.0286C21.2699 88.442 20.7543 88.9086 20.2797 89.4353C19.8109 89.962 19.3891 90.5353 19.0141 91.1553C18.6391 91.7753 18.3227 92.4353 18.0649 93.1286C17.807 93.8153 17.6078 94.5353 17.4731 95.2686L0.217197 188.715C0.0824305 189.449 0.0121176 190.195 0.00039964 190.949C-0.00546086 191.695 0.0531344 192.442 0.176181 193.182C0.299229 193.922 0.480868 194.642 0.726962 195.342C0.973055 196.035 1.27774 196.702 1.64102 197.329C2.00431 197.962 2.41446 198.549 2.87735 199.082C3.34024 199.622 3.84415 200.102 4.38907 200.529C4.93399 200.949 5.51407 201.309 6.11759 201.609C6.72696 201.902 7.35392 202.129 8.00431 202.282L139.407 233.689C140.057 233.842 140.707 233.929 141.37 233.935C142.032 233.942 142.688 233.875 143.338 233.735C143.989 233.595 144.621 233.389 145.231 233.109C145.846 232.829 146.432 232.482 146.983 232.069C147.539 231.662 148.049 231.189 148.524 230.662C148.998 230.135 149.42 229.562 149.789 228.942C150.164 228.322 150.481 227.669 150.739 226.975C151.002 226.282 151.202 225.569 151.336 224.829L152.028 221.095L178.307 227.375C176.907 228.775 176.01 230.515 175.629 232.589C175.518 233.202 175.454 233.822 175.448 234.449C175.442 235.075 175.489 235.702 175.594 236.315C175.694 236.929 175.846 237.529 176.051 238.109C176.262 238.695 176.514 239.249 176.813 239.769C177.118 240.295 177.457 240.782 177.844 241.229C178.231 241.682 178.647 242.082 179.104 242.435C179.561 242.789 180.041 243.089 180.545 243.335C181.055 243.582 181.577 243.769 182.116 243.895C182.655 244.029 183.2 244.095 183.75 244.102C184.301 244.109 184.846 244.055 185.391 243.935C185.93 243.822 186.457 243.649 186.967 243.415C187.483 243.182 187.969 242.889 188.426 242.549C188.889 242.209 189.317 241.815 189.709 241.375C190.108 240.935 190.459 240.462 190.77 239.942C191.08 239.422 191.344 238.875 191.561 238.302C191.778 237.722 191.942 237.129 192.053 236.515C192.44 234.442 192.235 232.442 191.45 230.515L194.731 231.302C195.381 231.455 196.032 231.535 196.694 231.549C197.356 231.555 198.012 231.489 198.662 231.349C199.313 231.209 199.94 231.002 200.555 230.722C201.17 230.442 201.756 230.095 202.307 229.682C202.864 229.269 203.373 228.802 203.848 228.275C204.317 227.749 204.745 227.175 205.114 226.555C205.489 225.935 205.805 225.275 206.063 224.589C206.327 223.895 206.52 223.182 206.661 222.442L232.19 84.1486C232.33 83.4086 232.401 82.6686 232.407 81.9153C232.412 81.162 232.354 80.4153 232.231 79.6753C232.114 78.9353 231.926 78.2153 231.68 77.522C231.434 76.822 231.129 76.1553 230.772 75.5286C230.409 74.8953 229.998 74.3153 229.536 73.7753C229.073 73.2353 228.569 72.7553 228.018 72.3353C227.473 71.9086 226.899 71.5486 226.289 71.2553C225.68 70.9553 225.053 70.7286 224.409 70.5753ZM145.196 114.089L145.735 111.175C145.776 110.949 145.887 110.769 146.057 110.642C146.227 110.515 146.409 110.475 146.614 110.522L150.112 111.362C150.311 111.409 150.463 111.529 150.575 111.722C150.686 111.915 150.721 112.129 150.68 112.355L150.141 115.269L145.196 114.089ZM150.786 107.615L147.299 106.789C146.772 106.662 146.239 106.655 145.705 106.769C145.166 106.882 144.674 107.109 144.223 107.442C143.766 107.782 143.385 108.209 143.08 108.715C142.77 109.229 142.565 109.782 142.454 110.389L141.914 113.302L131.239 110.749L135.375 88.322L224.075 109.529L217.172 146.902L167.895 135.122L168.586 131.389C168.721 130.649 168.797 129.909 168.803 129.155C168.809 128.402 168.75 127.655 168.627 126.915C168.51 126.175 168.323 125.462 168.077 124.762C167.83 124.062 167.526 123.395 167.163 122.769C166.805 122.135 166.389 121.555 165.926 121.015C165.469 120.482 164.959 119.995 164.414 119.575C163.87 119.149 163.295 118.789 162.686 118.495C162.077 118.195 161.45 117.975 160.805 117.815L153.411 116.049L153.95 113.135C154.061 112.529 154.067 111.929 153.967 111.315C153.868 110.709 153.668 110.149 153.37 109.629C153.077 109.115 152.702 108.682 152.25 108.335C151.805 107.982 151.313 107.749 150.786 107.615ZM35.7133 176.495L38.1918 185.262L33.7328 192.955L25.6645 193.762L20.0395 187.069L21.141 177.949L28.1137 173.235L35.7133 176.495ZM34.7641 196.675C35.3031 196.622 35.7192 196.342 36.018 195.829L41.391 186.609C41.6899 186.095 41.7602 185.549 41.5902 184.962L38.602 174.489C38.4379 173.909 38.1039 173.515 37.6059 173.295L37.3422 173.235L51.6684 95.6353L58.2426 97.2086L50.8129 137.442C50.3734 137.549 50.0277 137.809 49.7758 138.229L49.1313 139.309C49.0024 139.515 48.9145 139.742 48.8676 139.989C48.8207 140.235 48.8149 140.482 48.8559 140.735C48.8969 140.982 48.9731 141.215 49.0961 141.429C49.2133 141.642 49.3656 141.815 49.5473 141.962L49.9457 142.309L38.2621 205.609L31.6879 204.042L33.0121 196.862L34.7641 196.675ZM52.934 144.722L56.0219 147.315L57.6567 156.289C57.7035 156.542 57.7856 156.775 57.9145 156.989C58.0434 157.202 58.2016 157.375 58.3949 157.515C58.5824 157.655 58.7934 157.749 59.016 157.795C59.2387 157.835 59.4613 157.829 59.6781 157.769L60.9027 157.455C61.4828 157.309 61.8813 156.922 62.0981 156.302L64.6527 148.869L77.807 139.095L80.2563 152.329C80.3207 152.689 80.4672 153.002 80.6957 153.269C80.9184 153.535 81.1938 153.709 81.5102 153.795C82.184 153.955 82.7348 153.729 83.1625 153.122L86.3031 148.642C87.0238 147.642 87.3988 146.495 87.434 145.202C87.4516 144.835 87.434 144.462 87.3813 144.095L87.2758 143.289L87.8324 142.875C88.143 142.635 88.3539 142.309 88.4711 141.895C88.5883 141.489 88.5883 141.082 88.4594 140.675C88.3363 140.269 88.1137 139.949 87.7973 139.709C87.4809 139.475 87.1352 139.369 86.7543 139.402L86.602 138.195L87.3168 137.662C87.6508 137.415 87.8793 137.069 87.9965 136.635C88.1195 136.202 88.102 135.775 87.9555 135.355C87.8031 134.929 87.557 134.609 87.2055 134.389C86.8539 134.175 86.4848 134.102 86.0922 134.189L85.9633 133.009L91.1723 129.142C92.2211 128.382 93.059 127.402 93.7035 126.195C94.3422 124.989 94.7113 123.682 94.8051 122.282L94.8754 120.969C94.9281 120.229 94.7758 119.542 94.4242 118.915C94.0668 118.289 93.5805 117.855 92.9594 117.602L91.8461 117.142C90.6859 116.675 89.4965 116.529 88.2777 116.695C87.059 116.869 85.9399 117.335 84.9086 118.102L79.682 121.982L78.7914 121.342C79.0141 120.962 79.1078 120.549 79.0727 120.095C79.0375 119.642 78.8852 119.255 78.6039 118.929C78.3227 118.602 77.9828 118.415 77.5902 118.369C77.1918 118.315 76.8227 118.415 76.4887 118.662L75.7738 119.195L74.8656 118.549C75.1938 117.882 75.1762 117.229 74.8129 116.582C74.6899 116.375 74.5375 116.195 74.3559 116.055C74.1742 115.915 73.975 115.815 73.7582 115.762C73.5414 115.715 73.3246 115.709 73.102 115.755C72.8852 115.802 72.6859 115.895 72.4984 116.029L71.9418 116.442L71.3383 116.009C70.0609 115.095 68.7016 114.862 67.2484 115.302L62.3793 116.775C62.0629 116.862 61.7934 117.035 61.5649 117.302C61.3363 117.562 61.1899 117.875 61.1254 118.242C61.0551 118.602 61.0785 118.955 61.1957 119.302C61.307 119.649 61.4945 119.935 61.7524 120.155L71.4496 128.035L58.307 137.809L54.2524 137.582L61.559 98.002L127.26 113.702L118.207 162.742L116.678 159.962C116.555 159.749 116.403 159.575 116.221 159.429C116.039 159.289 115.84 159.189 115.623 159.142C115.407 159.089 115.19 159.082 114.967 159.129C114.75 159.175 114.551 159.269 114.364 159.409L108.78 163.555L90.4984 177.115L84.9086 181.269C84.727 181.402 84.5688 181.575 84.4457 181.789C84.3227 181.995 84.2348 182.222 84.1879 182.469C84.1469 182.715 84.141 182.962 84.182 183.209C84.2231 183.462 84.3051 183.689 84.4223 183.902L91.6469 196.909C91.7641 197.115 91.9164 197.295 92.1039 197.435C92.2856 197.575 92.4848 197.675 92.7016 197.729C92.9184 197.775 93.1352 197.782 93.352 197.735C93.5746 197.689 93.7738 197.595 93.9613 197.462L99.5453 193.309L114.645 182.029L107.25 222.102L41.5434 206.395L52.934 144.722ZM76.5414 124.215L74.5551 125.695L66.7152 119.315L68.1508 118.875C68.6547 118.722 69.1352 118.802 69.5805 119.122L76.5414 124.215ZM86.6957 121.242C87.2817 120.802 87.9262 120.529 88.6234 120.435C89.3149 120.335 89.9945 120.415 90.6567 120.682L91.4535 121.009L91.4008 121.955C91.3481 122.749 91.143 123.489 90.7856 124.175C90.4223 124.862 89.9477 125.422 89.3617 125.855L62.3383 145.975C62.0395 146.195 61.8227 146.495 61.6938 146.875L60.1703 151.309L59.1684 145.862C59.0805 145.389 58.8695 145.002 58.5238 144.715L54.6039 141.415L58.6762 141.649C59.0395 141.669 59.3734 141.569 59.6781 141.342L86.6957 121.242ZM83.8422 142.649L84.1059 144.662C84.0942 144.782 84.0707 144.902 84.0414 145.015C84.0238 145.462 83.8949 145.862 83.6488 146.209L82.7172 147.529L80.8012 136.829L82.7875 135.349L83.8422 142.649ZM113.168 106.435L77.0336 97.7953L78.8676 87.8353C78.9438 87.422 79.0902 87.042 79.3012 86.6886C79.5121 86.342 79.7699 86.0486 80.0805 85.822C80.391 85.5886 80.7309 85.4353 81.0942 85.3553C81.4633 85.2753 81.8266 85.282 82.1899 85.3686L112.84 92.6953C113.204 92.782 113.538 92.942 113.848 93.182C114.153 93.422 114.411 93.722 114.61 94.0753C114.815 94.4286 114.95 94.8153 115.02 95.2286C115.084 95.642 115.084 96.0553 115.008 96.4753L113.168 106.435ZM137.45 77.1086L226.149 98.3153L224.766 105.789L136.067 84.5886L137.45 77.1086ZM90.8734 181.482L96.3754 191.069L93.5746 193.149L88.0727 183.562L90.8734 181.482ZM99.182 188.949L93.6801 179.362L109.137 167.915L114.639 177.502L99.182 188.949ZM117.452 175.382L111.95 165.795L114.75 163.715L117.592 168.669L120.188 173.189L117.452 175.382ZM118.623 179.075L123.51 175.449C123.698 175.309 123.85 175.135 123.973 174.929C124.102 174.715 124.184 174.489 124.231 174.242C124.278 173.995 124.278 173.749 124.237 173.502C124.196 173.255 124.12 173.022 123.996 172.809L120.803 167.269L130.547 114.489L137.116 116.062L117.106 224.455L110.532 222.882L118.623 179.075ZM165.135 150.075L214.412 161.855L208.202 195.495L158.924 183.715L165.135 150.075ZM165.827 146.335L167.209 138.862L216.487 150.642L215.104 158.115L165.827 146.335ZM158.239 187.455L207.516 199.229L206.133 206.709L156.856 194.929L158.239 187.455ZM228.909 83.362L228.217 87.102C227.567 86.942 226.94 86.722 226.336 86.422C225.727 86.1286 225.147 85.7686 224.602 85.342C224.057 84.922 223.553 84.4353 223.09 83.902C222.627 83.362 222.217 82.782 221.854 82.1486C221.491 81.522 221.186 80.8553 220.94 80.1553C220.694 79.4553 220.512 78.742 220.389 78.002C220.266 77.262 220.207 76.5153 220.219 75.762C220.225 75.0086 220.295 74.2686 220.43 73.5286L223.717 74.3153C224.145 74.4153 224.567 74.5686 224.971 74.762C225.375 74.962 225.762 75.202 226.125 75.482C226.489 75.7686 226.829 76.0886 227.133 76.4486C227.444 76.8086 227.719 77.1953 227.959 77.6153C228.2 78.0353 228.399 78.4753 228.569 78.942C228.733 79.4086 228.856 79.8886 228.932 80.382C229.014 80.8753 229.055 81.3686 229.049 81.8753C229.043 82.3753 228.996 82.8686 228.909 83.362ZM227.526 90.8353L226.834 94.5753L138.135 73.3753L138.827 69.6353C139.688 69.842 140.561 69.9486 141.446 69.962C142.325 69.9753 143.198 69.882 144.065 69.702C144.932 69.5153 145.776 69.2353 146.59 68.862C147.411 68.4886 148.19 68.0286 148.928 67.4753C149.666 66.9286 150.352 66.302 150.979 65.602C151.612 64.902 152.174 64.1353 152.672 63.3086C153.17 62.482 153.592 61.602 153.938 60.682C154.284 59.762 154.547 58.8086 154.729 57.8286L217.149 72.742C216.967 73.7286 216.868 74.722 216.862 75.722C216.85 76.722 216.926 77.722 217.09 78.702C217.254 79.6886 217.5 80.6486 217.829 81.582C218.157 82.5086 218.561 83.3953 219.041 84.2353C219.528 85.0753 220.073 85.8553 220.694 86.5686C221.309 87.2886 221.983 87.9286 222.709 88.4953C223.436 89.062 224.204 89.542 225.018 89.9353C225.827 90.3286 226.664 90.6286 227.526 90.8353ZM173.198 4.24863C173.221 4.10196 173.291 3.98863 173.397 3.90863C173.508 3.82863 173.625 3.80196 173.754 3.83529L218.825 14.602C218.954 14.6353 219.053 14.7153 219.123 14.8353C219.194 14.962 219.217 15.0953 219.188 15.2353L216.182 31.5353L212.895 30.7486L214.524 21.9286C214.629 21.362 214.635 20.7953 214.541 20.2286C214.448 19.662 214.26 19.1353 213.985 18.6553C213.704 18.1686 213.358 17.762 212.936 17.442C212.52 17.1153 212.063 16.8886 211.565 16.7753L179.631 9.14196C179.139 9.02196 178.641 9.01529 178.137 9.12196C177.639 9.22863 177.182 9.44196 176.754 9.75529C176.327 10.0686 175.975 10.4686 175.688 10.942C175.401 11.422 175.207 11.942 175.102 12.5086L173.473 21.3286L170.186 20.542L173.198 4.24863ZM172.782 25.062L174.422 25.4553C174.645 25.5086 174.862 25.5153 175.079 25.4686C175.301 25.422 175.5 25.3286 175.688 25.1886C175.875 25.0486 176.028 24.8753 176.157 24.6686C176.28 24.4553 176.368 24.2286 176.414 23.982L178.389 13.2886C178.413 13.1486 178.483 13.0353 178.588 12.9553C178.7 12.8753 178.817 12.8486 178.946 12.8753L210.873 20.5086C211.002 20.542 211.102 20.6153 211.172 20.742C211.243 20.862 211.266 21.002 211.237 21.142L209.262 31.8353C209.221 32.082 209.215 32.3286 209.256 32.5753C209.297 32.8286 209.379 33.0553 209.502 33.2686C209.625 33.482 209.778 33.662 209.959 33.802C210.141 33.9486 210.346 34.042 210.563 34.0953L212.204 34.4886L206.338 66.262L166.916 56.8353L172.782 25.062ZM140.209 62.162C140.297 61.6686 140.432 61.1953 140.602 60.7353C140.778 60.2686 140.989 59.8353 141.235 59.422C141.487 59.0086 141.768 58.622 142.084 58.2753C142.395 57.922 142.741 57.6086 143.11 57.3353C143.479 57.062 143.866 56.8286 144.276 56.642C144.686 56.4553 145.108 56.3153 145.541 56.222C145.969 56.1286 146.409 56.0886 146.848 56.0953C147.293 56.0953 147.727 56.1553 148.161 56.2553L151.442 57.042C151.307 57.7753 151.108 58.4886 150.85 59.182C150.592 59.8753 150.276 60.5286 149.901 61.1553C149.526 61.7753 149.104 62.3486 148.629 62.8753C148.161 63.402 147.645 63.8686 147.094 64.282C146.538 64.6886 145.957 65.0353 145.342 65.3153C144.727 65.5953 144.094 65.8086 143.444 65.9486C142.799 66.082 142.143 66.1486 141.481 66.142C140.819 66.1353 140.163 66.0553 139.518 65.8953L140.209 62.162ZM71.5785 80.882C71.6664 80.3886 71.8012 79.9153 71.977 79.4553C72.1469 78.9953 72.3578 78.5553 72.6098 78.142C72.8559 77.7286 73.1371 77.342 73.4535 76.9953C73.7699 76.642 74.1098 76.3286 74.4789 76.0553C74.8481 75.782 75.2348 75.5486 75.6449 75.362C76.0551 75.1753 76.477 75.0353 76.9106 74.942C77.3442 74.8553 77.7777 74.8086 78.2231 74.8153C78.6625 74.822 79.0961 74.8753 79.5297 74.9753L118.952 84.402C119.385 84.502 119.801 84.6553 120.205 84.8486C120.61 85.0486 120.996 85.2886 121.36 85.5686C121.723 85.8553 122.063 86.1753 122.368 86.5286C122.678 86.8886 122.954 87.282 123.194 87.702C123.434 88.122 123.639 88.562 123.803 89.0286C123.967 89.4953 124.09 89.9686 124.166 90.462C124.248 90.9553 124.289 91.4553 124.284 91.9553C124.278 92.4553 124.231 92.9553 124.143 93.442L121.383 108.395L116.455 107.215L118.289 97.2553C118.377 96.8086 118.418 96.3486 118.424 95.8886C118.43 95.4286 118.395 94.9753 118.319 94.522C118.243 94.0686 118.131 93.6286 117.979 93.202C117.827 92.7753 117.645 92.3686 117.422 91.9886C117.2 91.602 116.948 91.242 116.666 90.9153C116.385 90.582 116.075 90.2886 115.741 90.0286C115.407 89.7686 115.055 89.5486 114.68 89.3686C114.311 89.1886 113.924 89.0553 113.532 88.9553L82.8813 81.6286C82.4828 81.5353 82.0844 81.4886 81.6801 81.482C81.2758 81.4753 80.8715 81.5153 80.4789 81.602C80.0805 81.6886 79.6938 81.8153 79.3188 81.9886C78.9438 82.162 78.5863 82.3686 78.2465 82.622C77.9067 82.8753 77.5961 83.162 77.3031 83.482C77.016 83.802 76.7582 84.1553 76.5297 84.5353C76.3012 84.9153 76.1078 85.3153 75.9496 85.742C75.7914 86.162 75.6684 86.602 75.5863 87.0486L73.7465 97.0086L68.8188 95.8353L71.5785 80.882ZM40.6117 86.0486C40.6527 85.822 40.7582 85.642 40.9281 85.5153C41.1039 85.3886 41.2856 85.3486 41.4848 85.3953L44.9828 86.2353C45.182 86.282 45.3402 86.402 45.4516 86.5953C45.5629 86.7886 45.5981 87.002 45.557 87.2286L45.018 90.142L40.0902 88.9686L40.6117 86.0486ZM3.50431 189.495L20.7543 96.0553C20.8481 95.562 20.977 95.0886 21.1527 94.6286C21.3227 94.162 21.5336 93.7286 21.7856 93.3153C22.0316 92.8953 22.3129 92.5153 22.6293 92.162C22.9457 91.8153 23.2856 91.502 23.6547 91.2286C24.0238 90.9553 24.4164 90.722 24.8207 90.5353C25.2309 90.3486 25.6527 90.2086 26.0863 90.1153C26.5199 90.022 26.9594 89.982 27.3988 89.9886C27.8383 89.9886 28.2719 90.0486 28.7055 90.1486L48.4164 94.862L34.2192 171.762L28.559 169.342C28.0551 169.122 27.5746 169.169 27.1117 169.482L18.7445 175.129C18.2817 175.442 18.0121 175.909 17.9418 176.515L16.6234 187.462C16.5531 188.069 16.6996 188.589 17.0688 189.035L23.7719 197.055C24.141 197.495 24.5981 197.689 25.1371 197.635L29.5199 197.202L28.4067 203.255L8.69571 198.542C8.26212 198.442 7.8461 198.289 7.43595 198.095C7.03165 197.895 6.64493 197.655 6.28165 197.375C5.91837 197.089 5.58438 196.769 5.27384 196.409C4.96915 196.055 4.69376 195.662 4.45352 195.242C4.21329 194.822 4.00821 194.382 3.84415 193.915C3.68009 193.449 3.55704 192.969 3.47501 192.475C3.39298 191.989 3.35782 191.489 3.35782 190.989C3.36368 190.482 3.41056 189.989 3.50431 189.495ZM148.049 224.049C147.961 224.535 147.827 225.015 147.657 225.475C147.481 225.935 147.27 226.375 147.024 226.789C146.772 227.202 146.491 227.582 146.174 227.935C145.858 228.289 145.518 228.595 145.149 228.875C144.78 229.149 144.393 229.375 143.983 229.562C143.573 229.749 143.151 229.889 142.717 229.982C142.284 230.075 141.85 230.122 141.405 230.115C140.965 230.109 140.532 230.055 140.098 229.949L120.387 225.242L140.403 116.842L160.114 121.555C160.541 121.662 160.963 121.809 161.368 122.009C161.772 122.202 162.159 122.442 162.522 122.729C162.885 123.009 163.219 123.329 163.53 123.689C163.84 124.049 164.116 124.435 164.356 124.855C164.596 125.275 164.795 125.722 164.959 126.182C165.123 126.649 165.246 127.129 165.329 127.622C165.411 128.115 165.452 128.615 165.446 129.115C165.44 129.615 165.393 130.109 165.305 130.602L148.049 224.049ZM156.164 198.669L205.442 210.442L204.75 214.182C203.889 213.975 203.016 213.869 202.137 213.855C201.252 213.849 200.379 213.935 199.512 214.122C198.645 214.302 197.807 214.582 196.987 214.955C196.166 215.329 195.393 215.795 194.655 216.342C193.916 216.889 193.231 217.515 192.598 218.215C191.971 218.915 191.409 219.682 190.911 220.509C190.413 221.342 189.991 222.215 189.645 223.135C189.299 224.062 189.036 225.009 188.854 225.995L152.713 217.355L156.164 198.669ZM188.819 233.789L179.573 231.582C179.842 231.082 180.176 230.649 180.569 230.269C180.961 229.882 181.395 229.582 181.87 229.349C182.344 229.122 182.836 228.982 183.346 228.922C183.862 228.862 184.366 228.895 184.87 229.015C185.373 229.135 185.854 229.342 186.299 229.629C186.75 229.915 187.149 230.269 187.506 230.695C187.858 231.129 188.145 231.602 188.368 232.129C188.596 232.655 188.743 233.209 188.819 233.789ZM182.807 240.162C182.297 240.035 181.817 239.829 181.366 239.535C180.914 239.242 180.51 238.882 180.159 238.449C179.807 238.015 179.52 237.529 179.297 236.995C179.08 236.462 178.934 235.902 178.864 235.315L188.11 237.522C187.84 238.029 187.512 238.475 187.12 238.862C186.733 239.249 186.299 239.562 185.825 239.795C185.35 240.029 184.858 240.182 184.342 240.242C183.827 240.302 183.311 240.275 182.807 240.162ZM203.373 221.655C203.28 222.149 203.151 222.629 202.975 223.089C202.805 223.549 202.594 223.989 202.342 224.402C202.096 224.815 201.815 225.195 201.498 225.549C201.182 225.895 200.842 226.209 200.473 226.482C200.104 226.762 199.711 226.989 199.307 227.175C198.897 227.362 198.475 227.502 198.041 227.595C197.608 227.689 197.168 227.729 196.729 227.729C196.289 227.722 195.856 227.669 195.422 227.562L192.135 226.775C192.27 226.042 192.469 225.329 192.733 224.635C192.991 223.942 193.307 223.289 193.682 222.669C194.051 222.049 194.473 221.469 194.948 220.949C195.422 220.422 195.932 219.949 196.489 219.542C197.039 219.129 197.625 218.782 198.241 218.502C198.85 218.222 199.483 218.009 200.133 217.875C200.784 217.735 201.44 217.669 202.102 217.675C202.764 217.682 203.414 217.769 204.065 217.922L203.373 221.655Z" fill="black"/>
</svg>
