<svg width="271" height="204" viewBox="0 0 271 204" fill="none" xmlns="http://www.w3.org/2000/svg">
<path d="M70.2983 71.982C68.5873 73.822 65.9975 76.1354 62.8041 77.982C61.2104 78.9087 59.6284 79.6354 58.1694 80.1754C56.7221 80.7421 55.2807 81.1087 54.0737 80.9887C52.8608 80.8887 51.9819 80.362 51.4956 79.8954C51.2495 79.6687 51.0913 79.4554 50.9916 79.3087C50.8979 79.162 50.851 79.082 50.851 79.082C50.851 79.082 50.9155 79.142 51.0327 79.2554C51.1557 79.362 51.3432 79.5154 51.6069 79.662C52.1225 79.962 52.9721 80.2354 54.0151 80.1354C55.0639 80.042 56.2709 79.5554 57.6303 78.8687C59.0014 78.1887 60.4897 77.3954 62.0366 76.502C65.1362 74.7154 67.8725 72.822 69.8061 71.3354C70.7846 70.5954 71.5581 69.9687 72.0913 69.5287C72.6303 69.0887 72.9291 68.842 72.9291 68.842C72.9291 68.842 72.6889 69.1554 72.2553 69.722C71.8159 70.2821 71.1596 71.0754 70.2983 71.982ZM117.812 25.8754C117.742 25.8754 117.677 25.8754 117.607 25.8754C115.591 26.7354 113.74 27.4154 112.357 27.8954C110.863 28.4154 109.908 28.6887 109.908 28.6887C109.908 28.6887 110.669 28.042 111.999 27.1354C112.744 26.6287 113.669 26.0487 114.736 25.462C114.208 25.3354 113.728 25.1954 113.318 25.0554C112.263 24.6887 111.636 24.342 111.636 24.342C111.636 24.342 114.167 24.0354 117.355 24.1554C117.402 24.1354 117.443 24.1154 117.49 24.0954C118.82 23.5154 120.109 23.0687 121.269 22.722C117.724 21.7487 115.117 20.0487 115.117 20.0487C115.117 20.0487 118.14 20.162 121.831 21.1154C122.798 21.362 123.712 21.642 124.539 21.922C125.494 21.7354 126.062 21.6687 126.062 21.6687C126.062 21.6687 125.746 21.8554 125.206 22.1487C127.175 22.8554 128.494 23.482 128.494 23.482C128.494 23.482 126.214 23.662 123.302 23.1687C122.564 23.5487 121.714 23.982 120.777 24.4354C121.07 24.4687 121.345 24.502 121.609 24.5354C122.236 24.3287 122.798 24.1487 123.273 24.0087C124.404 23.6687 125.037 23.482 125.037 23.482C125.037 23.482 124.439 23.7554 123.367 24.2554C123.097 24.3754 122.798 24.5154 122.476 24.6687C123.167 24.7754 123.578 24.8554 123.578 24.8554C123.578 24.8554 122.904 25.142 121.808 25.4154C121.357 25.5354 120.818 25.6354 120.238 25.722C119.798 25.9287 119.335 26.1487 118.849 26.3887C116.951 27.2954 114.718 28.4287 112.257 29.6954C109.802 30.982 107.13 32.4287 104.353 33.982C98.8041 37.1087 93.8998 40.1287 90.3901 42.3954C88.6323 43.5287 87.2143 44.4554 86.2416 45.1154C85.269 45.7554 84.7299 46.1154 84.7299 46.1154C84.7299 46.1154 85.2104 45.6887 86.0893 44.9087C86.9682 44.1287 88.269 43.0354 89.9155 41.7287C93.2026 39.1087 97.9311 35.6954 103.539 32.5287C106.345 30.9554 109.099 29.582 111.636 28.422C113.898 27.422 115.984 26.5554 117.812 25.8754ZM246.249 106.562C245.628 105.609 245.265 104.975 245.265 104.975C245.265 104.975 245.886 105.295 246.777 105.949C247.662 106.602 248.833 107.609 249.806 109.082C250.785 110.555 251.283 112.195 251.412 113.389C251.482 113.982 251.494 114.469 251.47 114.802C251.447 115.135 251.429 115.315 251.429 115.315C251.429 115.315 251.365 115.162 251.242 114.875C251.13 114.589 250.949 114.189 250.72 113.709C250.251 112.742 249.519 111.502 248.628 110.142C247.708 108.762 246.871 107.489 246.249 106.562ZM201.085 134.942C199.908 135.755 199.263 136.202 199.263 136.202C199.263 136.202 199.849 135.682 200.927 134.742C201.46 134.275 202.122 133.702 202.919 133.075C203.71 132.455 204.595 131.695 205.632 130.955C206.658 130.202 207.777 129.362 209.025 128.535C209.646 128.122 210.285 127.669 210.958 127.249C211.638 126.829 212.335 126.395 213.05 125.949C215.939 124.222 219.197 122.449 222.753 120.882C226.31 119.315 229.802 118.075 233.031 117.095C234.654 116.662 236.189 116.195 237.654 115.889C238.386 115.722 239.095 115.562 239.769 115.409C240.455 115.282 241.111 115.155 241.738 115.042C242.992 114.789 244.134 114.642 245.142 114.502C245.64 114.429 246.109 114.362 246.542 114.309C246.648 114.295 246.747 114.282 246.859 114.275C246.548 113.815 246.232 113.309 245.921 112.749C245.792 112.515 245.669 112.275 245.552 112.042C243.859 112.622 241.662 113.375 239.283 114.189C236.669 115.075 234.32 115.875 232.609 116.449C231.747 116.742 231.05 116.982 230.564 117.149C230.078 117.302 229.808 117.395 229.808 117.395C229.808 117.395 230.037 117.222 230.453 116.915C230.869 116.602 231.484 116.182 232.269 115.689C233.833 114.709 236.101 113.489 238.779 112.575C241.111 111.769 243.349 111.335 245.113 111.122C244.322 109.362 243.935 107.942 243.935 107.942C243.935 107.942 245.406 109.049 246.677 110.975C247.234 110.935 247.708 110.915 248.066 110.915C248.587 110.909 248.88 110.909 248.88 110.909C248.88 110.909 248.183 111.149 247.023 111.542C247.076 111.629 247.128 111.715 247.181 111.809C247.621 112.609 247.949 113.415 248.189 114.142C249.32 114.035 249.941 113.975 249.941 113.975C249.941 113.975 249.343 114.109 248.253 114.349C248.687 115.722 248.798 116.749 248.798 116.749C248.798 116.749 248.019 115.942 247.081 114.595C246.935 114.629 246.789 114.662 246.63 114.689C246.214 114.795 245.763 114.902 245.271 115.022C244.298 115.269 243.185 115.509 241.972 115.862C241.363 116.029 240.73 116.195 240.068 116.375C239.406 116.575 238.726 116.782 238.017 116.995C236.593 117.395 235.105 117.935 233.529 118.442C230.394 119.549 226.99 120.862 223.48 122.395C219.976 123.942 216.712 125.582 213.771 127.149C212.312 127.962 210.917 128.709 209.646 129.482C208.357 130.215 207.185 130.962 206.113 131.629C205.023 132.282 204.08 132.942 203.23 133.489C202.38 134.035 201.665 134.535 201.085 134.942ZM160.843 79.1887C157.386 81.7687 155.259 83.362 155.259 83.362C155.259 83.362 155.734 82.8954 156.595 82.0487C157.456 81.1954 158.722 80.002 160.333 78.5554C163.55 75.6687 168.167 71.842 173.652 68.1154C176.4 66.2554 179.095 64.5954 181.585 63.1554C184.093 61.742 186.384 60.5154 188.347 59.5687C189.326 59.082 190.216 58.6687 191.007 58.302C191.792 57.9354 192.472 57.6287 193.035 57.3887C194.154 56.9087 194.775 56.642 194.775 56.642C194.775 56.642 192.46 58.0487 188.74 60.302C186.888 61.4354 184.708 62.8287 182.306 64.362C179.904 65.922 177.285 67.6487 174.566 69.4887C169.128 73.1754 164.306 76.6287 160.843 79.1887ZM188.195 62.3687C189.402 61.702 190.503 61.1287 191.476 60.622C192.443 60.1087 193.287 59.682 193.978 59.3487C195.361 58.662 196.128 58.282 196.128 58.282C196.128 58.282 193.251 60.122 188.628 63.0754C186.32 64.5554 183.607 66.3687 180.607 68.3754C177.619 70.402 174.355 72.6487 170.956 75.0354C164.171 79.8154 158.154 84.2754 153.841 87.5687C149.535 90.8887 146.88 92.922 146.88 92.922C146.88 92.922 147.484 92.3487 148.574 91.2954C149.669 90.2487 151.281 88.7554 153.308 86.9487C157.374 83.3354 163.164 78.522 169.99 73.702C173.406 71.302 176.746 69.122 179.839 67.2087C182.939 65.322 185.775 63.6754 188.195 62.3687ZM164.353 173.522C163.708 173.089 162.994 172.735 162.273 172.309C161.546 171.909 160.814 171.449 160.023 171.049C159.238 170.642 158.429 170.222 157.597 169.795C154.251 168.122 150.496 166.415 146.494 164.682C142.486 162.949 138.642 161.275 135.156 159.642C133.421 158.789 131.757 158.022 130.234 157.189C129.472 156.782 128.734 156.395 128.019 156.015C127.322 155.609 126.654 155.222 126.009 154.849C124.72 154.129 123.589 153.369 122.593 152.722C122.095 152.395 121.632 152.095 121.205 151.815C120.794 151.515 120.414 151.235 120.074 150.982C118.714 149.982 117.958 149.422 117.958 149.422C117.958 149.422 118.744 149.889 120.162 150.735C120.513 150.949 120.906 151.182 121.333 151.442C121.773 151.675 122.248 151.935 122.757 152.209C123.783 152.755 124.925 153.415 126.238 154.022C126.888 154.342 127.568 154.682 128.277 155.029C128.998 155.355 129.742 155.695 130.509 156.049C132.044 156.775 133.714 157.455 135.455 158.215C138.953 159.689 142.808 161.262 146.822 162.995C150.841 164.729 154.609 166.555 157.96 168.389C159.624 169.342 161.201 170.229 162.624 171.195C163.333 171.669 164.037 172.089 164.681 172.562C165.326 173.035 165.941 173.489 166.527 173.922C167.716 174.762 168.701 175.669 169.591 176.415C170.037 176.802 170.453 177.135 170.816 177.482C171.173 177.835 171.501 178.162 171.794 178.449C172.955 179.615 173.599 180.262 173.599 180.262C173.599 180.262 172.914 179.702 171.677 178.689C171.367 178.429 171.027 178.149 170.652 177.842C170.277 177.529 169.837 177.242 169.38 176.909C168.455 176.262 167.447 175.449 166.234 174.722C165.636 174.335 165.009 173.935 164.353 173.522ZM162.859 182.709C161.581 183.522 160.269 183.842 159.32 183.922C158.371 184.009 157.779 183.895 157.779 183.895C157.779 183.895 158.271 183.595 159.062 183.115C159.853 182.642 160.914 181.982 162.091 181.235C163.269 180.489 164.353 179.789 165.15 179.242C165.947 178.695 166.451 178.349 166.451 178.349C166.451 178.349 166.216 178.995 165.642 179.889C165.074 180.782 164.136 181.902 162.859 182.709ZM188.007 191.729C191.224 190.475 194.095 190.035 194.095 190.035C194.095 190.035 191.751 192.075 188.54 193.329C185.324 194.582 182.458 194.569 182.458 194.569C182.458 194.569 184.796 192.975 188.007 191.729ZM185.675 188.322C187.076 187.775 187.972 187.455 187.972 187.455C187.972 187.455 187.257 188.155 186.009 189.089C184.767 190.029 182.986 191.189 180.894 192.102C178.802 193.009 176.816 193.489 175.369 193.729C173.921 193.969 173.007 193.989 173.007 193.989C173.007 193.989 173.804 193.555 175.117 192.922C176.429 192.282 178.246 191.422 180.302 190.522C182.359 189.629 184.275 188.875 185.675 188.322ZM180.238 187.809C178.996 188.715 177.15 189.775 174.97 190.382C172.785 190.995 170.74 191.029 169.298 190.882C168.572 190.809 167.992 190.709 167.593 190.615C167.195 190.522 166.978 190.469 166.978 190.469C166.978 190.469 167.828 190.302 169.21 190.035C169.603 189.955 170.037 189.855 170.499 189.755C170.505 189.755 170.505 189.749 170.505 189.749C170.974 189.175 171.671 188.449 172.58 187.842C173.482 187.229 174.402 186.855 175.087 186.655C175.773 186.449 176.224 186.395 176.224 186.395C176.224 186.395 175.931 186.835 175.433 187.415C175.035 187.875 174.501 188.422 173.869 188.922C174.097 188.862 174.32 188.802 174.554 188.735C176.634 188.155 178.533 187.542 179.915 187.029C181.304 186.509 182.171 186.182 182.171 186.182C182.171 186.182 181.996 186.349 181.673 186.649C181.351 186.949 180.865 187.355 180.238 187.809ZM166.257 184.449C170.863 183.029 174.736 181.829 174.736 181.829C174.736 181.829 173.921 182.522 172.503 183.409C171.091 184.295 169.058 185.362 166.708 186.082C164.359 186.802 162.162 187.029 160.574 187.069C158.992 187.102 158.013 186.975 158.013 186.975C158.013 186.975 158.927 186.689 160.415 186.229C161.904 185.775 163.955 185.149 166.257 184.449ZM164.974 177.935C163.708 178.922 161.88 180.155 159.736 181.122C157.591 182.095 155.546 182.609 154.058 182.869C152.57 183.135 151.626 183.162 151.626 183.162C151.626 183.162 152.453 182.729 153.8 182.069C155.154 181.409 157.023 180.509 159.126 179.555C161.236 178.609 163.193 177.782 164.622 177.175C166.058 176.575 166.966 176.215 166.966 176.215C166.966 176.215 166.246 176.949 164.974 177.935ZM156.865 173.795C156.044 174.889 154.732 176.255 153.015 177.249C151.298 178.249 149.576 178.642 148.339 178.755C147.718 178.809 147.214 178.809 146.869 178.789C146.517 178.769 146.33 178.742 146.33 178.742C146.33 178.742 147.009 178.435 148.111 177.935C149.206 177.422 150.683 176.675 152.289 175.749C153.894 174.822 155.341 173.889 156.378 173.142C156.9 172.775 157.322 172.469 157.615 172.242C157.908 172.022 158.072 171.902 158.072 171.902C158.072 171.902 157.972 172.095 157.773 172.435C157.58 172.775 157.281 173.249 156.865 173.795ZM153.103 169.869C153.103 169.869 152.558 170.535 151.585 171.435C150.613 172.335 149.201 173.469 147.507 174.382C145.808 175.289 144.167 175.802 142.955 176.075C141.748 176.349 140.974 176.395 140.974 176.395C140.974 176.395 141.607 175.955 142.65 175.295C143.699 174.629 145.152 173.749 146.816 172.855C148.486 171.962 150.05 171.222 151.205 170.695C152.359 170.169 153.103 169.869 153.103 169.869ZM146.33 168.709C145.931 169.582 145.216 170.702 144.162 171.569C143.107 172.429 141.964 172.829 141.126 172.975C140.283 173.129 139.744 173.062 139.744 173.062C139.744 173.062 141.308 171.782 143.259 170.195C144.22 169.409 145.117 168.689 145.773 168.129C146.435 167.575 146.857 167.215 146.857 167.215C146.857 167.215 146.728 167.835 146.33 168.709ZM141.97 164.362C141.97 164.362 140.904 166.835 138.865 168.869C136.82 170.902 134.57 171.722 134.57 171.722C134.57 171.722 135.8 169.642 137.845 167.609C139.89 165.575 141.97 164.362 141.97 164.362ZM132.613 168.169C132.121 168.735 131.757 169.095 131.757 169.095C131.757 169.095 131.763 168.602 131.921 167.822C132.08 167.042 132.425 165.975 133.076 164.969C133.726 163.962 134.535 163.242 135.162 162.822C135.789 162.389 136.228 162.229 136.228 162.229C136.228 162.229 136.017 162.735 135.677 163.442C135.331 164.155 134.88 165.069 134.306 165.962C133.726 166.849 133.105 167.595 132.613 168.169ZM129.261 168.142C129.191 168.422 129.156 168.582 129.156 168.582C129.156 168.582 129.109 168.435 129.027 168.175C128.945 167.909 128.851 167.509 128.775 167.009C128.617 166.009 128.558 164.549 128.921 162.995C129.279 161.435 129.964 160.155 130.556 159.342C130.849 158.935 131.119 158.629 131.312 158.429C131.505 158.235 131.617 158.122 131.617 158.122C131.617 158.122 131.576 158.289 131.505 158.582C131.429 158.862 131.33 159.275 131.212 159.762C130.996 160.715 130.703 161.995 130.38 163.389C130.052 164.782 129.747 166.042 129.525 166.975C129.414 167.455 129.32 167.855 129.261 168.142ZM127.275 162.395C127.374 165.022 127.456 167.269 127.456 167.269C127.456 167.269 127.374 167.155 127.234 166.962C127.087 166.755 126.9 166.449 126.695 166.042C126.29 165.242 125.857 164.002 125.775 162.535C125.699 161.069 125.992 159.735 126.32 158.849C126.484 158.402 126.642 158.055 126.765 157.822C126.894 157.595 126.964 157.469 126.964 157.469C126.964 157.469 126.976 157.629 126.994 157.902C126.999 158.175 127.029 158.562 127.052 159.022C127.105 159.942 127.21 161.129 127.275 162.395ZM124.451 164.322C124.638 165.415 124.708 166.142 124.708 166.142C124.708 166.142 124.31 165.622 123.777 164.709C123.238 163.782 122.57 162.442 122.06 160.835C121.544 159.222 121.292 157.662 121.175 156.522C121.064 155.382 121.076 154.662 121.076 154.662C121.076 154.662 121.427 155.289 121.902 156.289C122.371 157.295 122.968 158.662 123.46 160.215C123.953 161.762 124.257 163.222 124.451 164.322ZM118.802 157.202C120.085 160.882 120.238 164.215 120.238 164.215C120.238 164.215 118.703 161.562 117.419 157.875C116.142 154.195 115.585 150.882 115.585 150.882C115.585 150.882 117.519 153.515 118.802 157.202ZM117.419 161.622C117.624 161.995 117.742 162.202 117.742 162.202C117.742 162.202 117.572 162.069 117.261 161.822C116.951 161.575 116.523 161.189 116.013 160.675C114.994 159.642 113.687 158.035 112.615 155.922C111.542 153.815 110.945 151.662 110.664 150.089C110.523 149.295 110.441 148.649 110.406 148.202C110.371 147.749 110.353 147.495 110.353 147.495C110.353 147.495 110.746 148.395 111.373 149.802C111.999 151.202 112.896 153.042 113.892 155.022C114.894 156.995 115.826 158.775 116.546 160.075C116.91 160.722 117.208 161.255 117.419 161.622ZM109.949 156.495C110.804 158.102 111.308 159.142 111.308 159.142C111.308 159.142 110.54 158.409 109.386 157.069C108.244 155.735 106.732 153.775 105.296 151.362C103.861 148.949 102.794 146.562 102.103 144.782C101.417 143.002 101.078 141.849 101.078 141.849C101.078 141.849 101.746 142.802 102.748 144.342C103.755 145.882 105.109 147.982 106.503 150.342C107.904 152.702 109.093 154.889 109.949 156.495ZM101.886 149.889C102.378 151.209 102.642 152.069 102.642 152.069C102.642 152.069 102.08 151.469 101.277 150.382C100.468 149.295 99.4311 147.702 98.517 145.749C97.5971 143.795 96.9936 141.869 96.6362 140.449C96.2788 139.029 96.144 138.115 96.144 138.115C96.144 138.115 96.6303 138.875 97.3217 140.102C98.019 141.329 98.9331 143.002 99.8178 144.895C100.703 146.789 101.394 148.569 101.886 149.889ZM96.0327 142.422C98.3354 146.182 99.3959 149.795 99.3959 149.795C99.3959 149.795 97.1284 147.209 94.8256 143.449C92.5288 139.682 91.0698 136.175 91.0698 136.175C91.0698 136.175 93.7358 138.655 96.0327 142.422ZM92.5229 144.329C93.3491 145.822 93.8237 146.795 93.8237 146.795C93.8237 146.795 93.0854 146.129 91.9721 144.909C90.8647 143.689 89.3998 141.902 87.9936 139.675C86.5932 137.462 85.5327 135.249 84.8413 133.602C84.1557 131.955 83.81 130.882 83.81 130.882C83.81 130.882 84.4838 131.742 85.4799 133.135C86.4702 134.542 87.812 136.455 89.1831 138.622C90.5483 140.795 91.6967 142.829 92.5229 144.329ZM84.4897 141.115C84.9174 142.622 85.1518 143.602 85.1518 143.602C85.1518 143.602 84.601 142.862 83.8334 141.535C83.0659 140.222 82.0932 138.302 81.2963 136.002C80.4995 133.709 80.0424 131.495 79.8022 129.869C79.562 128.242 79.5151 127.215 79.5151 127.215C79.5151 127.215 79.9311 128.142 80.5229 129.615C81.1147 131.095 81.9116 133.095 82.6791 135.322C83.4467 137.549 84.0561 139.602 84.4897 141.115ZM79.8901 140.809C80.0717 141.289 80.1772 141.549 80.1772 141.549C80.1772 141.549 80.0073 141.349 79.7026 140.975C79.3979 140.602 78.9819 140.049 78.4838 139.335C77.4936 137.909 76.2163 135.809 75.1264 133.249C74.0307 130.695 73.3393 128.189 72.9526 126.349C72.7534 125.429 72.6245 124.675 72.5483 124.149C72.478 123.622 72.437 123.329 72.437 123.329C72.437 123.329 72.56 123.595 72.7709 124.069C72.9819 124.535 73.2866 125.215 73.6557 126.049C74.3881 127.715 75.3959 129.962 76.4506 132.442C77.5053 134.915 78.4194 137.175 79.0991 138.835C79.4331 139.669 79.7026 140.349 79.8901 140.809ZM72.9057 134.242C73.4858 135.855 73.8256 136.889 73.8256 136.889C73.8256 136.889 73.6733 136.689 73.3979 136.329C73.1166 135.962 72.7358 135.415 72.2788 134.715C71.3706 133.315 70.2163 131.262 69.2553 128.782C68.2885 126.295 67.7084 123.882 67.3979 122.115C67.0815 120.335 66.9995 119.215 66.9995 119.215C66.9995 119.215 67.4448 120.229 68.1127 121.835C68.769 123.449 69.6772 125.622 70.603 128.029C71.5346 130.429 72.3256 132.629 72.9057 134.242ZM68.1362 132.955C69.0092 134.655 69.56 135.709 69.56 135.709C69.56 135.709 69.3608 135.509 69.0034 135.149C68.6459 134.789 68.1479 134.235 67.562 133.509C66.3959 132.062 64.9135 129.855 63.7358 127.075C63.1498 125.689 62.6987 124.302 62.353 123.015C62.0307 121.722 61.7846 120.535 61.6557 119.522C61.5092 118.509 61.4389 117.689 61.4096 117.109C61.3862 116.542 61.3686 116.222 61.3686 116.222C61.3686 116.222 61.4682 116.522 61.6381 117.055C61.8022 117.589 62.06 118.355 62.3764 119.282C62.687 120.215 63.0913 121.295 63.5366 122.482C63.9936 123.662 64.5092 124.942 65.0659 126.269C66.185 128.909 67.2807 131.262 68.1362 132.955ZM63.185 129.162C63.4956 129.615 63.6655 129.869 63.6655 129.869C63.6655 129.869 63.4428 129.689 63.0385 129.369C62.6284 129.049 62.0659 128.542 61.4038 127.862C60.0854 126.502 58.4038 124.342 57.1206 121.495C56.4819 120.069 56.0073 118.635 55.6616 117.302C55.3452 115.955 55.1225 114.715 55.0346 113.662C54.9702 113.142 54.9467 112.662 54.9291 112.242C54.8998 111.822 54.8998 111.462 54.9057 111.169C54.9116 110.575 54.9174 110.249 54.9174 110.249C54.9174 110.249 54.9936 110.562 55.1401 111.129C55.1987 111.409 55.2866 111.749 55.3979 112.142C55.5034 112.535 55.6088 112.982 55.7612 113.462C56.0366 114.435 56.4174 115.562 56.851 116.782C57.3081 117.995 57.8295 119.302 58.4272 120.642C59.6284 123.315 60.9057 125.615 61.9311 127.249C62.4409 128.062 62.8745 128.722 63.185 129.162ZM50.9916 111.922C52.8256 116.795 53.4174 121.102 53.4174 121.102C53.4174 121.102 51.4663 117.529 49.6323 112.662C47.7983 107.789 46.7846 103.462 46.7846 103.462C46.7846 103.462 49.1577 107.055 50.9916 111.922ZM42.2553 114.042C42.437 114.535 42.5424 114.809 42.5424 114.809C42.5424 114.809 42.3725 114.595 42.062 114.209C41.7573 113.815 41.3413 113.222 40.8491 112.455C39.8881 110.922 38.7045 108.615 37.9018 105.789C37.5092 104.375 37.2456 102.982 37.0756 101.709C36.9291 100.422 36.8471 99.2554 36.853 98.2754C36.853 97.2887 36.894 96.4954 36.9467 95.942C36.9936 95.3954 37.0229 95.0887 37.0229 95.0887C37.0229 95.0887 37.0815 95.3954 37.1811 95.9287C37.269 96.462 37.4155 97.2354 37.603 98.162C37.7788 99.0954 38.0366 100.182 38.312 101.375C38.6049 102.569 38.9448 103.855 39.3139 105.195C40.0698 107.869 40.8549 110.255 41.4819 111.989C41.7983 112.855 42.062 113.562 42.2553 114.042ZM202.374 195.682C200.746 196.815 199.052 197.335 197.839 197.522C197.224 197.615 196.732 197.649 196.386 197.642C196.04 197.642 195.853 197.629 195.853 197.629C195.853 197.629 196.017 197.542 196.316 197.389C196.615 197.242 197.048 197.009 197.57 196.722C198.624 196.142 200.031 195.302 201.548 194.249C203.066 193.195 204.414 192.135 205.374 191.295C205.855 190.875 206.248 190.529 206.511 190.275C206.781 190.029 206.933 189.889 206.933 189.889C206.933 189.889 206.851 190.089 206.687 190.449C206.529 190.809 206.277 191.309 205.914 191.895C205.199 193.062 204.003 194.549 202.374 195.682ZM203.201 189.962C201.882 191.309 199.937 193.022 197.57 194.449C195.203 195.882 192.9 196.735 191.212 197.215C189.525 197.689 188.453 197.822 188.453 197.822C188.453 197.822 189.384 197.295 190.902 196.429C192.419 195.575 194.499 194.362 196.802 192.969C199.117 191.582 201.22 190.269 202.749 189.275C204.279 188.275 205.24 187.649 205.24 187.649C205.24 187.649 204.525 188.615 203.201 189.962ZM211.591 191.435C211.058 192.129 210.361 192.889 209.529 193.655C208.685 194.409 207.701 195.155 206.605 195.789C204.396 197.055 202.199 197.582 200.617 197.742C199.826 197.822 199.187 197.835 198.742 197.815C198.308 197.789 198.062 197.775 198.062 197.775C198.062 197.775 198.285 197.695 198.695 197.549C199.105 197.415 199.691 197.195 200.412 196.915C201.847 196.355 203.792 195.475 205.872 194.295C206.915 193.695 207.894 193.082 208.779 192.489C209.652 191.882 210.449 191.322 211.087 190.802C211.738 190.289 212.265 189.862 212.617 189.549C212.98 189.242 213.179 189.069 213.179 189.069C213.179 189.069 213.039 189.309 212.787 189.735C212.535 190.162 212.136 190.749 211.591 191.435ZM245.306 184.489C244.439 184.689 243.478 184.889 242.453 185.095C242.728 184.695 242.974 184.309 243.191 183.955C243.314 183.755 243.425 183.562 243.525 183.382C244.169 183.449 244.843 183.495 245.54 183.502C245.775 183.509 246.009 183.502 246.238 183.495C245.933 183.815 245.622 184.149 245.306 184.489ZM242.095 188.015C241.544 187.982 240.888 187.949 240.162 187.922C240.414 187.655 240.654 187.389 240.882 187.122C240.941 187.115 240.999 187.109 241.052 187.095C241.902 186.942 242.71 186.729 243.472 186.489C242.974 187.035 242.511 187.549 242.095 188.015ZM235.386 187.835C235.503 187.642 235.603 187.462 235.685 187.315C236.499 187.389 237.419 187.429 238.421 187.389C238.369 187.435 238.322 187.482 238.269 187.529C238.152 187.635 238.035 187.749 237.917 187.849C237.121 187.842 236.271 187.829 235.386 187.835ZM225.044 193.262C225.999 192.389 226.773 191.469 227.324 190.682C227.634 190.249 227.88 189.862 228.074 189.535C229.38 189.602 230.822 189.629 232.351 189.595C231.83 190.029 231.279 190.482 230.71 190.962C229.691 191.822 228.765 192.629 227.98 193.315C227.054 193.315 226.064 193.302 225.044 193.262ZM219.513 195.029C219.097 194.942 218.669 194.869 218.236 194.802C217.685 194.722 217.152 194.655 216.636 194.602C217.117 194.189 217.562 193.782 217.96 193.382C218.16 193.462 218.365 193.549 218.587 193.635C219.197 193.869 219.906 194.109 220.697 194.322C220.287 194.569 219.888 194.809 219.513 195.029ZM254.359 180.475C255.999 178.669 257.119 176.715 257.652 175.689C258.414 175.355 258.865 175.115 258.865 175.115C258.865 175.115 258.525 175.102 257.939 175.109C257.986 175.009 258.009 174.955 258.009 174.955C258.009 174.955 257.939 175.009 257.81 175.109C256.726 175.122 254.915 175.202 252.865 175.495C253.281 175.195 253.679 174.889 254.06 174.569C255.765 173.135 257.124 171.582 258.085 170.129C259.052 168.682 259.673 167.389 260.019 166.462C260.212 166.015 260.312 165.635 260.4 165.395C260.482 165.149 260.523 165.015 260.523 165.015C260.523 165.015 260.458 165.135 260.341 165.369C260.212 165.589 260.066 165.942 259.808 166.349C259.339 167.195 258.566 168.349 257.488 169.609C256.41 170.875 254.974 172.195 253.269 173.435C252.408 174.042 251.482 174.629 250.497 175.175C249.507 175.715 248.464 176.209 247.374 176.662C242.997 178.429 238.82 179.189 235.826 179.755C232.814 180.302 230.974 180.635 230.974 180.635C230.974 180.635 231.449 180.642 232.31 180.655C233.177 180.669 234.425 180.669 235.972 180.602C237.519 180.529 239.365 180.395 241.415 180.055C243.466 179.722 245.716 179.162 248.001 178.222C248.47 178.029 248.927 177.822 249.372 177.602C250.263 177.569 251.247 177.495 252.279 177.315C253.914 177.035 255.39 176.575 256.533 176.142C255.648 176.895 254.464 177.982 253.281 179.282C252.449 180.209 251.728 181.115 251.142 181.902C250.58 181.889 249.958 181.882 249.279 181.862C249.507 181.502 249.712 181.155 249.894 180.835C250.679 179.449 251.06 178.509 251.06 178.509C251.06 178.509 250.38 179.189 249.32 180.282C248.88 180.735 248.376 181.262 247.82 181.835C247.076 181.822 246.296 181.809 245.494 181.789C245.107 181.789 244.738 181.782 244.369 181.775C244.427 181.655 244.456 181.589 244.456 181.589C244.456 181.589 244.38 181.662 244.257 181.775C242.453 181.762 240.847 181.769 239.622 181.775C238.128 181.789 237.203 181.815 237.203 181.815C237.203 181.815 238.093 182.215 239.587 182.635C240.449 182.875 241.527 183.122 242.728 183.289C242.693 183.322 242.664 183.349 242.628 183.382C242.019 183.982 241.281 184.695 240.466 185.469C238.205 185.869 236.165 186.162 234.671 186.342C233.107 186.515 232.146 186.629 232.146 186.629C232.146 186.629 232.386 186.695 232.826 186.822C233.265 186.935 233.91 187.075 234.712 187.195C234.876 187.222 235.052 187.242 235.228 187.262C235.023 187.429 234.783 187.622 234.513 187.842C233.939 187.849 233.353 187.862 232.755 187.875C226.55 188.075 221.699 188.869 221.699 188.869C221.699 188.869 224.031 189.295 227.494 189.502C227.289 189.675 227.06 189.855 226.808 190.055C225.736 190.929 224.242 192.029 222.566 193.135C221.078 193.035 219.753 192.909 218.693 192.789C218.646 192.782 218.605 192.775 218.552 192.769C218.746 192.569 218.921 192.375 219.08 192.182C219.642 191.542 220.064 190.995 220.345 190.602C220.626 190.209 220.779 189.989 220.779 189.989C220.779 189.989 219.941 190.582 218.611 191.515C218.148 191.842 217.626 192.195 217.058 192.575C216.437 192.502 216.08 192.455 216.08 192.455C216.08 192.455 216.314 192.582 216.724 192.802C215.951 193.315 215.101 193.875 214.199 194.442C213.542 194.429 212.945 194.422 212.417 194.435C210.941 194.475 210.039 194.582 210.039 194.582C210.039 194.582 210.935 194.902 212.394 195.295C212.494 195.322 212.605 195.349 212.716 195.382C210.97 196.469 209.394 197.402 208.21 198.082C206.863 198.849 206.031 199.322 206.031 199.322C206.031 199.322 206.271 199.289 206.699 199.235C207.132 199.175 207.753 199.055 208.515 198.869C210.027 198.482 212.101 197.729 214.193 196.409C214.451 196.249 214.697 196.089 214.931 195.915C215.605 196.069 216.331 196.209 217.087 196.342C216.408 196.689 216.015 196.895 216.015 196.895C216.015 196.895 216.22 196.902 216.601 196.889C216.982 196.875 217.533 196.822 218.206 196.702C218.371 196.669 218.546 196.635 218.722 196.595C220.72 196.869 222.56 196.989 223.937 197.049C225.46 197.109 226.433 197.075 226.433 197.075C226.433 197.075 225.531 196.682 224.048 196.195C223.386 195.982 222.607 195.742 221.74 195.522C222.173 195.315 222.607 195.069 223.04 194.795C223.691 194.889 224.365 194.949 225.062 194.975C225.419 194.989 225.771 194.989 226.117 194.982C225.83 195.242 225.665 195.395 225.665 195.395C225.665 195.395 226.257 195.275 227.189 194.929C228.929 194.795 230.476 194.449 231.654 194.075C232.48 193.822 233.142 193.569 233.587 193.375C234.033 193.169 234.279 193.062 234.279 193.062C234.279 193.062 234.015 193.075 233.535 193.109C233.06 193.149 232.369 193.195 231.531 193.235C231.167 193.255 230.769 193.269 230.347 193.282C230.775 192.995 231.214 192.675 231.642 192.309C232.703 191.415 233.57 190.429 234.249 189.522C234.941 189.489 235.615 189.435 236.265 189.375C235.38 190.189 234.583 190.909 233.927 191.495C232.808 192.495 232.117 193.115 232.117 193.115C232.117 193.115 233.007 192.862 234.355 192.195C235.632 191.575 237.314 190.562 238.972 189.075C239.915 188.949 240.771 188.815 241.497 188.689C241.462 188.729 241.427 188.769 241.392 188.802C240.419 189.902 239.828 190.609 239.828 190.609C239.828 190.609 240.654 190.242 241.89 189.449C242.376 189.135 242.927 188.755 243.513 188.302C243.923 188.222 244.164 188.162 244.164 188.162C244.164 188.162 244.005 188.149 243.742 188.129C244.574 187.469 245.47 186.669 246.343 185.729C246.566 185.489 246.783 185.249 246.988 185.002C247.046 184.975 247.105 184.942 247.164 184.915C247.908 184.509 248.494 184.142 248.886 183.862C249.279 183.582 249.501 183.429 249.501 183.429C249.501 183.429 248.91 183.582 247.925 183.842C248.048 183.682 248.16 183.515 248.277 183.362C249.015 183.275 249.706 183.169 250.333 183.042C249.771 183.869 249.46 184.395 249.46 184.395C249.46 184.395 250.609 183.802 252.074 182.629C253.292 182.289 254.019 181.989 254.019 181.989C254.019 181.989 253.591 181.975 252.871 181.949C253.357 181.515 253.861 181.029 254.359 180.475ZM112.902 86.842C112.831 87.1754 112.761 87.5154 112.691 87.8687C112.58 88.362 112.498 88.882 112.41 89.4287C112.451 89.3887 112.509 89.342 112.55 89.302C112.808 89.062 113.042 88.9287 113.183 88.8154C113.33 88.7087 113.412 88.6487 113.412 88.6487C113.412 88.6487 113.347 88.7287 113.224 88.8687C113.107 89.022 112.914 89.202 112.714 89.4954C112.585 89.6554 112.445 89.8487 112.298 90.0687C112.298 90.0887 112.298 90.1087 112.292 90.1287C112.07 91.7287 111.894 93.4754 111.818 95.3154C111.748 97.1554 111.789 98.9087 111.882 100.502C111.947 101.302 111.994 102.062 112.087 102.769C112.158 103.475 112.263 104.135 112.357 104.735C112.433 105.342 112.562 105.875 112.65 106.362C112.726 106.842 112.826 107.249 112.908 107.589C113.06 108.262 113.142 108.635 113.142 108.635C113.142 108.635 112.984 108.302 112.697 107.702C112.55 107.402 112.374 107.029 112.21 106.575C112.04 106.122 111.818 105.615 111.648 105.029C111.466 104.442 111.255 103.795 111.097 103.082C110.91 102.375 110.769 101.602 110.634 100.782C110.388 99.142 110.23 97.2887 110.312 95.3354C110.318 95.1354 110.341 94.942 110.353 94.7487C109.902 96.682 109.703 98.9754 109.96 101.382C110.347 105.089 111.449 108.335 112.287 110.675C112.708 111.849 113.066 112.795 113.318 113.449C113.564 114.102 113.699 114.469 113.699 114.469C113.699 114.469 113.494 114.155 113.124 113.595C112.755 113.035 112.24 112.202 111.642 111.129C111.056 110.049 110.388 108.715 109.796 107.135C109.205 105.555 108.695 103.709 108.478 101.682C108.373 100.662 108.349 99.6554 108.408 98.682C108.478 97.7154 108.619 96.782 108.818 95.9154C109.234 94.182 109.873 92.702 110.581 91.602C110.634 91.5154 110.687 91.4487 110.746 91.362C110.833 90.8554 110.927 90.362 111.039 89.882C111.261 89.0687 111.437 88.282 111.695 87.5754C111.812 87.222 111.929 86.882 112.04 86.5554C112.169 86.2287 112.298 85.922 112.415 85.6287C112.644 85.0354 112.902 84.5287 113.124 84.082C113.335 83.6287 113.54 83.2487 113.722 82.9554C114.074 82.3554 114.273 82.022 114.273 82.022C114.273 82.022 114.15 82.3954 113.933 83.0687C113.822 83.3954 113.693 83.802 113.564 84.2887C113.429 84.762 113.259 85.2954 113.13 85.902C113.054 86.202 112.978 86.5154 112.902 86.842ZM166.087 133.895C165.636 134.762 165.384 135.242 165.384 135.242C165.384 135.242 165.554 134.729 165.865 133.802C166.169 132.869 166.667 131.542 167.33 129.915C168.607 126.835 170.622 122.709 173.429 118.515C173.277 118.682 173.124 118.855 172.966 119.035C171.021 121.182 169.269 123.122 167.997 124.529C167.353 125.235 166.831 125.809 166.468 126.202C166.099 126.595 165.894 126.809 165.894 126.809C165.894 126.809 166.023 126.542 166.269 126.055C166.515 125.562 166.89 124.869 167.382 124.029C168.372 122.342 169.884 120.089 171.865 117.869C173.845 115.649 175.896 113.909 177.449 112.762C177.759 112.542 178.035 112.342 178.298 112.162C178.357 112.089 178.415 112.015 178.474 111.949C180.015 110.242 181.456 108.755 182.74 107.589C183.367 106.995 183.964 106.489 184.486 106.049C185.001 105.595 185.458 105.222 185.845 104.929C186.601 104.335 187.023 104.002 187.023 104.002C187.023 104.002 186.66 104.402 186.003 105.122C185.675 105.475 185.271 105.915 184.82 106.435C184.369 106.949 183.841 107.522 183.285 108.189C182.154 109.482 180.865 111.082 179.464 112.862C178.081 114.669 176.605 116.675 175.111 118.822C173.628 120.975 172.281 123.075 171.08 125.009C169.896 126.955 168.865 128.735 168.027 130.255C167.593 131.009 167.242 131.715 166.908 132.315C166.58 132.922 166.304 133.455 166.087 133.895ZM260.101 144.062C260.042 144.549 260.013 144.822 260.013 144.822C260.013 144.822 259.96 144.562 259.867 144.095C259.785 143.629 259.632 142.962 259.445 142.142C259.052 140.502 258.408 138.282 257.476 135.909C257.007 134.715 256.515 133.602 256.035 132.595C255.537 131.602 255.08 130.702 254.64 129.969C254.435 129.595 254.23 129.269 254.054 128.982C253.878 128.682 253.72 128.435 253.585 128.235C253.328 127.829 253.181 127.602 253.181 127.602C253.181 127.602 253.386 127.762 253.755 128.049C254.119 128.335 254.628 128.795 255.214 129.409C255.806 130.022 256.445 130.829 257.083 131.782C257.71 132.749 258.326 133.882 258.824 135.149C259.826 137.682 260.148 140.182 260.177 141.962C260.195 142.849 260.154 143.569 260.101 144.062ZM256.632 128.942C256.427 128.609 256.316 128.415 256.316 128.415C256.316 128.415 256.492 128.529 256.802 128.755C257.113 128.975 257.54 129.329 258.033 129.822C259.023 130.789 260.236 132.389 261.044 134.475C261.847 136.562 262.046 138.635 262.011 140.089C261.988 140.822 261.929 141.409 261.859 141.809C261.794 142.209 261.753 142.422 261.753 142.422C261.753 142.422 261.706 142.215 261.624 141.835C261.554 141.462 261.431 140.915 261.267 140.249C260.945 138.922 260.423 137.135 259.685 135.209C259.31 134.249 258.929 133.349 258.554 132.522C258.162 131.715 257.798 130.975 257.458 130.375C257.13 129.769 256.843 129.275 256.632 128.942ZM216.384 68.8554C217.884 69.642 219.496 70.6087 221.095 71.782C224.3 74.1287 226.814 76.8087 228.46 78.8754C229.292 79.9154 229.919 80.782 230.335 81.4087C230.74 82.0287 230.968 82.3754 230.968 82.3754C230.968 82.3754 230.687 82.1021 230.177 81.6087C229.673 81.1087 228.923 80.4087 227.997 79.5487C226.128 77.8354 223.48 75.5687 220.363 73.2754C218.804 72.1354 217.281 71.0954 215.869 70.1754C214.445 69.282 213.15 68.4754 212.031 67.8487C211.474 67.5287 210.964 67.2554 210.513 67.0087C210.068 66.762 209.675 66.5554 209.353 66.3954C208.714 66.0554 208.357 65.8687 208.357 65.8687C208.357 65.8687 208.738 65.962 209.423 66.1354C210.109 66.3087 211.087 66.6087 212.283 67.042C213.478 67.4754 214.872 68.082 216.384 68.8554ZM211.831 64.0954C210.718 63.6554 210.015 63.382 210.015 63.382C210.015 63.382 210.203 63.3487 210.542 63.3087C210.882 63.2687 211.374 63.2354 211.978 63.2554C213.185 63.2887 214.867 63.5687 216.554 64.4087C218.236 65.2487 219.537 66.4487 220.363 67.422C220.773 67.9087 221.083 68.3287 221.277 68.6354C221.476 68.942 221.581 69.1154 221.581 69.1154C221.581 69.1154 220.96 68.7421 219.953 68.142C218.951 67.5554 217.562 66.782 215.986 65.9954C214.415 65.202 212.939 64.542 211.831 64.0954ZM155.212 30.662C157.872 31.662 159.994 33.2887 161.335 34.6354C162.015 35.3154 162.519 35.902 162.841 36.3354C163.164 36.762 163.339 37.002 163.339 37.002C163.339 37.002 163.111 36.842 162.701 36.5487C162.302 36.2487 161.699 35.8487 160.949 35.3687C159.449 34.422 157.31 33.2554 154.808 32.3154C153.554 31.8487 152.335 31.4687 151.205 31.1754C150.068 30.9087 149.031 30.682 148.14 30.5687C147.701 30.4954 147.296 30.462 146.939 30.422C146.581 30.3754 146.277 30.3487 146.019 30.3354C145.515 30.2954 145.234 30.2754 145.234 30.2754C145.234 30.2754 145.509 30.202 146.001 30.0687C146.253 30.002 146.558 29.9354 146.915 29.8754C147.279 29.822 147.689 29.742 148.146 29.7154C149.054 29.6154 150.15 29.622 151.357 29.742C152.564 29.8887 153.882 30.1687 155.212 30.662ZM138.285 31.1554C137.728 31.3287 137.423 31.422 137.423 31.422C137.423 31.422 137.699 31.242 138.191 30.9087C138.443 30.742 138.747 30.5487 139.117 30.3554C139.486 30.1487 139.902 29.9087 140.382 29.6954C141.331 29.2354 142.497 28.7954 143.822 28.4154C145.152 28.062 146.64 27.802 148.205 27.722C151.351 27.5887 154.152 28.262 156.062 28.9954C157.023 29.362 157.779 29.7087 158.283 29.9887C158.787 30.2687 159.068 30.422 159.068 30.422C159.068 30.422 158.769 30.362 158.23 30.2554C157.697 30.1287 156.917 29.9954 155.951 29.842C154.023 29.5487 151.339 29.3087 148.345 29.4354C146.845 29.502 145.41 29.642 144.103 29.8287C142.802 30.0354 141.613 30.2487 140.628 30.5087C140.13 30.6154 139.691 30.7487 139.298 30.862C138.9 30.962 138.56 31.062 138.285 31.1554ZM74.9916 16.562C71.6928 18.8154 68.8276 21.0487 66.7944 22.7687C65.7748 23.6287 64.9545 24.3354 64.4038 24.842C63.8354 25.342 63.5248 25.6154 63.5248 25.6154C63.5248 25.6154 63.7709 25.2754 64.2221 24.6687C64.6733 24.0487 65.3588 23.1954 66.2553 22.1687C68.0366 20.1287 70.7319 17.482 74.1303 15.1554C75.8295 13.9954 77.5288 13.0287 79.1225 12.242C80.7221 11.482 82.1928 10.8554 83.4584 10.4354C84.0854 10.2087 84.6655 10.042 85.1694 9.88871C85.6791 9.72871 86.1186 9.61538 86.4819 9.52871C87.2026 9.35538 87.6069 9.26204 87.6069 9.26204C87.6069 9.26204 87.2319 9.44871 86.5639 9.78204C86.2241 9.94204 85.8198 10.142 85.3452 10.3954C84.8823 10.6354 84.3432 10.8954 83.7631 11.222C82.5913 11.8354 81.226 12.6287 79.7319 13.5087C78.2495 14.4154 76.644 15.442 74.9916 16.562ZM84.812 12.8154C84.812 12.8154 83.3764 13.6487 81.0795 14.9887C79.937 15.662 78.6069 16.4954 77.142 17.422C75.6831 18.3687 74.0952 19.4154 72.4487 20.542C69.1616 22.802 66.267 24.9554 64.187 26.5754C62.1069 28.222 60.8237 29.2354 60.8237 29.2354C60.8237 29.2354 61.0873 28.9154 61.5561 28.3354C62.0307 27.7487 62.7456 26.9354 63.6655 25.9554C65.5053 24.002 68.2182 21.4554 71.5873 19.1354C73.269 17.982 74.9389 16.9954 76.4975 16.1687C78.0678 15.3687 79.5092 14.702 80.7456 14.222C81.9819 13.7287 82.9956 13.3687 83.7104 13.1554C84.4135 12.9354 84.812 12.8154 84.812 12.8154ZM8.49946 51.6287C8.82759 50.5354 9.20844 49.2354 9.57759 47.8154C9.69477 47.8354 9.8061 47.8554 9.92329 47.862C10.187 47.882 10.4389 47.882 10.685 47.8687C10.6791 47.8754 10.6791 47.8754 10.6791 47.882C10.2749 48.6487 9.87641 49.5954 9.47798 50.6754C9.36665 51.002 9.26118 51.342 9.16157 51.6887C8.93305 51.6554 8.7104 51.6354 8.49946 51.6287ZM13.3686 52.8554C13.351 52.8887 13.3393 52.9154 13.3217 52.9487C13.1225 53.4087 12.8588 54.082 12.5717 54.942C12.3432 55.602 12.1147 56.3887 11.9038 57.262C11.4116 56.8487 10.6674 56.3354 9.76509 56.022C9.84126 55.5487 9.92329 55.0687 10.0112 54.582C10.0815 54.2154 10.1459 53.8554 10.2163 53.4954C11.5405 53.5287 12.4956 53.282 12.4956 53.282C12.4956 53.282 11.7045 52.5487 10.5034 52.062C10.7963 50.602 11.101 49.282 11.3706 48.2154C11.4116 48.0687 11.4467 47.9354 11.476 47.802C12.1147 47.702 12.5776 47.5487 12.7592 47.482C12.8706 49.1954 13.0698 50.9887 13.3686 52.8554ZM9.05024 60.942C9.15571 60.0087 9.30805 58.8954 9.49555 57.6754C10.392 57.8754 11.1889 57.9287 11.7514 57.9287C11.5346 58.9287 11.353 60.0287 11.2416 61.1887C11.1362 61.162 11.0307 61.1354 10.9194 61.1087C10.269 60.9754 9.63618 60.9354 9.05024 60.942ZM15.6948 62.642C15.6245 62.9287 15.5483 63.2354 15.4838 63.562C15.3842 63.4554 14.9624 63.0554 14.2827 62.5754C13.8549 62.282 13.3159 61.9687 12.7006 61.6954C12.8999 59.1687 13.1049 56.8554 13.3041 55.1354C13.3745 54.5154 13.4331 53.982 13.4858 53.542C13.9135 56.042 14.5053 58.662 15.2788 61.342C15.4077 61.7687 15.5541 62.2087 15.6948 62.642ZM12.5893 63.162C13.1459 63.262 13.6557 63.342 14.0834 63.4087C14.8393 63.5154 15.3491 63.5754 15.4838 63.5887C15.3725 64.1287 15.2729 64.7154 15.185 65.342C15.1147 65.942 15.0561 66.5687 15.0268 67.2287C14.7221 67.1287 14.4057 67.0287 14.0893 66.942C13.4975 66.782 12.9174 66.6554 12.3666 66.5554C12.4252 65.522 12.5014 64.382 12.5893 63.162ZM17.1245 66.6487C17.1127 67.022 17.1069 67.482 17.1069 68.022C16.9077 67.9354 16.6967 67.842 16.4799 67.7554C16.4565 66.742 16.4506 65.7754 16.4624 64.882C16.6733 65.4687 16.8901 66.062 17.1245 66.6487ZM17.1245 69.3554C17.1596 70.562 17.2358 71.9887 17.3881 73.5354C17.1596 73.4687 16.937 73.4087 16.7143 73.3487C16.6323 72.122 16.562 70.7287 16.5151 69.2487C16.726 69.2887 16.9311 69.322 17.1245 69.3554ZM21.7768 77.3287C21.8647 78.802 22.0639 80.7154 22.4565 82.7887C21.812 82.5287 21.2143 82.2887 20.687 82.0754C20.3999 81.9554 20.1362 81.8554 19.8901 81.7554C19.7377 80.0954 19.5209 78.062 19.1928 75.8687C20.1596 76.1354 21.0327 76.3287 21.7358 76.462C21.7475 76.7287 21.7592 77.0154 21.7768 77.3287ZM26.9506 84.0487C26.9623 84.262 26.9799 84.482 26.9975 84.7087C26.6987 84.5754 26.3999 84.4487 26.0893 84.3087C25.4155 84.0154 24.7651 83.7421 24.1323 83.482C23.6401 81.3754 23.1303 79.442 22.7143 77.8954C22.9663 78.3087 23.2124 78.722 23.476 79.1287C24.5834 80.862 25.7553 82.4954 26.9506 84.0487ZM18.6362 70.302C19.3803 71.9154 20.2006 73.5287 21.0854 75.1154C20.4526 74.7687 19.7202 74.402 18.9116 74.0754C18.6245 72.3754 18.3198 70.8154 18.0502 69.502C18.1381 69.5154 18.226 69.5287 18.3081 69.542C18.4194 69.7954 18.5249 70.0487 18.6362 70.302ZM243.501 192.002C239.751 194.035 235.755 195.535 231.665 196.642C229.621 197.195 227.546 197.649 225.46 198.035C224.412 198.222 223.369 198.395 222.314 198.555C221.265 198.715 220.205 198.809 219.15 198.935C210.706 199.935 202.164 199.935 193.685 199.049C190.304 198.695 186.935 198.189 183.589 197.562C185.253 197.355 187.544 196.782 189.871 195.502C191.037 194.849 192.097 194.089 193.005 193.329C193.914 192.542 194.675 191.775 195.273 191.075C195.876 190.375 196.328 189.775 196.621 189.342C196.908 188.909 197.066 188.662 197.066 188.662C197.066 188.662 196.849 188.835 196.456 189.149C196.07 189.462 195.496 189.895 194.792 190.415C194.089 190.942 193.228 191.515 192.285 192.135C191.324 192.742 190.275 193.375 189.15 193.989C186.912 195.222 184.837 196.149 183.308 196.749C182.798 196.949 182.365 197.115 181.996 197.249C169.081 194.662 156.437 190.122 144.408 184.069C142.456 183.069 140.523 182.015 138.583 180.995L132.859 177.689L127.24 174.142C125.382 172.929 123.531 171.675 121.685 170.415C117.988 167.889 114.279 165.322 110.447 162.949C108.531 161.762 106.58 160.629 104.593 159.569C102.607 158.515 100.591 157.542 98.5756 156.615C94.5502 154.749 90.5073 153.069 86.6049 151.089C84.6245 150.155 82.7026 149.075 80.7573 148.055C79.7905 147.529 78.8413 146.962 77.8803 146.422C76.9252 145.875 75.9643 145.329 75.0327 144.742L72.2026 143.002C71.2651 142.409 70.3452 141.782 69.4194 141.175C67.5444 139.989 65.7514 138.649 63.9233 137.382C60.3315 134.722 56.7631 132.002 53.3588 129.035C46.4858 123.202 40.0815 116.669 34.0815 109.695L31.8842 107.029L30.7827 105.695L29.7104 104.322L27.4956 101.469C27.3666 101.322 27.1909 101.195 27.062 101.075L26.0952 100.235L24.812 99.1087L24.2436 98.6154L23.7631 98.042L22.6557 96.7087C21.9116 95.8287 21.2026 94.9154 20.4702 94.022L18.3432 91.282L16.2866 88.4887C13.603 84.722 11.1362 80.762 9.11469 76.5487C7.09907 72.3487 5.53461 67.8687 4.79047 63.2287C4.66157 62.6554 4.64399 62.062 4.57368 61.482L4.39204 59.7287C4.3686 59.142 4.3686 58.562 4.35688 57.9754C4.35688 57.3887 4.30415 56.802 4.35102 56.2154L4.47993 54.462C4.52094 53.882 4.55024 53.2954 4.64399 52.722C4.72602 52.142 4.80805 51.562 4.9311 50.9954L5.09516 50.1354L5.30024 49.2887C6.4018 44.762 8.38813 40.5154 10.9311 36.7554C11.7807 35.4887 12.6948 34.2954 13.6616 33.142C13.6147 33.382 13.5737 33.622 13.5268 33.8887C13.4155 34.542 13.2866 35.262 13.1459 36.0554C13.0581 36.862 12.9584 37.7354 12.853 38.6687C12.6889 40.542 12.5952 42.6887 12.6479 45.062C12.6596 45.8087 12.7006 46.582 12.7475 47.3687C12.5952 47.2354 12.2436 46.962 11.769 46.702C11.81 46.5354 11.8569 46.3754 11.892 46.242C12.0209 45.762 12.0913 45.502 12.0913 45.502C12.0913 45.502 11.9448 45.722 11.687 46.122C11.6049 46.2354 11.517 46.3754 11.4233 46.5287C11.0131 46.3487 10.5327 46.1954 10.0053 46.1554C9.99946 46.1487 9.9936 46.1554 9.98774 46.1554C10.3334 44.6887 10.6088 43.3487 10.8256 42.2954C11.1127 40.902 11.2651 39.9954 11.2651 39.9954C11.2651 39.9954 10.7729 40.7154 10.1284 41.9754C9.57173 43.062 8.90961 44.582 8.39985 46.342C7.56782 46.5954 6.99946 46.9887 6.99946 46.9887C6.99946 46.9887 7.43891 47.2287 8.10688 47.4687C7.73188 49.0287 7.55024 50.4887 7.47407 51.6887C6.37251 51.8354 5.59321 52.2154 5.59321 52.2154C5.59321 52.2154 6.33149 52.642 7.42133 53.002C7.40376 54.1354 7.46821 54.8154 7.46821 54.8154C7.46821 54.8154 7.69087 54.1954 8.01313 53.182C8.24165 53.242 8.48188 53.2954 8.72212 53.342C8.6518 53.6554 8.58735 53.982 8.52876 54.302C8.44087 54.782 8.37641 55.2554 8.32368 55.7154C6.88813 55.5954 5.73383 55.982 5.73383 55.982C5.73383 55.982 6.75337 56.7287 8.19477 57.282C8.1186 58.702 8.18305 59.9687 8.28852 60.982C7.92524 61.0154 7.5854 61.062 7.29243 61.1287C6.35493 61.322 5.78657 61.582 5.78657 61.582C5.78657 61.582 6.36079 61.7487 7.25727 61.982C7.60883 62.0754 8.01899 62.182 8.45844 62.2887C8.50532 62.5687 8.55219 62.822 8.59321 63.022C8.69282 63.4754 8.74555 63.7287 8.74555 63.7287C8.74555 63.7287 8.79829 63.2354 8.89204 62.3954C9.45454 62.5287 10.0522 62.6687 10.685 62.802C10.8374 62.8354 10.978 62.862 11.1186 62.8887C11.0776 64.142 11.1186 65.3154 11.2065 66.3754C8.96235 66.082 7.32758 66.1954 7.32758 66.1954C7.32758 66.1954 8.99165 67.0354 11.3764 67.8687C11.4174 68.1754 11.4643 68.4687 11.5112 68.742C11.6577 69.602 11.81 70.2887 11.9331 70.7487C12.062 71.2154 12.1264 71.4754 12.1264 71.4754C12.1264 71.4754 12.144 71.1954 12.1674 70.6954C12.1791 70.2087 12.2143 69.4887 12.2553 68.622C12.2612 68.4754 12.267 68.322 12.2788 68.1754C12.7592 68.3287 13.2631 68.482 13.7846 68.622C14.2006 68.7354 14.6049 68.8354 15.0034 68.9287C15.0034 68.9887 15.0034 69.0487 15.0034 69.1087C15.0502 70.5554 15.2319 71.8887 15.4721 73.0754C13.3276 72.662 11.7221 72.7287 11.7221 72.7287C11.7221 72.7287 13.4506 73.762 15.8764 74.742C15.976 75.082 16.0698 75.3954 16.1635 75.6887C16.4331 76.482 16.6791 77.102 16.8725 77.522C17.06 77.942 17.1655 78.1687 17.1655 78.1687C17.1655 78.1687 17.0541 77.1154 16.8842 75.4287C16.8725 75.3354 16.8666 75.222 16.8549 75.122C17.0893 75.2087 17.3237 75.2887 17.5639 75.3687C17.5756 75.3754 17.5874 75.382 17.6049 75.3887C17.6401 75.6287 17.6694 75.8754 17.7104 76.122C17.9975 78.062 18.3842 79.8354 18.7592 81.322C18.5014 81.222 18.3608 81.1687 18.3608 81.1687C18.3608 81.1687 18.5249 81.3287 18.8295 81.5954C18.9819 82.1754 19.1284 82.7087 19.269 83.182C19.7905 84.9354 20.1889 85.9754 20.1889 85.9754C20.1889 85.9754 20.1479 84.802 19.9956 82.9487C19.9838 82.8154 19.9721 82.6754 19.9604 82.5354C20.0834 82.6354 20.2182 82.7354 20.3588 82.8487C21.0268 83.3554 21.8647 83.9354 22.8198 84.502C23.4409 87.1354 24.267 89.3954 24.9409 90.9754C25.6264 92.5754 26.1362 93.4954 26.1362 93.4954C26.1362 93.4954 25.9663 92.382 25.6381 90.6354C25.3686 89.242 25.0229 87.4487 24.5834 85.4554C24.9174 85.622 25.2573 85.7821 25.6088 85.9354C26.1362 86.162 26.6518 86.362 27.1498 86.5354C27.2495 87.522 27.3725 88.582 27.5366 89.6887C28.228 94.362 29.3237 97.9287 29.3237 97.9287C29.3237 97.9287 29.7045 94.022 29.0131 89.3487C28.8901 88.522 28.7436 87.7354 28.5854 86.9887C28.8959 87.0754 29.2006 87.1554 29.4936 87.222C30.4428 88.362 31.4213 89.4154 32.3706 90.462C32.4526 90.5554 32.5405 90.642 32.6225 90.722C32.6459 91.1887 32.6811 91.7487 32.7338 92.402C32.8862 94.2687 33.2495 96.8354 33.9877 99.5287C34.726 102.215 35.6811 104.495 36.4545 106.075C37.228 107.655 37.7963 108.555 37.7963 108.555C37.7963 108.555 37.5561 107.442 37.1342 105.695C36.7065 103.949 36.1206 101.569 35.4057 98.9554C34.6967 96.342 33.9877 93.962 33.4663 92.2154C33.3725 91.8887 33.2846 91.6021 33.1967 91.322C33.9467 92.0954 34.685 92.8554 35.435 93.562C38.0424 96.1021 40.5971 98.2887 42.976 100.182C42.9526 100.449 42.9291 100.769 42.9233 101.149C42.9116 101.535 42.894 101.975 42.9057 102.462C42.9057 103.442 42.9995 104.595 43.1635 105.869C43.3452 107.135 43.6264 108.509 44.0483 109.902C44.892 112.682 46.1225 114.942 47.1245 116.422C47.6284 117.169 48.062 117.742 48.3784 118.115C48.6948 118.489 48.8706 118.689 48.8706 118.689C48.8706 118.689 48.7592 118.422 48.56 117.942C48.3549 117.475 48.0795 116.782 47.7456 115.935C47.0717 114.242 46.2456 111.902 45.4487 109.275C45.0561 107.955 44.7045 106.689 44.394 105.515C44.1069 104.342 43.8373 103.269 43.6498 102.349C43.4858 101.569 43.3569 100.909 43.2631 100.402C44.476 101.362 45.6479 102.249 46.7495 103.062C50.101 105.515 52.8784 107.335 54.8061 108.555C56.7456 109.755 57.812 110.415 57.812 110.415C57.812 110.415 56.769 109.662 54.8823 108.295C53.0014 106.922 50.2944 104.895 47.0366 102.255C43.7846 99.6021 39.9877 96.3154 36.0678 92.2754C34.6616 90.842 33.2436 89.2954 31.8373 87.6554C32.2885 87.7154 32.6635 87.7554 32.9506 87.7687C33.3608 87.7954 33.5834 87.8087 33.5834 87.8087C33.5834 87.8087 32.7338 87.3687 31.3745 86.7287C31.2104 86.6487 31.0346 86.5687 30.8588 86.4887C29.5639 84.922 28.2807 83.2754 27.0327 81.542C26.9038 81.1887 26.8217 80.9954 26.8217 80.9954C26.8217 80.9954 26.8276 81.0887 26.8276 81.2487C26.0366 80.142 25.2573 79.0087 24.5014 77.8287C22.8139 75.1754 21.3256 72.4554 20.019 69.722C20.2124 69.7421 20.3178 69.7487 20.3178 69.7487C20.3178 69.7487 20.1655 69.642 19.8959 69.4754C19.8549 69.3954 19.8139 69.3154 19.7788 69.242C18.5073 66.522 17.4702 63.7887 16.5795 61.1287C16.5971 60.8554 16.6088 60.6087 16.6264 60.4087C16.6499 59.9154 16.6616 59.642 16.6616 59.642C16.6616 59.642 16.5678 59.8887 16.3979 60.342C16.3803 60.3754 16.3686 60.4154 16.3569 60.4487C14.5991 54.7954 13.644 49.422 13.3979 44.8487C13.2514 42.542 13.2573 40.442 13.3393 38.602C13.3979 37.682 13.4565 36.822 13.5092 36.0354C13.603 35.2487 13.6909 34.5287 13.767 33.882C13.8081 33.562 13.8432 33.2554 13.8784 32.962C13.8901 32.922 13.8959 32.8887 13.9018 32.8487C15.7592 30.6687 17.81 28.682 19.9838 26.882C23.3881 24.042 27.0971 21.6487 30.9233 19.522C34.767 17.3954 38.7221 15.4887 42.7299 13.782C44.7163 12.8887 46.7553 12.1487 48.7827 11.3554L51.8471 10.2954L53.3823 9.76871L54.935 9.30871C63.185 6.77538 71.687 5.28871 80.2006 5.16204C84.4545 5.10871 88.7026 5.48871 92.9038 6.17538C94.9838 6.62871 97.0873 7.00204 99.1264 7.66204C100.152 7.96871 101.189 8.21538 102.185 8.62871L105.249 9.76871L105.484 9.84871C105.947 9.98871 106.415 10.1687 106.831 10.3687C106.503 10.502 106.158 10.622 105.794 10.722C105.542 10.802 105.302 10.8554 105.056 10.9154L104.23 11.0954L102.583 11.442C102.033 11.562 101.482 11.662 100.937 11.802L99.2905 12.2487C94.9135 13.442 90.6127 15.0154 86.476 17.042C82.3452 19.0687 78.3608 21.4687 74.5698 24.2087C73.6381 24.922 72.6772 25.5887 71.7631 26.3354L69.0385 28.5887L66.4077 30.982C65.5229 31.7687 64.7143 32.662 63.8647 33.4954C60.5366 36.922 57.4487 40.6554 54.6596 44.662L52.6381 47.722C51.976 48.7487 51.3432 49.822 50.7397 50.9154C49.5385 53.1087 48.478 55.4754 47.8393 58.0554C47.5229 59.342 47.312 60.6687 47.2651 62.042C47.2182 63.4087 47.3354 64.7754 47.6108 66.102C48.1498 68.7554 49.4155 71.3287 51.4311 73.0354C51.6831 73.2487 51.9526 73.4287 52.2104 73.6287L53.0424 74.0954L53.4643 74.322L53.9038 74.4887C54.2026 74.5887 54.4956 74.7154 54.7944 74.7887C56.0073 75.0954 57.2495 75.1087 58.4448 74.942C60.8237 74.5287 62.9916 73.4554 64.9545 72.142C66.9233 70.8287 68.7456 69.302 70.4799 67.702C72.2202 66.122 73.9135 64.5554 75.6538 63.022C77.4233 61.5287 79.1459 59.9754 80.9565 58.5554L83.6459 56.3887L86.3881 54.2954C88.1987 52.882 90.0795 51.5887 91.937 50.2487C92.8569 49.5687 93.8237 48.962 94.7612 48.322C95.7104 47.6887 96.6479 47.0354 97.6088 46.4287L100.498 44.6087L101.939 43.702L103.398 42.842L106.328 41.122C107.312 40.5554 108.302 40.0287 109.292 39.4754C113.242 37.2887 117.29 35.3287 121.357 33.442C125.453 31.6354 129.572 29.882 133.767 28.3954C135.853 27.6087 137.968 26.9287 140.078 26.2354C141.126 25.8687 142.193 25.5687 143.253 25.2554L144.853 24.782L145.644 24.5487C145.89 24.482 146.113 24.3954 146.341 24.3554L147.05 24.502L147.847 24.6954C148.38 24.8354 148.914 24.9687 149.441 25.1287C149.968 25.2754 150.496 25.442 151.017 25.622C151.544 25.7887 152.066 25.9687 152.587 26.162C154.662 26.9287 156.712 27.802 158.693 28.8554C162.818 30.982 166.023 33.3087 168.361 35.1687C168.935 35.6554 169.456 36.102 169.931 36.4954C170.171 36.6954 170.4 36.882 170.617 37.0554C170.833 37.2287 171.021 37.422 171.203 37.5754C171.542 37.8887 171.841 38.142 172.105 38.342C172.076 38.362 172.04 38.3754 171.999 38.402C171.824 38.4887 171.578 38.6554 171.314 38.9154C171.039 39.162 170.769 39.5354 170.517 39.982C170.435 40.142 170.365 40.3154 170.294 40.502C169.714 40.722 169.029 41.0087 168.22 41.3754C155.072 47.442 142.287 56.842 131.341 69.3954C130.667 70.1887 129.994 70.9887 129.32 71.7887C128.64 72.582 128.007 73.4287 127.345 74.2554C126.027 75.902 124.755 77.642 123.537 79.4687C121.123 83.1154 118.896 87.202 117.642 91.9487C117.49 92.542 117.337 93.1354 117.232 93.7487C117.167 94.0554 117.103 94.3554 117.05 94.662L116.915 95.5954C116.816 96.2087 116.775 96.842 116.722 97.4754L116.687 97.9487L116.675 98.4687C116.664 98.8154 116.664 99.162 116.687 99.4954C116.804 102.089 117.378 104.635 118.691 107.015C118.749 107.329 118.814 107.622 118.884 107.889C118.984 108.269 119.078 108.609 119.16 108.902C119.265 109.182 119.353 109.422 119.423 109.615C119.57 109.995 119.64 110.195 119.64 110.195C119.64 110.195 119.587 109.982 119.482 109.575C119.429 109.375 119.365 109.129 119.289 108.835C119.236 108.529 119.171 108.182 119.101 107.789C119.095 107.762 119.095 107.729 119.089 107.702C119.804 108.809 120.736 109.862 121.955 110.615C122.617 111.029 123.361 111.329 124.123 111.489C124.498 111.602 124.89 111.595 125.277 111.635L125.564 111.649L125.751 111.655L126.132 111.649C127.14 111.642 128.148 111.635 129.162 111.629C130.462 111.615 131.763 111.602 133.07 111.595C134.558 110.369 136.052 109.142 137.546 107.909C138.812 106.895 140.083 105.875 141.349 104.855C143.904 102.835 146.482 100.822 149.083 98.842C154.298 94.8687 159.613 90.982 165.039 87.1887C175.884 79.6087 187.14 72.4154 198.759 65.7087C200.212 64.882 201.66 64.0554 203.119 63.2287C204.542 62.4287 205.914 61.7287 207.238 61.2287C208.556 60.7354 209.822 60.442 210.999 60.4554C212.177 60.4754 213.408 60.7687 214.673 61.302C215.939 61.8487 217.222 62.6154 218.517 63.522C219.156 63.9687 219.812 64.462 220.468 64.9754C221.136 65.4754 221.775 66.0087 222.425 66.5287C224.986 68.6487 227.429 70.942 229.662 73.462C231.906 75.9687 233.945 78.6954 235.773 81.6087C236.007 81.962 236.218 82.342 236.447 82.7087C236.476 82.762 236.458 82.7287 236.47 82.7487L236.494 82.7754C236.523 82.782 236.458 82.802 236.4 82.822L236.224 82.8887L231.999 84.3887C230.365 84.9954 228.753 85.6887 227.136 86.3354C225.531 87.0287 223.937 87.7754 222.337 88.4954L217.626 90.882C205.169 97.5287 193.632 106.422 183.624 117.115L181.761 119.129C181.14 119.802 180.554 120.515 179.951 121.209L178.152 123.302L176.417 125.462L174.695 127.635C174.109 128.402 173.523 129.215 172.966 130.089C171.865 131.849 170.787 133.869 170.306 136.489C170.078 137.789 170.042 139.235 170.306 140.629C170.564 142.009 171.08 143.382 171.841 144.502C172.591 145.629 173.511 146.509 174.455 147.189C175.398 147.875 176.382 148.349 177.361 148.702C179.324 149.415 181.275 149.655 183.238 149.609C185.078 149.509 186.882 149.262 188.652 148.855C190.415 148.422 192.132 147.875 193.796 147.215C195.449 146.535 197.066 145.789 198.63 144.962C201.759 143.309 204.712 141.442 207.589 139.569C210.472 137.689 213.279 135.882 216.15 134.142C219.009 132.395 221.898 130.789 224.816 129.282C227.74 127.822 230.693 126.469 233.687 125.355C234.437 125.055 235.193 124.842 235.949 124.575C236.699 124.322 237.449 124.069 238.21 123.875L240.49 123.255L242.781 122.782C245.839 122.242 248.915 121.882 251.962 122.062L253.111 122.095L254.242 122.229C254.997 122.329 255.759 122.375 256.503 122.515L259.216 123.089L260.171 123.289L260.289 123.315C260.33 123.315 260.353 123.275 260.388 123.262L260.47 123.195C265.703 135.715 267.824 149.689 266.787 163.035C266.652 164.795 266.429 166.495 266.054 168.102C265.679 169.709 265.128 171.162 264.372 172.549C262.855 175.335 260.622 177.735 258.314 180.115C253.714 184.875 248.892 189.142 243.501 192.002ZM100.697 17.8687C100.556 18.082 100.433 18.2954 100.322 18.5087C100.304 18.5154 100.292 18.522 100.269 18.5287C100.374 17.8887 100.374 17.442 100.374 17.442C100.374 17.442 99.6655 18.042 98.9038 19.0554C98.8686 19.0687 98.8393 19.0754 98.8041 19.0887C98.3647 19.2554 97.8959 19.442 97.4096 19.6287C97.5385 19.042 97.603 18.5087 97.6264 18.102C98.4233 17.8487 99.2202 17.6087 100.017 17.3887C100.474 17.262 100.925 17.1354 101.376 17.0154C101.148 17.2687 100.914 17.5487 100.697 17.8687ZM103.081 18.5687C103.228 18.482 103.374 18.4087 103.515 18.3287C103.105 19.0287 102.865 19.7487 102.765 20.302C102.706 20.6087 102.677 20.862 102.665 21.0487C101.148 21.662 99.3081 22.4354 97.228 23.3954C97.7377 23.0687 98.7221 22.3354 99.4135 21.122C99.4604 21.0354 99.4956 20.9487 99.5424 20.862C99.5131 21.022 99.5073 21.122 99.5073 21.122C99.5073 21.122 99.8764 20.9087 100.351 20.5354C100.708 20.2487 101.13 19.882 101.517 19.4087C102.074 19.1087 102.601 18.8287 103.081 18.5687ZM85.4741 29.5354C82.5678 31.242 79.5151 33.1754 76.4038 35.3087C76.4682 35.262 76.5268 35.2154 76.5913 35.1687C79.0873 33.3887 81.853 31.4554 84.8002 29.5087C87.7534 27.562 90.6127 25.7687 93.2377 24.1687C93.6948 23.902 94.1401 23.6354 94.5854 23.3687C94.4565 23.942 94.4155 24.322 94.4155 24.322C94.4155 24.322 95.3998 23.6487 96.2553 22.3887C96.6596 22.1554 97.0522 21.922 97.4389 21.6954C97.0756 22.6554 96.9233 23.402 96.8998 23.5487C96.8061 23.5887 96.7182 23.6287 96.6303 23.6687C93.3842 25.1887 89.5756 27.1354 85.4741 29.5354ZM53.4995 62.9287C53.3881 64.742 53.3647 66.6354 53.9623 68.2754C54.1147 68.7087 54.3198 69.1087 54.56 69.4754C54.478 69.4354 54.4018 69.3887 54.3315 69.3354C54.0678 69.1354 53.8041 68.922 53.5698 68.6487C53.0952 68.122 52.6674 67.4487 52.3569 66.6487C52.2983 66.5087 52.2514 66.362 52.2045 66.2087C52.2573 64.182 52.7377 61.602 53.9389 58.882C53.9623 58.8354 53.9858 58.782 54.0092 58.7354C53.7748 60.0487 53.5873 61.4554 53.4995 62.9287ZM85.351 23.802C80.8627 26.6354 74.6752 30.6487 68.6459 36.202C63.3256 41.0687 59.2065 46.402 56.5288 50.9087C56.6342 50.342 56.6928 50.0154 56.6928 50.0154C56.6928 50.0154 56.5463 50.3554 56.2768 50.9687C56.1362 51.302 55.9721 51.7087 55.7905 52.1954C55.6909 52.3687 55.5913 52.5487 55.4975 52.722C55.2456 53.182 55.017 53.622 54.8002 54.0487C54.6831 54.2154 54.6186 54.302 54.6186 54.302C54.6186 54.302 54.6655 54.2487 54.7416 54.162C53.8276 55.9487 53.1655 57.4754 52.7202 58.6154C52.4272 59.322 52.2397 59.8954 52.0932 60.2754C51.9584 60.6554 51.8823 60.8554 51.8823 60.8554C51.8823 60.8554 51.976 60.662 52.1577 60.2954C52.3393 59.9354 52.5795 59.382 52.9428 58.702C53.3061 57.982 53.7748 57.102 54.3491 56.1087C53.9038 56.962 53.5112 57.8087 53.1948 58.662C52.3334 60.9887 51.9467 63.162 51.8764 64.9954C51.6245 63.782 51.56 62.4687 51.7358 61.222C52.2338 57.282 54.4897 53.242 57.1674 49.3087C59.7866 45.3754 62.6987 41.6887 65.8803 38.3154C72.2788 31.6087 79.6616 26.0887 87.6479 22.1087C88.3276 21.7754 89.0131 21.4554 89.6987 21.1487C88.5268 21.842 87.0561 22.7354 85.351 23.802ZM93.3725 19.5954C93.267 19.7687 93.1674 19.9487 93.0737 20.1354C92.7983 20.7087 92.6284 21.2687 92.517 21.7687C92.0541 21.9954 91.5913 22.222 91.1108 22.4554C89.6108 23.1554 88.0698 24.0487 86.4291 24.9287C83.9155 26.382 81.2612 28.062 78.5834 29.9554C81.2612 27.862 83.7338 26.0354 85.8139 24.482C87.9526 22.9087 89.6811 21.6287 90.8764 20.742C91.0112 20.642 91.1342 20.5487 91.2573 20.462C91.9604 20.162 92.6635 19.8754 93.3725 19.5954ZM93.3315 22.5354C93.3432 22.522 93.3549 22.5087 93.3666 22.4954C93.4897 22.422 93.6186 22.3487 93.7358 22.282C94.2104 22.0354 94.6616 21.7954 95.1069 21.562C95.0952 21.5887 95.0834 21.6087 95.0776 21.6354C94.5092 21.922 93.9233 22.222 93.3315 22.5354ZM69.5307 39.422C67.8139 41.0154 66.4604 42.3354 65.5522 43.2754C65.2416 43.5887 64.9897 43.8554 64.7788 44.0687C63.2963 45.3087 61.8842 46.5687 60.5952 47.8687C58.9194 49.542 57.4311 51.302 56.1948 53.082C56.6694 52.3354 57.1909 51.562 57.7592 50.762C57.8998 50.6087 58.0522 50.4487 58.2045 50.282C58.9838 49.462 59.8334 48.482 60.8413 47.4887C61.8315 46.4754 62.9038 45.3554 64.1166 44.2154C65.2944 43.042 66.6069 41.8554 67.9838 40.5954C69.9819 38.822 72.1616 36.9554 74.4995 35.0954C72.6069 36.6487 70.937 38.122 69.5307 39.422ZM98.1889 20.122C97.8491 20.282 97.4916 20.4487 97.1342 20.622C97.1518 20.5754 97.1635 20.5287 97.1811 20.482C97.5678 20.2887 97.9428 20.102 98.3061 19.9287C98.2651 19.9887 98.2299 20.0554 98.1889 20.122ZM96.7944 18.362C96.4194 18.8887 95.9799 19.582 95.5932 20.3887C95.4877 20.4287 95.394 20.4687 95.2885 20.5154C95.0073 20.642 94.7143 20.7687 94.4213 20.8954C94.7377 20.2354 94.9194 19.5554 95.0424 18.9687C95.6225 18.762 96.2084 18.562 96.7944 18.362ZM170.019 42.9354C169.902 42.9754 169.761 43.0154 169.609 43.0687C169.708 42.622 169.744 42.3287 169.744 42.3287C169.744 42.3287 169.392 42.5487 168.912 42.9887C168.759 43.122 168.601 43.2887 168.437 43.4687C168.238 43.542 168.027 43.622 167.816 43.702C167.874 43.462 167.904 43.322 167.904 43.322C167.904 43.322 167.552 43.5487 167.054 44.002C166.298 44.3087 165.46 44.6754 164.57 45.1154C164.576 45.0954 164.576 45.0687 164.576 45.0487C166.685 43.842 168.437 42.8887 169.744 42.0887C169.826 42.042 169.902 41.9954 169.984 41.9487C169.966 42.2954 169.978 42.6287 170.019 42.9354ZM171.835 44.8087C171.742 44.8754 171.548 45.002 171.261 45.1954C171.255 45.162 171.255 45.1354 171.255 45.0954C171.238 44.882 171.238 44.5754 171.249 44.2287C171.255 44.102 171.267 43.962 171.273 43.8287C171.279 43.8487 171.279 43.8687 171.29 43.882C171.46 44.2154 171.642 44.522 171.835 44.8087ZM119.915 101.382C119.763 100.635 119.687 99.8754 119.664 99.1154C120.226 96.8954 121.128 94.482 122.353 92.0287C122.388 91.9554 122.429 91.8887 122.464 91.8154C122.277 92.2954 122.101 92.7754 121.943 93.2287C121.169 95.4287 120.695 97.262 120.419 98.5354C120.273 99.1687 120.197 99.6687 120.132 100.002C120.068 100.335 120.033 100.515 120.033 100.515C120.033 100.515 120.091 100.342 120.197 100.015C120.302 99.6887 120.437 99.1954 120.654 98.582C121.064 97.3487 121.72 95.5887 122.664 93.4954C124.521 89.2954 127.738 83.9154 131.992 78.5887C135.765 73.842 139.609 69.822 142.609 66.702C144.367 65.1687 146.042 63.7087 147.613 62.3354C147.179 63.5687 146.962 64.3554 146.962 64.3554C146.962 64.3554 148.398 62.842 149.845 60.3887C150.542 59.782 151.21 59.1954 151.843 58.642C151.89 58.6087 151.931 58.5687 151.978 58.5354C151.626 59.442 151.398 60.1687 151.263 60.5954C147.355 64.042 143.189 67.9954 139.029 72.3687C134.962 76.6954 131.13 80.882 128.212 85.2887C125.271 89.6554 123.373 94.2687 122.693 98.3554C122.019 101.995 122.382 105.149 123.091 107.269C122.769 107.035 122.464 106.769 122.195 106.455C121.011 105.129 120.29 103.269 119.915 101.382ZM145.339 58.8087C145.07 59.182 144.794 59.5687 144.531 59.982C144.144 60.5954 143.81 61.1954 143.511 61.7754C142.826 62.422 142.111 63.1354 141.355 63.9087C140.007 65.3154 138.583 66.9087 137.177 68.662C136.667 69.302 136.187 69.9287 135.718 70.562C135.542 70.7154 135.367 70.8687 135.191 71.022C132.964 72.9887 130.808 74.882 128.851 76.802C129.349 76.142 129.853 75.482 130.357 74.8287C134.892 68.9887 139.919 63.622 145.339 58.8087ZM151.89 53.4154C151.574 53.9287 151.21 54.5287 150.835 55.1954C149.482 56.3087 148.275 57.402 147.214 58.4154C147.46 57.922 147.677 57.462 147.865 57.0554C147.976 56.8087 148.076 56.582 148.164 56.3754C149.388 55.3554 150.63 54.3754 151.89 53.4154ZM156.648 50.322C156.66 50.2754 156.665 50.242 156.665 50.242C156.665 50.242 156.607 50.3154 156.501 50.4487C155.757 51.082 155.101 51.6887 154.544 52.2354C154.38 52.402 154.222 52.5554 154.07 52.7087C153.566 53.0687 153.08 53.4354 152.599 53.7954C152.722 53.362 152.816 52.9754 152.892 52.6487C155.165 50.962 157.492 49.362 159.865 47.862C158.675 48.682 157.597 49.522 156.648 50.322ZM161.646 52.0554C161.142 52.442 160.615 52.8554 160.076 53.2687C160.415 52.7354 160.761 52.1287 161.083 51.442C161.095 51.4354 161.107 51.422 161.124 51.4154C161.054 51.7687 161.031 51.9954 161.031 51.9954C161.031 51.9954 161.417 51.7154 161.921 51.1954C162.179 50.9287 162.472 50.602 162.759 50.222C163.216 49.8754 163.656 49.5554 164.078 49.262C163.943 49.8754 163.908 50.282 163.908 50.362C163.187 50.8954 162.437 51.4554 161.646 52.0554ZM158.072 52.1954C158.13 52.0687 158.189 51.942 158.247 51.822C158.734 51.4954 159.214 51.1687 159.689 50.8554C159.636 50.982 159.583 51.1154 159.531 51.242C159.056 51.542 158.57 51.862 158.072 52.1954ZM151.761 56.3687C152.33 55.9487 152.927 55.522 153.531 55.0954C153.478 55.1887 153.425 55.282 153.378 55.382C153.349 55.4287 153.331 55.4754 153.302 55.5287C152.734 55.942 152.165 56.3754 151.585 56.822C151.644 56.6687 151.703 56.5154 151.761 56.3687ZM148.07 59.6354C146.833 60.6687 145.65 61.7087 144.525 62.742C144.935 62.202 145.357 61.602 145.773 60.9554C145.79 60.9287 145.802 60.9087 145.814 60.8887C145.896 60.822 145.972 60.762 146.048 60.702C146.992 59.9554 148.081 59.1087 149.289 58.202C149.177 58.442 149.072 58.6754 148.972 58.902C148.667 59.1487 148.374 59.382 148.07 59.6354ZM164.306 48.3687C164.089 48.4954 163.861 48.622 163.626 48.7554C163.72 48.5554 163.808 48.3554 163.884 48.1554C164.101 48.0287 164.306 47.8954 164.511 47.7687C164.435 47.9754 164.371 48.1754 164.306 48.3687ZM123.712 84.682C124.732 83.2354 125.939 81.7754 127.322 80.362C128.013 79.642 128.751 78.9287 129.513 78.2154C128.74 79.1754 127.978 80.1754 127.228 81.2154C124.761 84.6354 122.675 88.102 121.152 91.522C120.8 92.3154 120.484 93.102 120.203 93.882C120.888 90.642 122.154 87.5554 123.712 84.682ZM152.587 59.442C153.197 58.682 153.917 57.6687 154.568 56.4487C154.632 56.402 154.697 56.3487 154.761 56.2954C154.621 56.9687 154.591 57.382 154.591 57.382C154.591 57.382 154.99 56.9554 155.535 56.2554C155.833 55.882 156.173 55.422 156.525 54.9087C157.357 54.262 158.165 53.642 158.945 53.0554C158.857 53.3687 158.781 53.662 158.722 53.922C158.687 54.102 158.652 54.2687 158.622 54.422C156.724 55.9287 154.703 57.602 152.587 59.442ZM170.072 43.2154C170.177 43.7554 170.359 44.2154 170.552 44.542C170.734 44.8687 170.915 45.0954 171.056 45.2354C171.08 45.262 171.097 45.2754 171.115 45.2954C170.64 45.6154 169.966 46.0687 169.105 46.6487C167.81 47.542 166.099 48.742 164.089 50.2287C164.242 50.082 164.488 49.842 164.775 49.5287C165.173 49.0887 165.654 48.5087 166.099 47.8154C166.193 47.7487 166.287 47.6887 166.374 47.622C166.269 48.182 166.251 48.542 166.251 48.542C166.251 48.542 166.615 48.282 167.083 47.8287C167.494 47.422 167.986 46.8754 168.408 46.1954C168.507 46.1287 168.56 46.0954 168.56 46.0954C168.56 46.0954 168.513 46.1154 168.437 46.1554C168.49 46.0687 168.548 45.9887 168.595 45.902C168.742 45.6354 168.871 45.3687 168.982 45.0954C169.005 45.082 169.035 45.0687 169.058 45.0554C169.814 44.6087 170.236 44.362 170.236 44.362C170.236 44.362 169.837 44.502 169.117 44.7554C169.275 44.342 169.392 43.9487 169.486 43.5954C169.703 43.4554 169.902 43.3287 170.072 43.2154ZM164.294 45.2087C164.271 45.2354 164.242 45.262 164.212 45.2954C164.037 45.382 163.867 45.4687 163.691 45.562C163.89 45.442 164.089 45.322 164.294 45.2087ZM178.052 48.8554C180.736 49.522 183.648 49.6554 185.974 50.4354C189.214 51.5087 192.349 53.0087 195.437 54.5887C197.98 55.8887 200.494 57.2354 203.066 58.4954C201.736 59.182 200.447 59.942 199.164 60.682C187.421 67.422 175.919 74.762 164.687 82.662C159.074 86.6154 153.525 90.7087 148.052 94.942L143.962 98.142L139.896 101.395L135.859 104.702L131.974 107.955L126.765 108.055C126.32 108.062 125.857 108.082 125.429 108.075L124.831 108.029L124.246 107.882C123.97 107.789 123.712 107.655 123.455 107.509C122.81 105.355 122.564 102.095 123.46 98.3887C124.046 95.742 125.16 92.9154 126.736 90.082C127.568 88.922 128.634 87.5954 129.964 86.1954C131.992 84.0354 134.628 81.722 137.511 79.0487C140.394 76.3887 143.558 73.442 146.869 70.3087C149.037 68.262 151.134 66.262 153.132 64.3487C155.283 62.7087 157.96 60.562 160.773 58.0487C167.406 52.122 172.287 46.402 172.287 46.402C172.287 46.402 170.722 47.5754 168.314 49.522C169.884 47.9554 170.769 47.0687 170.769 47.0687C170.769 47.0687 167.833 49.4487 163.234 53.402C158.634 57.3487 152.376 62.882 145.738 69.1554C142.421 72.2887 139.322 75.3154 136.544 78.0887C134.523 80.1087 132.642 81.982 131.031 83.7554C133.72 80.3354 136.925 76.9487 140.259 73.4087C148.398 64.862 156.302 57.6687 162.197 52.6687C165.144 50.1687 167.581 48.202 169.269 46.8487C170.083 46.202 170.716 45.702 171.167 45.3487C171.232 45.4087 171.273 45.4487 171.273 45.4487C171.273 45.4487 171.267 45.382 171.267 45.2687C171.554 45.042 171.747 44.8887 171.841 44.8154C173.412 47.202 175.65 48.2487 178.052 48.8554ZM232.093 89.0087C232.064 89.042 232.035 89.0754 231.999 89.1087C231.671 89.2687 231.32 89.4354 230.945 89.622C230.956 89.562 230.962 89.5087 230.968 89.4487C231.343 89.302 231.718 89.1554 232.093 89.0087ZM237.724 86.9887C237.648 87.0887 237.572 87.182 237.507 87.2887C237.162 87.842 236.974 88.4287 236.869 88.9154C236.64 89.042 236.453 89.6354 236.576 89.9287C236.617 90.0154 236.658 90.0887 236.699 90.1754C236.64 90.2087 236.587 90.2287 236.523 90.2554C235.996 90.502 235.216 90.8754 234.232 91.3887C232.263 92.4154 229.486 94.0754 226.187 96.3354C219.636 100.895 210.718 107.255 201.056 114.322C196.228 117.862 191.74 121.422 187.902 124.962C185.974 126.722 184.193 128.449 182.558 130.095C180.941 131.762 179.4 133.262 178.146 134.895C177.876 135.242 177.636 135.595 177.408 135.955C177.771 135.142 178.187 134.295 178.644 133.422C179.499 131.789 180.402 130.302 181.257 129.022C182.037 128.189 182.869 127.349 183.759 126.509C185.939 124.402 188.441 122.262 191.072 120.029C189.425 121.602 187.966 123.075 186.742 124.375C185.265 125.942 184.105 127.229 183.32 128.142C182.54 129.055 182.107 129.555 182.107 129.555C182.107 129.555 184.087 127.802 187.292 124.962C190.509 122.142 195.009 118.342 200.119 114.289C202.673 112.269 205.134 110.369 207.396 108.662C209.669 106.969 211.726 105.442 213.484 104.202C214.867 103.215 216.044 102.382 216.97 101.735C216.958 101.769 216.953 101.795 216.953 101.795C216.953 101.795 217.269 101.589 217.744 101.202C218.687 100.542 219.214 100.175 219.214 100.175C219.214 100.175 218.951 100.309 218.476 100.549C218.494 100.535 218.511 100.515 218.529 100.495C218.658 100.422 218.787 100.349 218.915 100.269C219.718 99.782 220.503 99.302 221.277 98.822C221.248 99.042 221.23 99.162 221.23 99.162C221.23 99.162 221.523 98.8954 221.939 98.4087C225.519 96.1887 228.701 94.102 231.15 92.4754C231.917 91.962 232.603 91.502 233.212 91.0887C233.224 91.322 233.247 91.462 233.247 91.462C233.247 91.462 233.552 91.2421 233.921 90.8954C234.156 90.6754 234.414 90.4087 234.654 90.102C235.632 89.4287 236.183 89.0354 236.183 89.0354C236.183 89.0354 235.749 89.2354 234.982 89.6154C234.999 89.5754 235.023 89.5487 235.046 89.5154C235.357 88.922 235.515 88.2687 235.626 87.722C235.626 87.722 235.626 87.7154 235.626 87.7087C235.884 87.6154 236.142 87.522 236.4 87.4354C236.792 87.2887 237.244 87.1354 237.724 86.9887ZM173.962 139.489C173.956 139.429 173.951 139.362 173.945 139.302C173.974 139.242 173.997 139.195 174.021 139.142C174.484 138.189 175.14 136.975 176.019 135.615C175.873 136.035 175.744 136.462 175.638 136.882C175.292 138.275 175.187 139.609 175.287 140.709C175.386 141.762 175.662 142.575 175.914 143.102C175.439 142.689 175.023 142.209 174.712 141.655C174.337 141.002 174.074 140.269 173.962 139.489ZM211.656 99.3287C208.333 101.702 203.851 105.135 199.222 109.262C194.587 113.382 190.697 117.395 187.978 120.375C187.621 120.769 187.281 121.142 186.964 121.495C185.476 122.855 184.07 124.202 182.787 125.555C182.294 126.069 181.82 126.582 181.363 127.102C180.425 128.035 179.412 129.222 178.468 130.649C177.847 131.495 177.279 132.329 176.781 133.129C175.38 135.342 174.472 137.309 173.91 138.769C173.898 138.222 173.951 137.662 174.062 137.109C174.402 135.502 175.193 133.955 176.119 132.522C176.581 131.802 177.085 131.102 177.613 130.415L179.253 128.362L180.9 126.309L182.611 124.329C183.179 123.675 183.736 123.002 184.322 122.355L186.097 120.455C193.89 112.129 202.621 104.935 212.007 99.082C211.89 99.162 211.779 99.2421 211.656 99.3287ZM223.796 92.602C223.515 92.9954 223.228 93.4487 222.953 93.9554C222.665 94.122 222.39 94.2821 222.103 94.4554C222.308 93.7554 222.396 93.302 222.396 93.302C222.396 93.302 221.499 94.1354 220.433 95.482C219.414 96.1154 218.376 96.7887 217.322 97.4954C217.609 96.7954 217.837 96.142 218.007 95.562C218.072 95.5354 218.13 95.4954 218.195 95.462C220.04 94.4554 221.91 93.5087 223.796 92.602ZM227.142 91.0554C226.919 91.322 226.697 91.6154 226.486 91.942C225.964 92.222 225.425 92.522 224.874 92.8354C224.927 92.6354 224.98 92.442 225.027 92.262C225.044 92.1687 225.068 92.0754 225.085 91.9887C225.771 91.6687 226.456 91.3554 227.142 91.0554ZM221.066 97.062C221.089 97.0154 221.113 96.9687 221.136 96.922C221.382 96.7554 221.622 96.5954 221.869 96.4354C221.845 96.502 221.828 96.562 221.804 96.6287C221.564 96.7754 221.312 96.922 221.066 97.062ZM206.142 107.569C206.265 107.502 206.382 107.435 206.511 107.369C207.126 107.035 207.806 106.662 208.503 106.275C207.894 106.669 207.261 107.082 206.617 107.509C205.685 108.135 204.724 108.815 203.746 109.515C204.578 108.842 205.38 108.189 206.142 107.569ZM215.675 96.882C215.857 96.7754 216.033 96.6687 216.214 96.5687C215.945 96.9887 215.681 97.4354 215.423 97.9287C215.195 98.362 215.001 98.7954 214.826 99.2154C211.234 101.762 208.169 104.229 205.908 106.162C205.257 106.722 204.677 107.235 204.162 107.695C202.808 108.669 201.367 109.722 199.872 110.855C200.001 110.735 200.13 110.622 200.265 110.502C204.876 106.422 209.083 102.695 212.142 99.9887C213.613 98.6887 214.82 97.6354 215.675 96.882ZM223.925 95.4287C224.013 95.2487 224.083 95.0754 224.16 94.8954C224.587 94.6087 225.009 94.3287 225.425 94.0487C225.349 94.242 225.29 94.4287 225.238 94.5887C225.226 94.6354 225.214 94.6687 225.203 94.7154C224.787 94.942 224.359 95.182 223.925 95.4287ZM228.173 93.0954C227.874 93.262 227.558 93.4287 227.242 93.5954C227.376 93.422 227.505 93.242 227.628 93.0487C227.792 92.802 227.927 92.542 228.056 92.2887C228.208 92.182 228.367 92.082 228.519 91.9754C228.373 92.3887 228.255 92.7687 228.173 93.0954ZM231.308 90.1087C231.027 90.682 230.88 91.262 230.828 91.702C230.798 91.722 230.775 91.7354 230.751 91.7487C230.54 91.8554 230.306 91.9754 230.089 92.0887C230.165 91.962 230.242 91.8287 230.312 91.6887C230.511 91.2887 230.658 90.8754 230.763 90.4754C230.951 90.3487 231.132 90.222 231.308 90.1087ZM232.732 90.7287C232.732 90.7287 232.738 90.722 232.744 90.7154C233.107 90.1354 233.324 89.4754 233.488 88.9354C233.523 88.8087 233.558 88.6954 233.587 88.582C233.71 88.502 233.822 88.4221 233.927 88.3554C233.869 88.4487 233.804 88.5354 233.751 88.6354C233.4 89.2887 233.265 89.962 233.224 90.482C233.066 90.562 232.902 90.6487 232.732 90.7287ZM229.439 90.0687C229.351 90.2087 229.263 90.3554 229.175 90.5154C229.011 90.6021 228.835 90.6887 228.665 90.782C228.695 90.6887 228.73 90.5954 228.753 90.5087C228.771 90.4554 228.789 90.3954 228.8 90.342C229.011 90.2554 229.228 90.1554 229.439 90.0687ZM241.808 96.1487C243.888 97.682 246.308 99.3354 247.855 101.395C251.769 106.515 254.119 113.142 257.968 118.629L256.902 118.409C256.052 118.282 255.203 118.195 254.353 118.095C253.925 118.055 253.503 117.975 253.076 117.962L250.521 117.895L249.882 117.875L249.249 117.909L246.701 118.049C245.863 118.129 245.025 118.262 244.181 118.369C243.759 118.429 243.337 118.469 242.921 118.542L241.679 118.795C238.339 119.422 235.099 120.449 231.917 121.642C228.736 122.809 225.66 124.282 222.624 125.815C219.589 127.362 216.642 129.082 213.718 130.835C210.812 132.615 207.935 134.475 205.099 136.315C202.251 138.142 199.398 139.922 196.451 141.409C194.986 142.162 193.492 142.842 191.974 143.409C190.456 143.989 188.915 144.455 187.351 144.775C185.804 145.129 184.199 145.289 182.652 145.322C181.117 145.322 179.57 145.049 178.158 144.482C177.583 144.235 177.033 143.935 176.523 143.582C176.212 142.609 176.06 141.389 176.289 140.082C176.605 138.462 177.513 136.822 178.802 135.349C180.085 133.862 181.697 132.429 183.384 130.842C185.078 129.269 186.912 127.615 188.88 125.929C192.8 122.535 197.306 119.109 202.122 115.575C211.773 108.522 220.439 101.829 226.714 96.9754C229.861 94.5687 232.498 92.762 234.378 91.6087C235.316 91.0287 236.054 90.6021 236.564 90.322C236.623 90.2887 236.669 90.262 236.722 90.2287C238.087 93.1687 239.763 94.6287 241.808 96.1487ZM263.828 179.815C265.486 177.882 267.074 175.695 268.228 173.102C269.388 170.489 269.921 167.682 270.22 164.995C270.367 163.649 270.455 162.322 270.513 161.002C270.601 159.682 270.613 158.355 270.636 157.029C270.63 154.382 270.578 151.735 270.349 149.102C269.511 138.575 266.886 128.269 262.638 118.929L261.859 117.215L260.681 118.102C259.955 115.115 258.414 112.629 256.884 110.009C255.003 106.782 253.134 103.409 250.773 100.429C248.804 97.9554 246.554 95.8754 244.251 94.0554C242.148 92.4087 240.039 90.9287 237.747 89.3954C238.087 89.0954 238.451 88.7287 238.744 88.262C239.113 87.6687 239.318 86.9954 239.464 86.4487C239.464 86.442 239.464 86.442 239.464 86.442L241.662 85.7554L242.335 85.5487L242.505 85.4954C242.505 85.4554 242.453 85.3887 242.429 85.3354L242.247 84.9887L241.527 83.602C241.035 82.6954 240.548 81.7887 240.027 80.8954L239.289 79.6554C239.06 79.262 238.802 78.8954 238.562 78.5087C238.087 77.742 237.572 77.0087 237.062 76.2687C236.025 74.802 234.953 73.3687 233.804 72.0154C231.542 69.2754 229.046 66.7887 226.439 64.482C225.126 63.3554 223.79 62.242 222.414 61.2087C221.054 60.1554 219.636 59.1554 218.148 58.302C216.654 57.462 215.078 56.7554 213.408 56.3954C211.749 56.0287 210.015 56.0487 208.357 56.422C207.431 56.6354 206.529 56.942 205.644 57.2954C203.652 54.362 200.687 52.9554 197.816 51.642C194.576 50.1687 191.312 48.7687 187.955 47.802C182.341 46.1954 176.839 45.9487 171.712 42.842C171.572 42.7554 171.431 42.9154 171.337 43.1487C171.384 42.7287 171.443 42.2887 171.507 41.8287C171.548 41.5154 171.589 41.2154 171.636 40.9154C171.958 40.6887 172.21 40.4954 172.369 40.342C172.785 39.9487 172.597 39.8087 171.783 40.0087C171.824 39.8087 171.865 39.6087 171.912 39.4287C171.994 39.0954 172.081 38.7954 172.164 38.5954C172.181 38.5287 172.199 38.482 172.216 38.4354C172.462 38.6154 172.667 38.762 172.826 38.842C173.517 39.202 173.382 38.562 172.152 36.7087C170.904 34.9087 168.437 31.9087 163.96 28.8087C162.982 28.0887 161.951 27.4887 160.931 26.8487C160.415 26.542 159.888 26.2687 159.367 25.9754C158.851 25.682 158.324 25.402 157.79 25.1487C155.669 24.0754 153.49 23.1687 151.269 22.402C150.156 22.022 149.031 21.6687 147.871 21.3754L147.378 21.2487L146.675 21.0954C146.206 20.902 145.732 21.1487 145.292 21.2487L143.529 21.722L141.566 22.2554C139.673 20.802 137.546 20.102 135.367 19.2554C133.896 18.6887 132.396 18.0687 130.861 17.5154C129.314 16.982 127.738 16.482 126.115 16.2154C123.419 15.7354 120.771 15.8287 118.216 15.8687C115.65 15.9154 113.148 15.9354 110.511 15.282C110.212 15.2087 110.148 16.142 110.388 16.422C112.498 18.8554 114.859 19.2087 117.296 19.1754C119.722 19.1154 122.3 18.6287 124.445 19.062C127.433 19.662 130.287 21.002 133.181 22.3487C134.259 22.8487 135.355 23.3354 136.456 23.7754C127.878 26.4354 119.464 29.8887 111.261 33.9487C102.894 38.062 94.8139 42.9887 87.0151 48.4687C86.0307 49.1354 85.0815 49.8687 84.1206 50.5754C83.1655 51.2887 82.1928 51.9887 81.2436 52.722L78.4135 54.9554L77.0014 56.0754L75.6127 57.2354L72.8413 59.562L70.1225 61.9754C68.2592 63.622 66.6479 65.1554 64.9077 66.4887C63.1909 67.8354 61.4213 68.9354 59.7163 69.6154C59.5053 69.702 59.3002 69.7487 59.0893 69.822C58.8784 69.8954 58.6733 69.9621 58.4741 69.9887L57.8706 70.1154C57.6831 70.1287 57.4897 70.142 57.2963 70.162C57.103 70.202 56.9331 70.162 56.7514 70.1554C56.7045 70.1554 56.6518 70.1554 56.6049 70.1554C55.9428 69.5954 55.3745 68.782 55.1284 67.7087C54.7944 66.3754 54.894 64.742 55.0053 62.962C55.1811 60.222 55.4565 57.682 55.7553 55.5754C57.267 53.262 59.2534 50.9754 61.5913 48.802C63.3198 47.1954 65.2241 45.6354 67.2573 44.0687C69.2788 42.4887 71.4116 40.9087 73.5971 39.2954C77.9975 36.102 82.2866 33.202 86.2651 30.6954C90.2495 28.1954 93.9233 26.0887 97.0522 24.3954C100.175 22.6954 102.771 21.4554 104.558 20.5754C106.363 19.7287 107.359 19.262 107.359 19.262C107.359 19.262 106.316 19.6487 104.441 20.342C104.095 20.4754 103.714 20.6287 103.316 20.782C103.357 20.7487 103.398 20.7087 103.445 20.6687C103.89 20.242 104.447 19.6954 104.933 19.0087C105.419 18.322 105.777 17.582 106.058 16.9887C106.662 16.6687 106.99 16.4954 106.99 16.4954C106.99 16.4954 106.691 16.6087 106.14 16.8087C106.369 16.3087 106.515 15.9487 106.515 15.9487C106.515 15.9487 106.134 16.0287 105.583 16.322C105.115 16.562 104.535 16.9954 104.025 17.6087C103.662 17.7554 103.269 17.9087 102.853 18.0887C102.654 18.1687 102.443 18.2554 102.232 18.342C102.296 18.222 102.349 18.1087 102.402 17.9887C103.316 17.5754 103.814 17.342 103.814 17.342C103.814 17.342 103.357 17.4954 102.501 17.782C102.665 17.402 102.794 17.0354 102.894 16.7154C102.906 16.6887 102.906 16.6687 102.917 16.6487C103.023 16.622 103.123 16.602 103.228 16.582L104.874 16.2354L105.689 16.062C105.812 16.042 105.988 15.9954 106.169 15.9487L106.697 15.8154C107.271 15.6487 107.851 15.4754 108.519 15.1954C108.49 15.2754 108.466 15.3554 108.437 15.442C108.167 15.5354 107.617 15.7887 107.259 16.3154C106.779 17.0354 106.843 17.982 106.843 17.982C106.843 17.982 107.388 18.022 107.88 17.802C107.623 19.422 107.658 20.622 107.658 20.622C107.658 20.622 109.046 19.062 109.65 16.7287C109.861 15.9087 109.949 15.1087 109.972 14.4087C110.06 14.342 110.154 14.282 110.242 14.2154C110.406 14.082 110.593 13.902 110.757 13.7287C110.828 13.6687 110.968 13.4954 111.068 13.3687C111.173 13.2287 111.273 13.082 111.367 12.9354C111.484 12.7354 111.601 12.4954 111.701 12.262C111.748 12.1487 111.794 12.0287 111.835 11.9087C111.876 11.7754 111.917 11.6087 111.947 11.4554C112.087 10.822 112.087 10.1687 111.976 9.52204C111.917 9.21538 111.847 8.99538 111.753 8.73538C111.706 8.60871 111.66 8.48204 111.607 8.36871L111.472 8.10871C111.384 7.94204 111.273 7.76204 111.173 7.62204C111.091 7.50204 111.003 7.39538 110.915 7.28204C110.558 6.86204 110.289 6.64871 110.025 6.44204C109.527 6.06204 109.134 5.85538 108.753 5.66204C108.003 5.29538 107.365 5.05538 106.656 4.84204L102.466 3.28204L98.0834 2.02204L93.6538 1.07538C92.1713 0.835377 90.6831 0.64871 89.1948 0.435377C83.2358 -0.224622 77.2534 -0.104623 71.3588 0.595377C59.5639 2.02204 48.1557 5.70871 37.3393 10.742C34.2514 12.1754 31.2221 13.7087 28.2104 15.422C25.2045 17.1354 22.2456 19.042 19.3979 21.2154C16.562 23.402 13.8374 25.842 11.3647 28.662C10.1225 30.0554 8.95649 31.5487 7.87251 33.1154C6.78266 34.6887 5.76313 36.3287 4.86665 38.062C3.9643 39.7954 3.14985 41.5954 2.45844 43.4754C1.77876 45.3554 1.22212 47.3087 0.800241 49.3087L0.513131 50.8154L0.302194 52.342C0.173287 53.362 0.138131 54.3887 0.0619595 55.4087C-0.049369 56.4287 0.0209446 57.4554 0.0326626 58.482L0.0678189 60.0154L0.220163 61.5354C0.624461 65.5887 1.5561 69.5354 2.92133 73.1954C4.26899 76.8687 5.95063 80.3087 7.80805 83.5687C9.66548 86.8354 11.7514 89.862 13.8901 92.802C16.0405 95.7354 18.2963 98.5354 20.5874 101.255L21.0209 101.762L21.3608 102.175C21.5014 102.315 21.6713 102.449 21.8002 102.562L22.7729 103.409L24.5424 104.949L27.6069 108.875L31.0346 113.002L34.562 117.015C44.1186 127.549 54.7709 136.789 66.2143 144.475C71.9389 148.322 77.8627 151.782 83.9448 154.829C90.0385 157.935 96.2788 160.302 102.062 163.289C107.839 166.255 113.371 170.029 118.978 173.849C121.79 175.742 124.609 177.695 127.533 179.482C128.992 180.375 130.421 181.322 131.898 182.169L136.328 184.715C142.292 187.995 148.398 190.929 154.621 193.489C160.861 196.022 167.236 198.102 173.681 199.795L178.539 200.982L183.431 201.942L184.656 202.182L188.347 202.722L190.814 203.089L193.292 203.329L197.001 203.689L198.238 203.755L203.201 203.982C206.517 203.969 209.828 204.009 213.132 203.735C214.298 203.649 215.47 203.629 216.636 203.482L220.128 203.075C222.455 202.835 224.769 202.442 227.083 201.989C231.701 201.075 236.294 199.775 240.73 197.862C245.154 195.969 249.425 193.369 253.222 190.202C255.132 188.635 256.949 186.962 258.701 185.222C260.453 183.475 262.146 181.749 263.828 179.815Z" fill="#231F20"/>
</svg>
