<svg width="291" height="300" viewBox="0 0 291 300" fill="none" xmlns="http://www.w3.org/2000/svg">
<path d="M151.689 206.473V218.36L240.313 105.993H237.482L151.689 206.473Z" fill="black"/>
<path d="M147.23 203.867H138.242V198.907C140.252 197.807 141.635 195.473 141.623 192.773C141.436 159.46 136.297 137.413 126.354 127.26C122.105 122.92 118.092 121.907 115.824 121.713C115.584 121.68 115.338 121.653 115.086 121.653H86.3516C86.0996 121.653 85.8594 121.68 85.6133 121.713C83.3457 121.9 79.332 122.92 75.084 127.26C65.1406 137.413 60.002 159.46 59.8145 192.773C59.8027 195.473 61.1855 197.807 63.1953 198.907V203.873H54.207V264.26H76.8887V203.873H67.9004V199.12C70.1152 198.147 71.6973 195.72 71.7148 192.86C71.8848 162.54 76.3262 148.213 80.0176 141.527C80.2168 141.167 80.4102 140.833 80.6035 140.52V268.727C80.6035 274.493 84.7227 279.167 89.7969 279.167C94.877 279.167 98.9961 274.493 98.9961 268.727V192.48H102.441V268.727C102.441 274.493 106.561 279.167 111.635 279.167C116.715 279.167 120.828 274.493 120.828 268.727V140.5C124.813 146.947 129.547 161.247 129.723 192.86C129.734 195.72 131.316 198.147 133.531 199.12V203.873H124.549V264.26H147.23V203.867Z" fill="black"/>
<path d="M117.447 97.8333C117.447 99.08 117.342 100.32 117.131 101.54C116.914 102.767 116.598 103.953 116.176 105.107C115.754 106.26 115.238 107.353 114.629 108.393C114.02 109.433 113.328 110.393 112.549 111.273C111.77 112.153 110.926 112.94 110.012 113.633C109.098 114.327 108.137 114.913 107.123 115.393C106.104 115.867 105.061 116.233 103.982 116.473C102.904 116.72 101.814 116.84 100.719 116.84C99.6172 116.84 98.5332 116.72 97.4551 116.473C96.377 116.233 95.3281 115.867 94.3145 115.393C93.3008 114.913 92.334 114.327 91.4199 113.633C90.5059 112.94 89.6621 112.153 88.8887 111.273C88.1094 110.393 87.418 109.433 86.8027 108.393C86.1934 107.353 85.6777 106.26 85.2617 105.107C84.8398 103.953 84.5234 102.767 84.3066 101.54C84.0898 100.32 83.9844 99.08 83.9844 97.8333C83.9844 96.5867 84.0898 95.3533 84.3066 94.1267C84.5234 92.9 84.8398 91.7133 85.2617 90.56C85.6777 89.4067 86.1934 88.3133 86.8027 87.2733C87.418 86.24 88.1094 85.28 88.8887 84.3933C89.6621 83.5133 90.5059 82.7267 91.4199 82.0333C92.334 81.34 93.3008 80.7533 94.3145 80.2733C95.3281 79.8 96.377 79.44 97.4551 79.1933C98.5332 78.9533 99.6172 78.8267 100.719 78.8267C101.814 78.8267 102.904 78.9533 103.982 79.1933C105.061 79.44 106.104 79.8 107.123 80.2733C108.137 80.7533 109.098 81.34 110.012 82.0333C110.926 82.7267 111.77 83.5133 112.549 84.3933C113.328 85.28 114.02 86.24 114.629 87.2733C115.238 88.3133 115.754 89.4067 116.176 90.56C116.598 91.7133 116.914 92.9 117.131 94.1267C117.342 95.3533 117.447 96.5867 117.447 97.8333Z" fill="black"/>
<path d="M234.465 72.6932L239.404 102.12L244.344 72.6932C254.469 70.1332 262.045 59.8732 262.045 47.5999C262.045 33.3932 251.908 21.8799 239.404 21.8799C226.895 21.8799 216.758 33.3932 216.758 47.5999C216.758 59.8732 224.334 70.1332 234.465 72.6932ZM239.404 29.4732C248.199 29.4732 255.359 37.6066 255.359 47.5999C255.359 57.5866 248.199 65.7199 239.404 65.7199C230.604 65.7199 223.449 57.5866 223.449 47.5999C223.449 37.6066 230.604 29.4732 239.404 29.4732Z" fill="black"/>
<path d="M245.322 47.6C245.322 48.4866 245.176 49.3466 244.871 50.1733C244.572 50.9933 244.145 51.72 243.588 52.3533C243.031 52.9866 242.393 53.4733 241.666 53.8133C240.945 54.1533 240.189 54.3266 239.404 54.3266C238.619 54.3266 237.863 54.1533 237.137 53.8133C236.41 53.4733 235.771 52.9866 235.215 52.3533C234.658 51.72 234.23 50.9933 233.932 50.1733C233.627 49.3466 233.48 48.4866 233.48 47.6C233.48 46.7066 233.627 45.8466 233.932 45.02C234.23 44.2 234.658 43.4733 235.215 42.84C235.771 42.2066 236.41 41.7266 237.137 41.38C237.863 41.04 238.619 40.8733 239.404 40.8733C240.189 40.8733 240.945 41.04 241.666 41.38C242.393 41.7266 243.031 42.2066 243.588 42.84C244.145 43.4733 244.572 44.2 244.871 45.02C245.176 45.8466 245.322 46.7066 245.322 47.6Z" fill="black"/>
</svg>
