<svg width="202" height="161" viewBox="0 0 202 161" fill="none" xmlns="http://www.w3.org/2000/svg">
<path d="M6.83203 121.627C6.83203 109.42 12.8379 98.1933 22.2773 92.5067C23.2207 93.0933 24.2227 93.58 25.2246 94.0267C25.3125 94.0667 25.4062 94.1133 25.4941 94.1533C28.2832 95.3267 31.2832 96 34.4297 96C39.2578 96 43.7637 94.4533 47.625 91.7933C47.6953 91.7533 47.7891 91.7133 47.8594 91.6533C58.248 97.0133 64.8398 108.573 64.8398 121.627V152.7H6.83203V121.627ZM15.6445 66.9133C15.6445 55.14 24.0645 45.5733 34.4297 45.5733C38.0977 45.5733 41.5137 46.7933 44.4082 48.86C45.7324 49.7933 46.9102 50.9133 47.9648 52.1333C48.0937 52.2933 48.1992 52.4333 48.3223 52.6C48.6797 53.0267 49.0019 53.4933 49.3242 53.96C49.4883 54.18 49.6289 54.4067 49.7871 54.6267C50.0742 55.12 50.3437 55.5867 50.5957 56.0733C50.7012 56.2933 50.8242 56.5 50.9355 56.7C51.2578 57.3733 51.5391 58.06 51.791 58.7733C51.8965 59.04 51.9727 59.3 52.0605 59.5667C52.2187 60.0733 52.3652 60.58 52.4883 61.1067C52.5586 61.3933 52.6348 61.7 52.7051 61.98C52.8105 62.5267 52.8984 63.08 52.9746 63.6267C53.0098 63.8933 53.0625 64.1533 53.0801 64.42C53.168 65.2333 53.2207 66.0667 53.2207 66.9133C53.2207 67.6667 53.1855 68.42 53.1152 69.1733C52.541 75.3267 49.6289 80.7067 45.4453 84.16C39.293 89.2333 30.75 89.52 24.3691 84.9133C19.1309 81.1133 15.6445 74.4733 15.6445 66.9133ZM49.8984 43.7267C51.7031 33.9733 59.2852 26.8667 68.2559 26.8667C71.3672 26.8667 74.3203 27.72 76.9277 29.2667C76.9805 29.3067 77.0156 29.3467 77.0684 29.3867C77.625 29.7333 78.1641 30.1133 78.6797 30.5C78.7676 30.5667 78.8613 30.6267 78.9316 30.6867C79.4297 31.0733 79.916 31.5 80.3613 31.9467C80.5019 32.0867 80.6484 32.2267 80.7891 32.3733C82.1484 33.7733 83.3086 35.4 84.2578 37.1467C84.416 37.4467 84.5801 37.7333 84.7383 38.04C84.9551 38.4867 85.1543 38.9733 85.3476 39.44C85.5644 40.0067 85.7754 40.6133 85.957 41.2067C86.0273 41.4467 86.1152 41.6733 86.1914 41.9133C86.0976 41.98 86.0273 42.04 85.9394 42.1C85.1719 42.6467 84.416 43.2133 83.7012 43.8467C83.5957 43.9467 83.4726 44.0467 83.3437 44.1533C82.5234 44.9 81.7383 45.6933 81.0059 46.5267C80.9883 46.5667 80.9707 46.5867 80.9297 46.6267C80.2559 47.42 79.6289 48.2733 79.0195 49.1467C78.9141 49.3267 78.8027 49.4933 78.6797 49.6733C78.1465 50.5067 77.625 51.38 77.1621 52.2933C77.1094 52.3933 77.0508 52.48 76.998 52.58C75.9961 54.6067 75.1934 56.78 74.6191 59.08C74.5664 59.32 74.5137 59.5667 74.4609 59.8067C74.2617 60.7 74.1035 61.5933 73.9805 62.5067C73.9394 62.7933 73.9043 63.1 73.8691 63.38C73.7461 64.54 73.6582 65.7 73.6582 66.8933C73.6582 67.4667 73.6758 68.0333 73.7109 68.62C69.2226 70.1867 64.2715 69.72 60.0352 67.3867C60.0352 67.22 60.0527 67.06 60.0527 66.8933C60.0527 65.82 59.9824 64.7467 59.8711 63.6867C59.8359 63.32 59.7832 62.9533 59.7305 62.5733C59.6426 61.92 59.5488 61.2733 59.4258 60.62C59.3379 60.1533 59.2266 59.7067 59.1211 59.26C58.998 58.7133 58.8516 58.1867 58.6934 57.6533C58.5469 57.1667 58.4062 56.68 58.2305 56.2133C58.0664 55.7467 57.9082 55.3 57.709 54.8533C57.5156 54.3467 57.3164 53.86 57.082 53.3733C56.8887 52.9667 56.6894 52.56 56.4785 52.1533C56.2266 51.6867 55.9922 51.2 55.7227 50.7533C55.4238 50.22 55.084 49.7333 54.7617 49.2467C54.4219 48.76 54.082 48.2733 53.707 47.8067C53.2559 47.22 52.8105 46.6467 52.3125 46.1C52.1309 45.9 51.9141 45.6933 51.7207 45.4933C51.1992 44.96 50.666 44.4333 50.1094 43.9467C50.0391 43.8867 49.9687 43.8067 49.8984 43.7267ZM100.687 7.75333C109.412 7.75333 116.883 14.58 118.904 24.0067C114.041 27.68 110.326 33.2067 108.574 39.8067C108.428 39.74 108.252 39.68 108.07 39.62C107.555 39.4 107.033 39.1733 106.5 38.9933C106.213 38.9133 105.908 38.8267 105.621 38.7467C105.141 38.6067 104.654 38.4667 104.174 38.36C103.746 38.26 103.336 38.2 102.92 38.14C102.527 38.08 102.152 37.9933 101.76 37.9533C100.939 37.8533 100.113 37.8133 99.2754 37.8133C98.2207 37.8133 97.1836 37.8933 96.1465 38.06C95.8769 38.08 95.6074 38.14 95.3437 38.18C94.5 38.34 93.6797 38.5267 92.8769 38.7667C92.748 38.8067 92.6074 38.8067 92.4844 38.8467C92.4844 38.8267 92.4844 38.8267 92.4609 38.8067C90.6211 32.6333 87.0644 27.4733 82.4531 24.0067C84.4922 14.58 91.9805 7.75333 100.687 7.75333ZM151.049 41.8933C150.961 41.98 150.891 42.04 150.797 42.1C150.012 42.6467 149.262 43.2333 148.547 43.8667C148.424 43.9667 148.312 44.0467 148.207 44.1533C147.387 44.9 146.596 45.6933 145.846 46.5467C145.828 46.5667 145.811 46.5867 145.793 46.6067C145.113 47.42 144.469 48.2733 143.859 49.1667C143.754 49.3267 143.648 49.4933 143.543 49.6733C142.986 50.5067 142.471 51.4 142.002 52.3133C141.949 52.3933 141.914 52.48 141.861 52.58C140.842 54.6067 140.039 56.78 139.482 59.08C139.412 59.32 139.377 59.5667 139.301 59.8267C139.107 60.7 138.943 61.6133 138.838 62.5267C138.803 62.8133 138.75 63.1 138.715 63.4C138.586 64.54 138.516 65.72 138.516 66.9133C138.516 67.4667 138.533 68.0533 138.568 68.62C134.062 70.1867 129.111 69.74 124.893 67.3867C124.893 67.22 124.893 67.06 124.893 66.8933C124.893 65.82 124.84 64.7667 124.734 63.7067C124.699 63.32 124.623 62.9533 124.57 62.5933C124.5 61.94 124.395 61.2733 124.283 60.62C124.195 60.1533 124.072 59.7067 123.967 59.26C123.838 58.7333 123.715 58.2067 123.551 57.6733C123.41 57.1667 123.252 56.7 123.088 56.2133C122.912 55.7467 122.748 55.3 122.572 54.8533C122.355 54.3667 122.174 53.86 121.945 53.3733C121.746 52.9667 121.535 52.58 121.336 52.1733C121.084 51.7067 120.855 51.22 120.568 50.7533C120.281 50.26 119.959 49.7933 119.637 49.3267C119.279 48.8 118.922 48.2733 118.529 47.7867C118.102 47.22 117.656 46.6467 117.17 46.12C116.977 45.92 116.777 45.7133 116.561 45.4933C116.045 44.96 115.523 44.4533 114.973 43.9467C114.902 43.8867 114.844 43.8267 114.756 43.7667C114.791 43.62 114.809 43.5 114.826 43.38C115.043 42.34 115.295 41.3267 115.635 40.3733C115.723 40.0867 115.846 39.8467 115.957 39.58C116.221 38.8933 116.508 38.24 116.83 37.5933C117.029 37.2067 117.24 36.82 117.457 36.4333C117.744 35.9267 118.084 35.46 118.406 34.9733C118.834 34.36 119.279 33.7933 119.766 33.2467C120.105 32.86 120.445 32.4733 120.803 32.1067C121.16 31.74 121.57 31.3933 121.963 31.0733C122.285 30.8067 122.625 30.54 122.965 30.3C123.375 29.9933 123.785 29.6933 124.23 29.4267C126.879 27.8 129.902 26.8667 133.102 26.8667C141.451 26.8667 148.652 33.04 151.049 41.8933ZM182.924 66.9133C182.924 74.0067 179.848 80.28 175.148 84.16C168.996 89.2333 160.453 89.52 154.055 84.8933C149.689 81.72 146.543 76.5667 145.635 70.5533C145.635 70.5333 145.635 70.5333 145.635 70.5333C145.436 69.2133 145.348 68.0333 145.348 66.9133C145.348 65.96 145.418 65.0267 145.506 64.1133C145.541 63.9133 145.559 63.6867 145.594 63.4867C145.723 62.6133 145.881 61.76 146.098 60.9067C146.115 60.8867 146.115 60.8467 146.115 60.8267C146.367 59.8867 146.672 58.9733 147.047 58.1C147.064 58.02 147.1 57.94 147.135 57.86C147.475 57.0267 147.867 56.2133 148.312 55.42C148.33 55.4 148.348 55.36 148.365 55.34C148.834 54.5267 149.35 53.7333 149.924 53.0067C149.959 52.9467 149.994 52.9067 150.029 52.86C150.568 52.1733 151.137 51.52 151.746 50.8933C151.781 50.8533 151.834 50.8133 151.887 50.7533C152.531 50.12 153.229 49.5333 153.961 48.9867C153.996 48.9667 154.037 48.94 154.055 48.92C154.787 48.3933 155.537 47.9267 156.322 47.52C158.701 46.28 161.35 45.5733 164.133 45.5733C174.486 45.5733 182.924 55.14 182.924 66.9133ZM194.543 121.627V152.7H136.535V121.627C136.535 109.42 142.541 98.2133 151.98 92.5267C152.924 93.0933 153.926 93.6 154.928 94.0467C155.016 94.0667 155.109 94.1133 155.197 94.1533C157.986 95.3267 160.986 96 164.115 96C167.836 96 171.375 95.0867 174.574 93.46C174.592 93.44 174.627 93.42 174.65 93.4C175.559 92.9333 176.455 92.3867 177.311 91.7933C177.398 91.7533 177.492 91.7133 177.545 91.6533C187.951 97.0133 194.543 108.573 194.543 121.627ZM71.6719 121.627C71.6719 109.42 77.6777 98.1933 87.1348 92.5067C88.084 93.0933 89.0684 93.58 90.0879 94.0267C90.1758 94.0667 90.2637 94.1133 90.334 94.1533C93.123 95.3267 96.1289 96 99.2754 96C103.014 96 106.535 95.0667 109.734 93.44C109.752 93.44 109.752 93.44 109.77 93.42C110.719 92.9533 111.609 92.4067 112.471 91.7933C112.559 91.7533 112.629 91.7133 112.717 91.6733C123.088 97.0133 129.703 108.573 129.703 121.627V152.72H71.6719V121.627ZM146.045 87.5067C140.414 91.6733 135.979 97.54 133.154 104.327C130.043 96.7933 124.928 90.4533 118.371 86.2533C120.838 83.1 122.73 79.3667 123.803 75.24C126.773 76.5667 129.92 77.3133 133.119 77.3133C135.422 77.3133 137.678 76.9267 139.875 76.24C141.164 80.5267 143.273 84.38 146.045 87.5067ZM80.666 64.1133C80.6836 63.8933 80.7187 63.6867 80.7539 63.4867C80.8769 62.6133 81.041 61.76 81.2519 60.9067C81.2695 60.8867 81.2695 60.8467 81.2695 60.8067C81.5215 59.8867 81.8262 58.9733 82.1836 58.1C82.2187 58.02 82.2539 57.92 82.2891 57.84C82.6289 57.0067 83.0215 56.2133 83.4551 55.42C83.4726 55.38 83.4902 55.36 83.5078 55.32C83.9707 54.5067 84.4922 53.7333 85.043 52.9867C85.0957 52.9467 85.1367 52.88 85.1894 52.82C85.7051 52.1533 86.2617 51.5 86.8652 50.9133C86.9238 50.8533 86.9766 50.7933 87.0293 50.7333C87.6738 50.1 88.3711 49.5133 89.1035 48.9867C89.1387 48.9667 89.1738 48.92 89.209 48.9C89.9238 48.3733 90.6738 47.9267 91.4648 47.52C91.5 47.5 91.5351 47.46 91.5703 47.44C93.6973 46.3667 95.9648 45.7533 98.2383 45.6133C98.2559 45.6133 98.2734 45.6133 98.291 45.6133C101.35 45.4267 104.408 46.1 107.197 47.56C107.215 47.58 107.232 47.58 107.25 47.6C107.93 47.9667 108.592 48.3733 109.23 48.82C109.23 48.84 109.248 48.84 109.248 48.84C109.91 49.3067 110.52 49.8133 111.111 50.3467C111.164 50.4267 111.252 50.5067 111.287 50.5267C111.305 50.5467 111.305 50.5467 111.305 50.5467C111.844 51.0533 112.342 51.58 112.811 52.1333C112.934 52.2733 113.057 52.4133 113.168 52.58C113.525 53.0267 113.865 53.4733 114.187 53.96C114.328 54.18 114.486 54.4067 114.615 54.6267C114.92 55.1 115.184 55.5867 115.436 56.0733C115.541 56.2933 115.67 56.48 115.758 56.68C116.098 57.3533 116.385 58.04 116.637 58.7533C116.742 59.0133 116.812 59.3 116.9 59.5667C117.064 60.0733 117.205 60.58 117.352 61.0867C117.422 61.3733 117.475 61.68 117.545 61.98C117.656 62.5067 117.744 63.06 117.814 63.6067C117.867 63.8733 117.902 64.1333 117.92 64.4C118.014 65.2333 118.066 66.0667 118.066 66.8933C118.066 67.6667 118.031 68.42 117.955 69.1533V69.1733C117.387 75.3267 114.486 80.6867 110.285 84.14C104.156 89.2133 95.6074 89.52 89.209 84.8933C84.832 81.72 81.7031 76.5667 80.7715 70.5333V70.5133C80.5723 69.2133 80.4844 68.0133 80.4844 66.8933C80.4844 65.96 80.5547 65.0267 80.666 64.1133ZM58.9629 75.24C61.9277 76.5667 65.0566 77.3133 68.2559 77.3133C70.5644 77.3133 72.832 76.9267 75.0351 76.22C76.3184 80.5267 78.4277 84.36 81.1992 87.5067C75.5684 91.6733 71.1152 97.52 68.291 104.307C65.1973 96.7733 60.0879 90.4333 53.5254 86.2333C55.9922 83.1 57.873 79.3667 58.9629 75.24ZM68.2559 160.46H197.959C199.84 160.46 201.375 158.733 201.375 156.58V121.627C201.375 106.7 194.385 93.4 183.211 86.2533C187.271 81.0933 189.756 74.3267 189.756 66.9133C189.756 50.8533 178.26 37.8133 164.115 37.8133C161.777 37.8133 159.504 38.2 157.342 38.8667C153.873 27.2133 144.258 19.1067 133.119 19.1067C130.33 19.1067 127.664 19.64 125.145 20.5733C121.928 8.54667 112.078 0 100.687 0C89.2969 0 79.4473 8.54667 76.2305 20.5733C73.7109 19.64 71.0449 19.1067 68.2559 19.1067C56.7422 19.1067 46.9102 27.7 43.7285 39.8267C40.8516 38.5467 37.7051 37.7933 34.4297 37.7933C20.3086 37.7933 8.8125 50.8533 8.8125 66.8933C8.8125 74.94 11.6895 82.2267 16.3594 87.4867C6.27539 94.94 0 107.76 0 121.627V156.58C0 158.733 1.51758 160.46 3.41602 160.46H68.2559Z" fill="#040606"/>
</svg>
