<svg width="203" height="224" viewBox="0 0 203 224" fill="none" xmlns="http://www.w3.org/2000/svg">
<path d="M123.629 195.253L125.732 193.093L126.306 193.013C169.742 188.04 202.502 146.66 202.502 96.7467C202.502 61.8267 186.207 31.1733 161.849 14.16C161.756 14.0733 161.65 14.0067 161.539 13.9467C148.754 5.1 133.765 0 117.758 0C107.111 0 96.8337 2.32 87.3122 6.54C87.2243 6.55333 87.1423 6.53333 87.0544 6.56C86.8259 6.63333 86.6267 6.76 86.4567 6.92C61.6599 18.26 42.2185 42.6733 35.5329 73.3067L24.8513 59.74C23.3161 57.7867 21.5056 56.28 19.4724 55.2667C13.906 52.5 6.45284 50.1333 2.55049 54.5933C-1.18193 58.8533 -0.133103 67.0933 1.3962 73.26C2.07002 75.9533 3.2419 78.38 4.88838 80.4667L23.3864 103.973L22.4899 112.32C18.3884 113.807 15.5407 116.987 14.0114 121.787C13.8064 122.427 13.9294 123.14 14.3337 123.647L19.0153 129.533L15.2595 142.04C11.0759 143.853 8.01143 147.167 6.14229 151.9C5.87862 152.567 5.98409 153.347 6.41182 153.887L10.8708 159.527L7.10323 174.247C6.61104 176.173 7.04463 178.3 8.23409 179.787L10.197 182.24C12.0544 184.553 15.2419 184.753 17.3044 182.673L48.0427 151.727C58.2497 168.547 73.0388 181.447 89.8669 188.133C90.0017 188.187 92.861 189.42 95.3747 190.293L98.2165 193.553L89.3864 214.5C88.613 216.707 88.988 219.18 90.3767 220.953C91.3435 222.193 92.6794 222.933 94.1384 223.02C94.238 223.027 94.3435 223.033 94.4489 223.033C95.7907 223.033 97.0681 222.473 98.0759 221.447L112.279 206.9L118.642 211.107C119.246 211.5 120.008 211.413 120.523 210.88L126.218 205.04C126.734 204.507 126.892 203.653 126.611 202.927L123.629 195.253ZM138.207 171.887C136.806 170.12 134.697 169.427 132.588 170.113L113.504 177.867L104.175 164.713C104.31 162.847 105.107 157.253 109.824 155.24C112.062 154.28 114.424 154.38 116.234 154.573C120.424 155.02 124.496 152.62 126.617 148.44C129.066 143.607 131.949 141.067 135.435 140.673C144.049 139.7 148.326 146.107 152.093 151.76C152.843 152.887 153.564 153.967 154.285 154.94C156.353 157.747 159.383 159.367 162.605 159.393C164.158 159.407 166.25 159.7 167.398 161.04C169.256 163.207 168.476 168.153 167.931 170.247C157.174 179.807 144.207 186.373 129.904 188.8L137.808 180.68C138.892 179.567 139.531 178.04 139.601 176.38C139.677 174.72 139.179 173.12 138.207 171.887ZM171.752 166.62C171.91 163.893 171.588 160.68 169.701 158.473C168.16 156.667 165.775 155.74 162.629 155.72C160.349 155.7 158.211 154.553 156.746 152.573C156.06 151.64 155.369 150.607 154.654 149.533C150.588 143.44 145.519 135.853 135.125 137.02C130.595 137.533 126.799 140.753 123.84 146.6C122.345 149.54 119.486 151.24 116.539 150.92C115.273 150.787 111.916 150.42 108.699 151.8C104.246 153.707 102.353 157.8 101.545 160.993L75.2712 123.933L107.146 90.6133C111.951 96.6667 117.828 100.293 124.666 101.347C129.939 102.16 134.129 106.027 135.599 111.44C137.949 120.12 142.601 131.12 151.39 134.26C157.631 136.48 164.445 135.693 171.09 131.987C174.283 130.2 177.986 131.12 179.896 134.167C182.082 137.667 185.205 140.233 189.183 141.82C184.66 151.193 178.748 159.573 171.752 166.62ZM199.285 96.7467C199.285 111.747 196.209 125.94 190.707 138.52C187.109 137.2 184.414 135.08 182.509 132.033C179.685 127.52 174.289 126.113 169.677 128.687C163.701 132.027 157.871 132.72 152.351 130.753C144.892 128.093 140.797 118.193 138.67 110.353C136.83 103.56 131.627 98.7133 125.093 97.7067C119.029 96.7733 113.802 93.54 109.513 88.1333L112.502 85.0067C114.617 82.8067 114.787 79.02 112.894 76.5733L111.172 74.3467C110.345 73.2733 109.203 72.6 107.984 72.3867C107.884 70.7533 107.961 68.06 109.232 66.1667C109.73 65.42 110.386 64.78 111.189 64.26C114.043 62.3867 116.099 59.1067 116.978 55.0267C117.717 51.5867 119.105 48.86 121.092 46.9267C123.552 44.5333 130.185 42.9067 139.759 42.3533C144.535 42.08 148.595 38.4467 149.873 33.3133C151.39 27.2 155.088 21.9733 160.812 17.7533C183.892 34.2133 199.285 63.46 199.285 96.7467ZM86.3103 10.9533C86.5915 13.1933 86.4567 15.3133 85.8767 17.3867C84.5817 22.06 85.1384 27.0267 87.4001 31.0267C89.2107 34.2267 89.7673 37.5133 89.0583 40.78C88.0857 45.28 84.0075 47.6 80.7556 48.76C76.7185 50.2 73.5427 53.9333 72.2595 58.76C71.5622 61.3667 70.4431 63.2533 68.9314 64.38C66.2829 66.34 62.9665 65.9667 60.6521 65.3133C58.2321 64.6267 55.654 64.78 53.2107 65.7533C49.7946 67.1067 47.0759 67.66 45.5583 67.32C43.2204 66.7867 42.1716 63.9733 41.8376 62.82C49.947 39.2467 66.2185 20.6133 86.3103 10.9533ZM40.3669 67.48C41.3454 68.9933 42.7985 70.4267 44.9255 70.9133C45.4177 71.0267 45.9626 71.0867 46.5603 71.0867C48.5525 71.0867 51.1364 70.46 54.2653 69.2133C56.1228 68.48 58.0622 68.3667 59.8786 68.8733C62.8142 69.7067 67.0681 70.1333 70.6833 67.4533C72.8454 65.8467 74.4099 63.28 75.3298 59.8267C76.3083 56.1667 78.6931 53.34 81.7107 52.2667C87.5056 50.2 91.1208 46.5333 92.1814 41.66C93.0954 37.4267 92.3806 33.06 90.0954 29.0333C88.361 25.96 87.9392 22.12 88.9411 18.4933C89.7321 15.6533 89.8317 12.66 89.3337 9.58C98.2458 5.76 107.838 3.66667 117.758 3.66667C132.283 3.66667 145.918 8.04667 157.742 15.68C152.082 20.22 148.39 25.8067 146.779 32.3133C145.877 35.9333 142.994 38.4933 139.595 38.6933C129.019 39.3 122.093 41.1333 119.006 44.1333C116.492 46.5733 114.763 49.9467 113.855 54.1533C113.187 57.2533 111.675 59.7067 109.584 61.0733C108.418 61.84 107.439 62.8 106.677 63.9333C104.756 66.7933 104.638 70.5067 104.779 72.7133L93.1716 75.0867L88.736 69.4267C88.361 68.9467 87.7927 68.7333 87.2419 68.8467C82.2321 69.92 78.904 73.08 77.3278 78.2467L66.1775 81.14L61.5544 75.1933C61.1501 74.6733 60.5173 74.46 59.9314 74.64C55.7595 75.9333 52.7126 78.8267 50.861 83.2467L43.4548 83.3733L38.1462 76.6333C38.7556 73.5133 39.4997 70.4667 40.3669 67.48ZM50.4685 149.287L55.32 144.407L90.1892 184.353C74.1638 177.773 60.1364 165.387 50.4685 149.287ZM119.24 207.26L112.877 203.06C112.273 202.66 111.517 202.753 111.002 203.28L95.9255 218.713C95.486 219.167 94.906 219.407 94.3142 219.36C93.7165 219.32 93.1716 219.02 92.7732 218.513C92.2048 217.787 92.0525 216.773 92.322 215.987L101.609 193.973C101.902 193.273 101.779 192.433 101.299 191.88L56.5271 140.593C56.2165 140.233 55.8005 140.053 55.3903 140.053C55.0095 140.053 54.6286 140.207 54.3298 140.513L15.1774 179.92C14.4216 180.687 13.2497 180.613 12.57 179.76L10.6071 177.307C10.1677 176.767 10.0095 175.987 10.1911 175.273L14.2048 159.567C14.363 158.96 14.2282 158.3 13.8591 157.827L9.52901 152.347C11.1638 148.84 13.6306 146.5 17.0349 145.207C17.5095 145.027 17.8845 144.6 18.0485 144.06L22.3669 129.693C22.5544 129.06 22.4314 128.353 22.0329 127.86L17.3864 122.027C18.7399 118.58 21.0192 116.453 24.3357 115.54C24.986 115.36 25.4665 114.733 25.5485 113.98L26.6618 103.587C26.7204 103.06 26.5739 102.527 26.2634 102.133L7.27901 78.0133C5.96651 76.3467 5.02901 74.4067 4.48995 72.2533C2.6794 64.9867 2.80245 59.4933 4.81807 57.1867C6.81026 54.9133 11.8083 55.4533 18.1892 58.6267C19.7946 59.4267 21.236 60.6267 22.4665 62.1933L41.5564 86.4467C41.861 86.84 42.2888 87.0533 42.7751 87.06L51.945 86.9C52.5896 86.8933 53.1696 86.44 53.4099 85.7533C54.6931 82.12 56.8025 79.7467 59.8435 78.5133L64.4079 84.3867C64.8005 84.8933 65.3923 85.1067 65.9665 84.96L78.945 81.5933C79.5134 81.44 79.9763 80.9467 80.1345 80.3C81.1364 76.22 83.3806 73.72 86.9665 72.6733L91.3786 78.3C91.7478 78.7733 92.3103 78.9867 92.8552 78.88L106.853 76.02C107.55 75.8733 108.289 76.1667 108.763 76.78L110.486 79C111.224 79.96 111.16 81.44 110.334 82.3067L71.9841 122.393C71.3571 123.047 71.2868 124.147 71.82 124.9L111.722 181.187C112.15 181.793 112.865 182.02 113.509 181.76L133.566 173.607C134.386 173.347 135.248 173.627 135.822 174.353C136.226 174.853 136.425 175.507 136.396 176.187C136.367 176.867 136.109 177.493 135.664 177.953L120.617 193.413C120.095 193.947 119.937 194.8 120.224 195.527L123.207 203.2L119.24 207.26Z" fill="black"/>
</svg>
